ISO-10303-21;
HEADER;
FILE_DESCRIPTION (( 'STEP AP214' ),
    '1' );
FILE_NAME ('TR Fastenings Ltd-M3X20mm.STEP',
    '2019-02-20T11:36:52',
    ( '' ),
    ( '' ),
    'SwSTEP 2.0',
    'SolidWorks 2019',
    '' );
FILE_SCHEMA (( 'AUTOMOTIVE_DESIGN' ));
ENDSEC;

DATA;
#1 = LINE ( 'NONE', #345, #398 ) ;
#2 = EDGE_CURVE ( 'NONE', #54, #137, #416, .T. ) ;
#3 = EDGE_LOOP ( 'NONE', ( #377, #95, #117, #387, #389, #468 ) ) ;
#4 = EDGE_LOOP ( 'NONE', ( #272, #179, #334, #160 ) ) ;
#5 = CARTESIAN_POINT ( 'NONE',  ( -0.4000000000000001332, 2.771281292110203687, 0.0000000000000000000 ) ) ;
#6 = CIRCLE ( 'NONE', #343, 0.2999999999999999334 ) ;
#7 = ORIENTED_EDGE ( 'NONE', *, *, #9, .T. ) ;
#8 = ORIENTED_EDGE ( 'NONE', *, *, #133, .T. ) ;
#9 = EDGE_CURVE ( 'NONE', #375, #551, #122, .T. ) ;
#10 = VERTEX_POINT ( 'NONE', #72 ) ;
#11 = ORIENTED_EDGE ( 'NONE', *, *, #188, .T. ) ;
#12 = PRODUCT_CONTEXT ( 'NONE', #316, 'mechanical' ) ;
#13 = B_SPLINE_CURVE_WITH_KNOTS ( 'NONE', 3,
 ( #247, #114, #515, #123 ),
 .UNSPECIFIED., .F., .F.,
 ( 4, 4 ),
 ( 0.01143718997732967070, 0.01221185508765334701 ),
 .UNSPECIFIED. ) ;
#14 = ORIENTED_EDGE ( 'NONE', *, *, #89, .F. ) ;
#15 = PRESENTATION_STYLE_ASSIGNMENT (( #360 ) ) ;
#16 = SURFACE_SIDE_STYLE ('',( #194 ) ) ;
#17 = CARTESIAN_POINT ( 'NONE',  ( -0.4000000000000001332, -2.224320120845924009, -0.5999999999999999778 ) ) ;
#18 = CIRCLE ( 'NONE', #478, 1.399999999999999911 ) ;
#19 = CIRCLE ( 'NONE', #554, 2.260000000000006004 ) ;
#20 = DIRECTION ( 'NONE',  ( -0.0000000000000000000, -0.0000000000000000000, 1.000000000000000000 ) ) ;
#21 = CIRCLE ( 'NONE', #332, 0.3000000000000001554 ) ;
#22 = CIRCLE ( 'NONE', #190, 1.500000000000000000 ) ;
#23 = DIRECTION ( 'NONE',  ( 1.000000000000000000, 0.0000000000000000000, 0.0000000000000000000 ) ) ;
#24 = CARTESIAN_POINT ( 'NONE',  ( 0.3999999999999999112, -2.589185855946035453, -0.2402277412930257094 ) ) ;
#25 = AXIS2_PLACEMENT_3D ( 'NONE', #46, #445, #344 ) ;
#26 = EDGE_CURVE ( 'NONE', #141, #183, #250, .T. ) ;
#27 = DIRECTION ( 'NONE',  ( 1.000000000000000000, 0.0000000000000000000, 0.0000000000000000000 ) ) ;
#28 = CARTESIAN_POINT ( 'NONE',  ( 1.399999999999999911, 0.0000000000000000000, -20.00000000000000000 ) ) ;
#29 = DIRECTION ( 'NONE',  ( -0.0000000000000000000, -0.0000000000000000000, 1.000000000000000000 ) ) ;
#30 = CARTESIAN_POINT ( 'NONE',  ( -1.499999999999999778, 1.836970198721029688E-16, -1.484264068711942386 ) ) ;
#31 = CARTESIAN_POINT ( 'NONE',  ( -0.4000000000000001332, 2.224320120845924009, -0.5999999999999999778 ) ) ;
#32 = CARTESIAN_POINT ( 'NONE',  ( 1.500000000000000000, 0.0000000000000000000, 0.0000000000000000000 ) ) ;
#33 = ADVANCED_FACE ( 'NONE', ( #209 ), #251, .F. ) ;
#34 = DIRECTION ( 'NONE',  ( 0.0000000000000000000, 1.000000000000000000, 0.0000000000000000000 ) ) ;
#35 = PRESENTATION_STYLE_ASSIGNMENT (( #77 ) ) ;
#36 = DIRECTION ( 'NONE',  ( 0.7071067811865499042, 0.0000000000000000000, 0.7071067811865452413 ) ) ;
#37 = PLANE ( 'NONE',  #108 ) ;
#38 = ORIENTED_EDGE ( 'NONE', *, *, #127, .F. ) ;
#39 = EDGE_CURVE ( 'NONE', #10, #273, #109, .T. ) ;
#40 = DIRECTION ( 'NONE',  ( 1.000000000000000000, 0.0000000000000000000, 0.0000000000000000000 ) ) ;
#41 = VERTEX_POINT ( 'NONE', #413 ) ;
#42 = VECTOR ( 'NONE', #514, 1000.000000000000000 ) ;
#43 = DIRECTION ( 'NONE',  ( -0.0000000000000000000, -0.0000000000000000000, 1.000000000000000000 ) ) ;
#44 =( GEOMETRIC_REPRESENTATION_CONTEXT ( 3 ) GLOBAL_UNCERTAINTY_ASSIGNED_CONTEXT ( ( #342 ) ) GLOBAL_UNIT_ASSIGNED_CONTEXT ( ( #330, #417, #118 ) ) REPRESENTATION_CONTEXT ( 'NONE', 'WORKASPACE' ) );
#45 = VECTOR ( 'NONE', #245, 1000.000000000000000 ) ;
#46 = CARTESIAN_POINT ( 'NONE',  ( 0.0000000000000000000, 0.0000000000000000000, 0.0000000000000000000 ) ) ;
#47 = EDGE_CURVE ( 'NONE', #183, #141, #500, .T. ) ;
#48 = CARTESIAN_POINT ( 'NONE',  ( 0.0000000000000000000, 0.0000000000000000000, -19.90000000000000213 ) ) ;
#49 = CONICAL_SURFACE ( 'NONE', #192, 1.399999999999999911, 0.7853981633974516097 ) ;
#50 = EDGE_LOOP ( 'NONE', ( #222, #93, #301, #130 ) ) ;
#51 = ORIENTED_EDGE ( 'NONE', *, *, #39, .F. ) ;
#52 = ORIENTED_EDGE ( 'NONE', *, *, #379, .F. ) ;
#53 = EDGE_CURVE ( 'NONE', #516, #392, #13, .T. ) ;
#54 = VERTEX_POINT ( 'NONE', #511 ) ;
#55 = MECHANICAL_DESIGN_GEOMETRIC_PRESENTATION_REPRESENTATION (  '', ( #534 ), #411 ) ;
#56 = ORIENTED_EDGE ( 'NONE', *, *, #452, .T. ) ;
#57 = PRESENTATION_STYLE_ASSIGNMENT (( #234 ) ) ;
#58 = VERTEX_POINT ( 'NONE', #30 ) ;
#59 = ORIENTED_EDGE ( 'NONE', *, *, #237, .F. ) ;
#60 =( NAMED_UNIT ( * ) SI_UNIT ( $, .STERADIAN. ) SOLID_ANGLE_UNIT ( ) );
#61 = STYLED_ITEM ( 'NONE', ( #473 ), #176 ) ;
#62 = DIRECTION ( 'NONE',  ( 1.000000000000000000, 0.0000000000000000000, 0.0000000000000000000 ) ) ;
#63 = DIRECTION ( 'NONE',  ( -0.0000000000000000000, -1.000000000000000000, -0.0000000000000000000 ) ) ;
#64 = FACE_OUTER_BOUND ( 'NONE', #483, .T. ) ;
#65 = AXIS2_PLACEMENT_3D ( 'NONE', #152, #238, #278 ) ;
#66 = DIRECTION ( 'NONE',  ( -0.0000000000000000000, -0.0000000000000000000, 1.000000000000000000 ) ) ;
#67 = DIRECTION ( 'NONE',  ( -1.000000000000000000, 0.0000000000000000000, -0.0000000000000000000 ) ) ;
#68 =( GEOMETRIC_REPRESENTATION_CONTEXT ( 3 ) GLOBAL_UNCERTAINTY_ASSIGNED_CONTEXT ( ( #317 ) ) GLOBAL_UNIT_ASSIGNED_CONTEXT ( ( #191, #533, #442 ) ) REPRESENTATION_CONTEXT ( 'NONE', 'WORKASPACE' ) );
#69 = DIRECTION ( 'NONE',  ( 0.0000000000000000000, 1.000000000000000000, 0.0000000000000000000 ) ) ;
#70 = CARTESIAN_POINT ( 'NONE',  ( -0.4000000000000001332, 2.771281292110203687, -0.05999999999999999778 ) ) ;
#71 = FACE_OUTER_BOUND ( 'NONE', #92, .T. ) ;
#72 = CARTESIAN_POINT ( 'NONE',  ( -1.587867965644034429, 1.944577421594586283E-16, -1.272132034355978991 ) ) ;
#73 = FILL_AREA_STYLE ('',( #205 ) ) ;
#74 = FACE_OUTER_BOUND ( 'NONE', #527, .T. ) ;
#75 = CARTESIAN_POINT ( 'NONE',  ( 0.3999999999999999112, 2.771281292110202799, 0.0000000000000000000 ) ) ;
#76 = ORIENTED_EDGE ( 'NONE', *, *, #2, .T. ) ;
#77 = SURFACE_STYLE_USAGE ( .BOTH. , #419 ) ;
#78 = DIRECTION ( 'NONE',  ( -0.0000000000000000000, -0.0000000000000000000, 1.000000000000000000 ) ) ;
#79 = DIRECTION ( 'NONE',  ( -1.000000000000000000, 0.0000000000000000000, 0.0000000000000000000 ) ) ;
#80 = ORIENTED_EDGE ( 'NONE', *, *, #517, .T. ) ;
#81 = DIRECTION ( 'NONE',  ( -0.0000000000000000000, -0.0000000000000000000, 1.000000000000000000 ) ) ;
#82 = PRODUCT_DEFINITION ( 'UNKNOWN', '', #382, #366 ) ;
#83 = FACE_OUTER_BOUND ( 'NONE', #290, .T. ) ;
#84 = SURFACE_STYLE_USAGE ( .BOTH. , #427 ) ;
#85 = AXIS2_PLACEMENT_3D ( 'NONE', #335, #78, #552 ) ;
#86 = VERTEX_POINT ( 'NONE', #470 ) ;
#87 = DIRECTION ( 'NONE',  ( 1.000000000000000000, -0.0000000000000000000, 0.0000000000000000000 ) ) ;
#88 = ORIENTED_EDGE ( 'NONE', *, *, #197, .T. ) ;
#89 = EDGE_CURVE ( 'NONE', #267, #273, #155, .T. ) ;
#90 = ORIENTED_EDGE ( 'NONE', *, *, #404, .F. ) ;
#91 = DIRECTION ( 'NONE',  ( 1.000000000000000000, 0.0000000000000000000, 0.0000000000000000000 ) ) ;
#92 = EDGE_LOOP ( 'NONE', ( #11, #7, #172, #182 ) ) ;
#93 = ORIENTED_EDGE ( 'NONE', *, *, #233, .T. ) ;
#94 = ORIENTED_EDGE ( 'NONE', *, *, #391, .F. ) ;
#95 = ORIENTED_EDGE ( 'NONE', *, *, #246, .F. ) ;
#96 = AXIS2_PLACEMENT_3D ( 'NONE', #289, #111, #67 ) ;
#97 = FILL_AREA_STYLE ('',( #315 ) ) ;
#98 = ADVANCED_FACE ( 'NONE', ( #465 ), #373, .T. ) ;
#99 = TOROIDAL_SURFACE ( 'NONE', #225, 1.800000000000000044, 0.3000000000000000999 ) ;
#100 = SHAPE_DEFINITION_REPRESENTATION ( #450, #321 ) ;
#101 = EDGE_CURVE ( 'NONE', #375, #226, #18, .T. ) ;
#102 = FILL_AREA_STYLE ('',( #438 ) ) ;
#103 = CARTESIAN_POINT ( 'NONE',  ( 0.3999999999999999112, 2.771281292110203687, 0.0000000000000000000 ) ) ;
#104 = FACE_OUTER_BOUND ( 'NONE', #229, .T. ) ;
#105 = DIRECTION ( 'NONE',  ( 0.0000000000000000000, 0.0000000000000000000, -1.000000000000000000 ) ) ;
#106 = CARTESIAN_POINT ( 'NONE',  ( 1.800000000000000044, 0.0000000000000000000, -1.484264068711942386 ) ) ;
#107 = AXIS2_PLACEMENT_3D ( 'NONE', #261, #43, #167 ) ;
#108 = AXIS2_PLACEMENT_3D ( 'NONE', #454, #509, #400 ) ;
#109 = LINE ( 'NONE', #550, #187 ) ;
#110 = CARTESIAN_POINT ( 'NONE',  ( 0.0000000000000000000, 0.0000000000000000000, -1.272132034355978991 ) ) ;
#111 = DIRECTION ( 'NONE',  ( 0.0000000000000000000, 0.0000000000000000000, -1.000000000000000000 ) ) ;
#112 = AXIS2_PLACEMENT_3D ( 'NONE', #48, #255, #154 ) ;
#113 = CARTESIAN_POINT ( 'NONE',  ( -1.399999999999999911, 1.714505518806294391E-16, -20.00000000000000000 ) ) ;
#114 = CARTESIAN_POINT ( 'NONE',  ( -0.4000000000000001332, -2.406920251642057806, -0.4202826792040085802 ) ) ;
#115 = DIRECTION ( 'NONE',  ( -0.0000000000000000000, -0.0000000000000000000, 1.000000000000000000 ) ) ;
#116 = LINE ( 'NONE', #459, #460 ) ;
#117 = ORIENTED_EDGE ( 'NONE', *, *, #2, .F. ) ;
#118 =( NAMED_UNIT ( * ) SI_UNIT ( $, .STERADIAN. ) SOLID_ANGLE_UNIT ( ) );
#119 = CARTESIAN_POINT ( 'NONE',  ( 0.0000000000000000000, 0.0000000000000000000, 0.0000000000000000000 ) ) ;
#120 = CONICAL_SURFACE ( 'NONE', #388, 1.587867965644034429, 0.7853981633974427279 ) ;
#121 = CARTESIAN_POINT ( 'NONE',  ( 0.0000000000000000000, 0.0000000000000000000, 0.0000000000000000000 ) ) ;
#122 = LINE ( 'NONE', #113, #455 ) ;
#123 = CARTESIAN_POINT ( 'NONE',  ( -0.4000000000000001332, -2.771281292110203687, -0.05999999999999999778 ) ) ;
#124 = ORIENTED_EDGE ( 'NONE', *, *, #322, .T. ) ;
#125 = DIRECTION ( 'NONE',  ( 0.0000000000000000000, 0.0000000000000000000, -1.000000000000000000 ) ) ;
#126 = UNCERTAINTY_MEASURE_WITH_UNIT (LENGTH_MEASURE( 1.000000000000000082E-05 ), #218, 'distance_accuracy_value', 'NONE');
#127 = EDGE_CURVE ( 'NONE', #10, #526, #166, .T. ) ;
#128 = SURFACE_STYLE_FILL_AREA ( #97 ) ;
#129 = DIRECTION ( 'NONE',  ( 1.000000000000000000, 0.0000000000000000000, 0.0000000000000000000 ) ) ;
#130 = ORIENTED_EDGE ( 'NONE', *, *, #294, .F. ) ;
#131 = AXIS2_PLACEMENT_3D ( 'NONE', #466, #364, #23 ) ;
#132 =( NAMED_UNIT ( * ) SI_UNIT ( $, .STERADIAN. ) SOLID_ANGLE_UNIT ( ) );
#133 = EDGE_CURVE ( 'NONE', #433, #86, #291, .T. ) ;
#134 = VERTEX_POINT ( 'NONE', #161 ) ;
#135 = ORIENTED_EDGE ( 'NONE', *, *, #148, .T. ) ;
#136 = PRESENTATION_LAYER_ASSIGNMENT (  '', '', ( #61 ) ) ;
#137 = VERTEX_POINT ( 'NONE', #541 ) ;
#138 = AXIS2_PLACEMENT_3D ( 'NONE', #220, #381, #555 ) ;
#139 = EDGE_CURVE ( 'NONE', #137, #546, #327, .T. ) ;
#140 = ORIENTED_EDGE ( 'NONE', *, *, #101, .F. ) ;
#141 = VERTEX_POINT ( 'NONE', #223 ) ;
#142 =( LENGTH_UNIT ( ) NAMED_UNIT ( * ) SI_UNIT ( .MILLI., .METRE. ) );
#143 = COLOUR_RGB ( '',0.7921568627450980005, 0.8196078431372548767, 0.9333333333333333481 ) ;
#144 = CARTESIAN_POINT ( 'NONE',  ( 0.3999999999999999112, 0.0000000000000000000, 0.0000000000000000000 ) ) ;
#145 = ADVANCED_FACE ( 'NONE', ( #268 ), #358, .T. ) ;
#146 = CARTESIAN_POINT ( 'NONE',  ( 0.0000000000000000000, 0.0000000000000000000, 0.0000000000000000000 ) ) ;
#147 = CYLINDRICAL_SURFACE ( 'NONE', #25, 2.799999999999999822 ) ;
#148 = EDGE_CURVE ( 'NONE', #134, #270, #424, .T. ) ;
#149 = AXIS2_PLACEMENT_3D ( 'NONE', #146, #397, #448 ) ;
#150 = CARTESIAN_POINT ( 'NONE',  ( 0.3999999999999999112, -2.224320120845924009, -0.5999999999999999778 ) ) ;
#151 = DIRECTION ( 'NONE',  ( 1.000000000000000000, 0.0000000000000000000, 0.0000000000000000000 ) ) ;
#152 = CARTESIAN_POINT ( 'NONE',  ( 0.0000000000000000000, 0.0000000000000000000, -20.00000000000000000 ) ) ;
#153 = DIRECTION ( 'NONE',  ( 0.0000000000000000000, -0.0000000000000000000, 1.000000000000000000 ) ) ;
#154 = DIRECTION ( 'NONE',  ( 1.000000000000000000, 0.0000000000000000000, 0.0000000000000000000 ) ) ;
#155 = CIRCLE ( 'NONE', #313, 2.799999999999999822 ) ;
#156 = DIRECTION ( 'NONE',  ( -0.7071067811865435759, 8.659560562354884787E-17, 0.7071067811865514585 ) ) ;
#157 = LINE ( 'NONE', #103, #523 ) ;
#158 = DIRECTION ( 'NONE',  ( 0.7071067811865435759, 0.0000000000000000000, 0.7071067811865514585 ) ) ;
#159 = AXIS2_PLACEMENT_3D ( 'NONE', #295, #81, #469 ) ;
#160 = ORIENTED_EDGE ( 'NONE', *, *, #233, .F. ) ;
#161 = CARTESIAN_POINT ( 'NONE',  ( 2.799999999999999822, 0.0000000000000000000, 0.0000000000000000000 ) ) ;
#162 = CARTESIAN_POINT ( 'NONE',  ( -1.399999999999999911, 1.775737858763662163E-16, -20.00000000000000000 ) ) ;
#163 = ORIENTED_EDGE ( 'NONE', *, *, #379, .T. ) ;
#164 = CARTESIAN_POINT ( 'NONE',  ( 0.0000000000000000000, 0.0000000000000000000, 0.0000000000000000000 ) ) ;
#165 = ORIENTED_EDGE ( 'NONE', *, *, #281, .F. ) ;
#166 = CIRCLE ( 'NONE', #217, 1.587867965644034429 ) ;
#167 = DIRECTION ( 'NONE',  ( 1.000000000000000000, 0.0000000000000000000, 0.0000000000000000000 ) ) ;
#168 = AXIS2_PLACEMENT_3D ( 'NONE', #202, #29, #62 ) ;
#169 = PRESENTATION_LAYER_ASSIGNMENT (  '', '', ( #275 ) ) ;
#170 = SURFACE_SIDE_STYLE ('',( #128 ) ) ;
#171 = FACE_OUTER_BOUND ( 'NONE', #4, .T. ) ;
#172 = ORIENTED_EDGE ( 'NONE', *, *, #308, .F. ) ;
#173 = DIRECTION ( 'NONE',  ( 0.0000000000000000000, -1.000000000000000000, 0.0000000000000000000 ) ) ;
#174 = CARTESIAN_POINT ( 'NONE',  ( 0.3999999999999999112, -10.00000000000000000, -0.5999999999999999778 ) ) ;
#175 = VERTEX_POINT ( 'NONE', #422 ) ;
#176 = MANIFOLD_SOLID_BREP ( 'Cut-Extrude1', #262 ) ;
#177 = VECTOR ( 'NONE', #173, 1000.000000000000000 ) ;
#178 = ORIENTED_EDGE ( 'NONE', *, *, #494, .T. ) ;
#179 = ORIENTED_EDGE ( 'NONE', *, *, #101, .T. ) ;
#180 = ORIENTED_EDGE ( 'NONE', *, *, #193, .F. ) ;
#181 = EDGE_CURVE ( 'NONE', #183, #267, #518, .T. ) ;
#182 = ORIENTED_EDGE ( 'NONE', *, *, #395, .F. ) ;
#183 = VERTEX_POINT ( 'NONE', #5 ) ;
#184 = ORIENTED_EDGE ( 'NONE', *, *, #254, .F. ) ;
#185 = APPLICATION_PROTOCOL_DEFINITION ( 'draft international standard', 'automotive_design', 1998, #203 ) ;
#186 = CARTESIAN_POINT ( 'NONE',  ( -1.500000000000000000, 1.836970198721029934E-16, -19.90000000000000213 ) ) ;
#187 = VECTOR ( 'NONE', #156, 1000.000000000000000 ) ;
#188 = EDGE_CURVE ( 'NONE', #226, #375, #480, .T. ) ;
#189 = AXIS2_PLACEMENT_3D ( 'NONE', #283, #256, #501 ) ;
#190 = AXIS2_PLACEMENT_3D ( 'NONE', #249, #537, #333 ) ;
#191 =( LENGTH_UNIT ( ) NAMED_UNIT ( * ) SI_UNIT ( .MILLI., .METRE. ) );
#192 = AXIS2_PLACEMENT_3D ( 'NONE', #300, #418, #40 ) ;
#193 = EDGE_CURVE ( 'NONE', #175, #58, #449, .T. ) ;
#194 = SURFACE_STYLE_FILL_AREA ( #102 ) ;
#195 = PRODUCT ( 'TR Fastenings Ltd-M3X20mm', 'TR Fastenings Ltd-M3X20mm', '', ( #12 ) ) ;
#196 = CARTESIAN_POINT ( 'NONE',  ( 0.3999999999999999112, -2.771281292110203687, -0.05999999999999999778 ) ) ;
#197 = EDGE_CURVE ( 'NONE', #526, #10, #528, .T. ) ;
#198 = FACE_OUTER_BOUND ( 'NONE', #216, .T. ) ;
#199 = DIRECTION ( 'NONE',  ( 0.0000000000000000000, -1.000000000000000000, 0.0000000000000000000 ) ) ;
#200 = SURFACE_STYLE_FILL_AREA ( #73 ) ;
#201 = DIRECTION ( 'NONE',  ( 1.000000000000000000, 0.0000000000000000000, 0.0000000000000000000 ) ) ;
#202 = CARTESIAN_POINT ( 'NONE',  ( 0.0000000000000000000, 0.0000000000000000000, -1.484264068711942386 ) ) ;
#203 = APPLICATION_CONTEXT ( 'automotive_design' ) ;
#204 = ADVANCED_FACE ( 'NONE', ( #171 ), #49, .T. ) ;
#205 = FILL_AREA_STYLE_COLOUR ( '', #143 ) ;
#206 = CARTESIAN_POINT ( 'NONE',  ( 0.0000000000000000000, 0.0000000000000000000, -0.5999999999999999778 ) ) ;
#207 = AXIS2_PLACEMENT_3D ( 'NONE', #244, #493, #491 ) ;
#208 = DIRECTION ( 'NONE',  ( 0.0000000000000000000, 0.0000000000000000000, -1.000000000000000000 ) ) ;
#209 = FACE_OUTER_BOUND ( 'NONE', #383, .T. ) ;
#210 = DIRECTION ( 'NONE',  ( -0.0000000000000000000, -0.0000000000000000000, 1.000000000000000000 ) ) ;
#211 = EDGE_CURVE ( 'NONE', #392, #141, #1, .T. ) ;
#212 = ORIENTED_EDGE ( 'NONE', *, *, #139, .F. ) ;
#213 = MECHANICAL_DESIGN_GEOMETRIC_PRESENTATION_REPRESENTATION (  '', ( #61 ), #506 ) ;
#214 = CARTESIAN_POINT ( 'NONE',  ( 0.0000000000000000000, 0.0000000000000000000, -1.272132034355978991 ) ) ;
#215 = CARTESIAN_POINT ( 'NONE',  ( 1.399999999999999911, 0.0000000000000000000, -20.00000000000000000 ) ) ;
#216 = EDGE_LOOP ( 'NONE', ( #51, #529, #347, #212, #477, #124, #484, #354 ) ) ;
#217 = AXIS2_PLACEMENT_3D ( 'NONE', #214, #547, #376 ) ;
#218 =( LENGTH_UNIT ( ) NAMED_UNIT ( * ) SI_UNIT ( .MILLI., .METRE. ) );
#219 = AXIS2_PLACEMENT_3D ( 'NONE', #119, #210, #323 ) ;
#220 = CARTESIAN_POINT ( 'NONE',  ( 0.0000000000000000000, 0.0000000000000000000, -1.484264068711942386 ) ) ;
#221 = ORIENTED_EDGE ( 'NONE', *, *, #447, .T. ) ;
#222 = ORIENTED_EDGE ( 'NONE', *, *, #447, .F. ) ;
#223 = CARTESIAN_POINT ( 'NONE',  ( -0.4000000000000001332, -2.771281292110203687, 0.0000000000000000000 ) ) ;
#224 = ORIENTED_EDGE ( 'NONE', *, *, #139, .T. ) ;
#225 = AXIS2_PLACEMENT_3D ( 'NONE', #252, #115, #502 ) ;
#226 = VERTEX_POINT ( 'NONE', #215 ) ;
#227 = ORIENTED_EDGE ( 'NONE', *, *, #148, .F. ) ;
#228 = EDGE_LOOP ( 'NONE', ( #88, #269, #14, #439, #163, #56, #90, #165 ) ) ;
#229 = EDGE_LOOP ( 'NONE', ( #479, #306, #8, #52 ) ) ;
#230 = ADVANCED_FACE ( 'NONE', ( #476 ), #378, .F. ) ;
#231 =( LENGTH_UNIT ( ) NAMED_UNIT ( * ) SI_UNIT ( .MILLI., .METRE. ) );
#232 = CARTESIAN_POINT ( 'NONE',  ( -1.800000000000000044, 2.204364238465235576E-16, -1.484264068711942386 ) ) ;
#233 = EDGE_CURVE ( 'NONE', #551, #260, #305, .T. ) ;
#234 = SURFACE_STYLE_USAGE ( .BOTH. , #16 ) ;
#235 = AXIS2_PLACEMENT_3D ( 'NONE', #299, #482, #91 ) ;
#236 = UNCERTAINTY_MEASURE_WITH_UNIT (LENGTH_MEASURE( 1.000000000000000082E-05 ), #142, 'distance_accuracy_value', 'NONE');
#237 = EDGE_CURVE ( 'NONE', #546, #134, #240, .T. ) ;
#238 = DIRECTION ( 'NONE',  ( -0.0000000000000000000, -0.0000000000000000000, 1.000000000000000000 ) ) ;
#239 = CARTESIAN_POINT ( 'NONE',  ( -0.4000000000000001332, 2.406919987708342923, -0.4202829389708714336 ) ) ;
#240 = LINE ( 'NONE', #503, #430 ) ;
#241 = VECTOR ( 'NONE', #69, 1000.000000000000000 ) ;
#242 = AXIS2_PLACEMENT_3D ( 'NONE', #279, #336, #401 ) ;
#243 = MECHANICAL_DESIGN_GEOMETRIC_PRESENTATION_REPRESENTATION (  '', ( #275 ), #68 ) ;
#244 = CARTESIAN_POINT ( 'NONE',  ( 0.0000000000000000000, 0.0000000000000000000, -0.05999999999999999778 ) ) ;
#245 = DIRECTION ( 'NONE',  ( -0.0000000000000000000, -0.0000000000000000000, 1.000000000000000000 ) ) ;
#246 = EDGE_CURVE ( 'NONE', #137, #433, #471, .T. ) ;
#247 = CARTESIAN_POINT ( 'NONE',  ( -0.4000000000000001332, -2.224320120845924009, -0.5999999999999999778 ) ) ;
#248 = DIRECTION ( 'NONE',  ( -0.0000000000000000000, -0.0000000000000000000, 1.000000000000000000 ) ) ;
#249 = CARTESIAN_POINT ( 'NONE',  ( 0.0000000000000000000, 0.0000000000000000000, -19.90000000000000213 ) ) ;
#250 = LINE ( 'NONE', #412, #357 ) ;
#251 = PLANE ( 'NONE',  #423 ) ;
#252 = CARTESIAN_POINT ( 'NONE',  ( 0.0000000000000000000, 0.0000000000000000000, -1.484264068711942386 ) ) ;
#253 = FACE_OUTER_BOUND ( 'NONE', #524, .T. ) ;
#254 = EDGE_CURVE ( 'NONE', #526, #175, #21, .T. ) ;
#255 = DIRECTION ( 'NONE',  ( -0.0000000000000000000, -0.0000000000000000000, 1.000000000000000000 ) ) ;
#256 = DIRECTION ( 'NONE',  ( -0.0000000000000000000, -0.0000000000000000000, 1.000000000000000000 ) ) ;
#257 = B_SPLINE_CURVE_WITH_KNOTS ( 'NONE', 3,
 ( #462, #287, #367, #496 ),
 .UNSPECIFIED., .F., .F.,
 ( 4, 4 ),
 ( 0.01143718997732967070, 0.01221185508765334701 ),
 .UNSPECIFIED. ) ;
#258 = FILL_AREA_STYLE ('',( #351 ) ) ;
#259 = CARTESIAN_POINT ( 'NONE',  ( 0.0000000000000000000, 0.0000000000000000000, -0.05999999999999999778 ) ) ;
#260 = VERTEX_POINT ( 'NONE', #280 ) ;
#261 = CARTESIAN_POINT ( 'NONE',  ( 0.0000000000000000000, 0.0000000000000000000, -1.272132034355978991 ) ) ;
#262 = CLOSED_SHELL ( 'NONE', ( #145, #337, #504, #312, #434, #302, #346, #420, #204, #98, #444, #429, #544, #288, #352, #230, #33 ) ) ;
#263 = CARTESIAN_POINT ( 'NONE',  ( 0.0000000000000000000, 0.0000000000000000000, 0.0000000000000000000 ) ) ;
#264 = MECHANICAL_DESIGN_GEOMETRIC_PRESENTATION_REPRESENTATION (  '', ( #531 ), #44 ) ;
#265 = DIRECTION ( 'NONE',  ( 0.0000000000000000000, 0.0000000000000000000, -1.000000000000000000 ) ) ;
#266 = CIRCLE ( 'NONE', #219, 2.799999999999999822 ) ;
#267 = VERTEX_POINT ( 'NONE', #363 ) ;
#268 = FACE_OUTER_BOUND ( 'NONE', #228, .T. ) ;
#269 = ORIENTED_EDGE ( 'NONE', *, *, #39, .T. ) ;
#270 = VERTEX_POINT ( 'NONE', #75 ) ;
#271 = VERTEX_POINT ( 'NONE', #535 ) ;
#272 = ORIENTED_EDGE ( 'NONE', *, *, #9, .F. ) ;
#273 = VERTEX_POINT ( 'NONE', #467 ) ;
#274 =( NAMED_UNIT ( * ) SI_UNIT ( $, .STERADIAN. ) SOLID_ANGLE_UNIT ( ) );
#275 = STYLED_ITEM ( 'NONE', ( #57 ), #321 ) ;
#276 = PRESENTATION_LAYER_ASSIGNMENT (  '', '', ( #534 ) ) ;
#277 = LINE ( 'NONE', #409, #328 ) ;
#278 = DIRECTION ( 'NONE',  ( 1.000000000000000000, 0.0000000000000000000, 0.0000000000000000000 ) ) ;
#279 = CARTESIAN_POINT ( 'NONE',  ( 0.0000000000000000000, 0.0000000000000000000, -0.5999999999999999778 ) ) ;
#280 = CARTESIAN_POINT ( 'NONE',  ( 1.500000000000000000, 0.0000000000000000000, -19.90000000000000213 ) ) ;
#281 = EDGE_CURVE ( 'NONE', #526, #546, #116, .T. ) ;
#282 = AXIS2_PLACEMENT_3D ( 'NONE', #164, #405, #339 ) ;
#283 = CARTESIAN_POINT ( 'NONE',  ( 0.0000000000000000000, 0.0000000000000000000, 0.0000000000000000000 ) ) ;
#284 = DIRECTION ( 'NONE',  ( 1.000000000000000000, 0.0000000000000000000, 0.0000000000000000000 ) ) ;
#285 = CYLINDRICAL_SURFACE ( 'NONE', #341, 2.799999999999999822 ) ;
#286 = DIRECTION ( 'NONE',  ( -0.7071067811865499042, 8.659560562354961208E-17, 0.7071067811865452413 ) ) ;
#287 = CARTESIAN_POINT ( 'NONE',  ( 0.3999999999999999112, 2.406920251642057806, -0.4202826792040087467 ) ) ;
#288 = ADVANCED_FACE ( 'NONE', ( #402 ), #320, .F. ) ;
#289 = CARTESIAN_POINT ( 'NONE',  ( 0.0000000000000000000, 0.0000000000000000000, 0.0000000000000000000 ) ) ;
#290 = EDGE_LOOP ( 'NONE', ( #428, #221, #180, #464 ) ) ;
#291 = LINE ( 'NONE', #461, #241 ) ;
#292 = DIRECTION ( 'NONE',  ( -0.0000000000000000000, -0.0000000000000000000, 1.000000000000000000 ) ) ;
#293 = CIRCLE ( 'NONE', #207, 2.799999999999999822 ) ;
#294 = EDGE_CURVE ( 'NONE', #58, #175, #532, .T. ) ;
#295 = CARTESIAN_POINT ( 'NONE',  ( 0.0000000000000000000, 0.0000000000000000000, -1.272132034355978991 ) ) ;
#296 = CARTESIAN_POINT ( 'NONE',  ( -0.4000000000000001332, -10.00000000000000000, -0.5999999999999999778 ) ) ;
#297 =( GEOMETRIC_REPRESENTATION_CONTEXT ( 3 ) GLOBAL_UNCERTAINTY_ASSIGNED_CONTEXT ( ( #236 ) ) GLOBAL_UNIT_ASSIGNED_CONTEXT ( ( #142, #488, #274 ) ) REPRESENTATION_CONTEXT ( 'NONE', 'WORKASPACE' ) );
#298 = ORIENTED_EDGE ( 'NONE', *, *, #404, .T. ) ;
#299 = CARTESIAN_POINT ( 'NONE',  ( 0.0000000000000000000, 0.0000000000000000000, -20.00000000000000000 ) ) ;
#300 = CARTESIAN_POINT ( 'NONE',  ( 0.0000000000000000000, 0.0000000000000000000, -20.00000000000000000 ) ) ;
#301 = ORIENTED_EDGE ( 'NONE', *, *, #329, .T. ) ;
#302 = ADVANCED_FACE ( 'NONE', ( #253 ), #285, .T. ) ;
#303 =( NAMED_UNIT ( * ) PLANE_ANGLE_UNIT ( ) SI_UNIT ( $, .RADIAN. ) );
#304 = ORIENTED_EDGE ( 'NONE', *, *, #197, .F. ) ;
#305 = CIRCLE ( 'NONE', #112, 1.500000000000000000 ) ;
#306 = ORIENTED_EDGE ( 'NONE', *, *, #322, .F. ) ;
#307 = ORIENTED_EDGE ( 'NONE', *, *, #294, .T. ) ;
#308 = EDGE_CURVE ( 'NONE', #260, #551, #22, .T. ) ;
#309 = ORIENTED_EDGE ( 'NONE', *, *, #237, .T. ) ;
#310 = ORIENTED_EDGE ( 'NONE', *, *, #399, .F. ) ;
#311 = ORIENTED_EDGE ( 'NONE', *, *, #89, .T. ) ;
#312 = ADVANCED_FACE ( 'NONE', ( #71 ), #426, .T. ) ;
#313 = AXIS2_PLACEMENT_3D ( 'NONE', #259, #66, #27 ) ;
#314 = CIRCLE ( 'NONE', #131, 2.799999999999999822 ) ;
#315 = FILL_AREA_STYLE_COLOUR ( '', #349 ) ;
#316 = APPLICATION_CONTEXT ( 'automotive_design' ) ;
#317 = UNCERTAINTY_MEASURE_WITH_UNIT (LENGTH_MEASURE( 1.000000000000000082E-05 ), #191, 'distance_accuracy_value', 'NONE');
#318 = AXIS2_PLACEMENT_3D ( 'NONE', #325, #153, #201 ) ;
#319 = DIRECTION ( 'NONE',  ( -0.0000000000000000000, -0.0000000000000000000, 1.000000000000000000 ) ) ;
#320 = PLANE ( 'NONE',  #96 ) ;
#321 = ADVANCED_BREP_SHAPE_REPRESENTATION ( 'TR Fastenings Ltd-M3X20mm', ( #176, #149 ), #297 ) ;
#322 = EDGE_CURVE ( 'NONE', #433, #516, #19, .T. ) ;
#323 = DIRECTION ( 'NONE',  ( 1.000000000000000000, 0.0000000000000000000, 0.0000000000000000000 ) ) ;
#324 = DIRECTION ( 'NONE',  ( -1.000000000000000000, 0.0000000000000000000, 0.0000000000000000000 ) ) ;
#325 = CARTESIAN_POINT ( 'NONE',  ( 0.0000000000000000000, 1.399999999999999911, -20.00000000000000000 ) ) ;
#326 = DIRECTION ( 'NONE',  ( 1.000000000000000000, 0.0000000000000000000, 0.0000000000000000000 ) ) ;
#327 = CIRCLE ( 'NONE', #85, 2.799999999999999822 ) ;
#328 = VECTOR ( 'NONE', #63, 1000.000000000000000 ) ;
#329 = EDGE_CURVE ( 'NONE', #260, #175, #540, .T. ) ;
#330 =( LENGTH_UNIT ( ) NAMED_UNIT ( * ) SI_UNIT ( .MILLI., .METRE. ) );
#331 = FACE_OUTER_BOUND ( 'NONE', #487, .T. ) ;
#332 = AXIS2_PLACEMENT_3D ( 'NONE', #106, #199, #208 ) ;
#333 = DIRECTION ( 'NONE',  ( 1.000000000000000000, 0.0000000000000000000, 0.0000000000000000000 ) ) ;
#334 = ORIENTED_EDGE ( 'NONE', *, *, #395, .T. ) ;
#335 = CARTESIAN_POINT ( 'NONE',  ( 0.0000000000000000000, 0.0000000000000000000, -0.05999999999999999778 ) ) ;
#336 = DIRECTION ( 'NONE',  ( 0.0000000000000000000, 0.0000000000000000000, -1.000000000000000000 ) ) ;
#337 = ADVANCED_FACE ( 'NONE', ( #499 ), #403, .F. ) ;
#338 = CARTESIAN_POINT ( 'NONE',  ( 0.3999999999999999112, -2.771281292110203687, 0.0000000000000000000 ) ) ;
#339 = DIRECTION ( 'NONE',  ( 1.000000000000000000, 0.0000000000000000000, 0.0000000000000000000 ) ) ;
#340 = EDGE_LOOP ( 'NONE', ( #311, #178, #435, #350, #432 ) ) ;
#341 = AXIS2_PLACEMENT_3D ( 'NONE', #497, #365, #543 ) ;
#342 = UNCERTAINTY_MEASURE_WITH_UNIT (LENGTH_MEASURE( 1.000000000000000082E-05 ), #330, 'distance_accuracy_value', 'NONE');
#343 = AXIS2_PLACEMENT_3D ( 'NONE', #232, #441, #425 ) ;
#344 = DIRECTION ( 'NONE',  ( 1.000000000000000000, 0.0000000000000000000, 0.0000000000000000000 ) ) ;
#345 = CARTESIAN_POINT ( 'NONE',  ( -0.4000000000000001332, -2.771281292110203687, 0.0000000000000000000 ) ) ;
#346 = ADVANCED_FACE ( 'NONE', ( #64 ), #37, .F. ) ;
#347 = ORIENTED_EDGE ( 'NONE', *, *, #281, .T. ) ;
#348 = ORIENTED_EDGE ( 'NONE', *, *, #188, .F. ) ;
#349 = COLOUR_RGB ( '',0.7921568627450980005, 0.8196078431372548767, 0.9333333333333333481 ) ;
#350 = ORIENTED_EDGE ( 'NONE', *, *, #47, .F. ) ;
#351 = FILL_AREA_STYLE_COLOUR ( '', #451 ) ;
#352 = ADVANCED_FACE ( 'NONE', ( #104 ), #374, .F. ) ;
#353 = ORIENTED_EDGE ( 'NONE', *, *, #384, .F. ) ;
#354 = ORIENTED_EDGE ( 'NONE', *, *, #494, .F. ) ;
#355 = ORIENTED_EDGE ( 'NONE', *, *, #26, .T. ) ;
#356 = CARTESIAN_POINT ( 'NONE',  ( 2.799999999999999822, 0.0000000000000000000, -0.05999999999999999778 ) ) ;
#357 = VECTOR ( 'NONE', #34, 1000.000000000000000 ) ;
#358 = CONICAL_SURFACE ( 'NONE', #107, 1.587867965644034429, 0.7853981633974427279 ) ;
#359 = AXIS2_PLACEMENT_3D ( 'NONE', #206, #105, #498 ) ;
#360 = SURFACE_STYLE_USAGE ( .BOTH. , #170 ) ;
#361 = AXIS2_PLACEMENT_3D ( 'NONE', #174, #87, #265 ) ;
#362 = CARTESIAN_POINT ( 'NONE',  ( 1.587867965644034429, 0.0000000000000000000, -1.272132034355978991 ) ) ;
#363 = CARTESIAN_POINT ( 'NONE',  ( -0.4000000000000001332, 2.771281292110203687, -0.05999999999999999778 ) ) ;
#364 = DIRECTION ( 'NONE',  ( -0.0000000000000000000, -0.0000000000000000000, 1.000000000000000000 ) ) ;
#365 = DIRECTION ( 'NONE',  ( -0.0000000000000000000, -0.0000000000000000000, 1.000000000000000000 ) ) ;
#366 = PRODUCT_DEFINITION_CONTEXT ( 'detailed design', #203, 'design' ) ;
#367 = CARTESIAN_POINT ( 'NONE',  ( 0.3999999999999999112, 2.589186067802317304, -0.2402275316096650626 ) ) ;
#368 = DIRECTION ( 'NONE',  ( -0.0000000000000000000, -0.0000000000000000000, 1.000000000000000000 ) ) ;
#369 = DIRECTION ( 'NONE',  ( 1.000000000000000000, 0.0000000000000000000, 0.0000000000000000000 ) ) ;
#370 = CARTESIAN_POINT ( 'NONE',  ( -0.4000000000000001332, 2.589185855946036341, -0.2402277412930251266 ) ) ;
#371 = CARTESIAN_POINT ( 'NONE',  ( 0.3999999999999999112, -2.406919987708343367, -0.4202829389708716556 ) ) ;
#372 = EDGE_LOOP ( 'NONE', ( #486, #355 ) ) ;
#373 = CYLINDRICAL_SURFACE ( 'NONE', #189, 1.500000000000000000 ) ;
#374 = PLANE ( 'NONE',  #359 ) ;
#375 = VERTEX_POINT ( 'NONE', #162 ) ;
#376 = DIRECTION ( 'NONE',  ( 1.000000000000000000, 0.0000000000000000000, 0.0000000000000000000 ) ) ;
#377 = ORIENTED_EDGE ( 'NONE', *, *, #133, .F. ) ;
#378 = PLANE ( 'NONE',  #361 ) ;
#379 = EDGE_CURVE ( 'NONE', #271, #86, #505, .T. ) ;
#380 = VECTOR ( 'NONE', #36, 1000.000000000000114 ) ;
#381 = DIRECTION ( 'NONE',  ( -0.0000000000000000000, -0.0000000000000000000, 1.000000000000000000 ) ) ;
#382 = PRODUCT_DEFINITION_FORMATION_WITH_SPECIFIED_SOURCE ( 'ANY', '', #195, .NOT_KNOWN. ) ;
#383 = EDGE_LOOP ( 'NONE', ( #94, #310, #530, #421, #437, #510 ) ) ;
#384 = EDGE_CURVE ( 'NONE', #54, #134, #266, .T. ) ;
#385 = ORIENTED_EDGE ( 'NONE', *, *, #193, .T. ) ;
#386 = CARTESIAN_POINT ( 'NONE',  ( -0.4000000000000001332, 2.771281292110203687, 0.0000000000000000000 ) ) ;
#387 = ORIENTED_EDGE ( 'NONE', *, *, #513, .F. ) ;
#388 = AXIS2_PLACEMENT_3D ( 'NONE', #110, #548, #151 ) ;
#389 = ORIENTED_EDGE ( 'NONE', *, *, #490, .F. ) ;
#390 = COLOUR_RGB ( '',0.7921568627450980005, 0.8196078431372548767, 0.9333333333333333481 ) ;
#391 = EDGE_CURVE ( 'NONE', #271, #516, #277, .T. ) ;
#392 = VERTEX_POINT ( 'NONE', #406 ) ;
#393 = EDGE_LOOP ( 'NONE', ( #348, #140 ) ) ;
#394 = DIRECTION ( 'NONE',  ( 1.000000000000000000, 0.0000000000000000000, 0.0000000000000000000 ) ) ;
#395 = EDGE_CURVE ( 'NONE', #226, #260, #453, .T. ) ;
#396 =( NAMED_UNIT ( * ) PLANE_ANGLE_UNIT ( ) SI_UNIT ( $, .RADIAN. ) );
#397 = DIRECTION ( 'NONE',  ( 0.0000000000000000000, 0.0000000000000000000, 1.000000000000000000 ) ) ;
#398 = VECTOR ( 'NONE', #522, 1000.000000000000000 ) ;
#399 = EDGE_CURVE ( 'NONE', #267, #271, #485, .T. ) ;
#400 = DIRECTION ( 'NONE',  ( -1.000000000000000000, 0.0000000000000000000, -0.0000000000000000000 ) ) ;
#401 = DIRECTION ( 'NONE',  ( -1.000000000000000000, 0.0000000000000000000, 0.0000000000000000000 ) ) ;
#402 = FACE_OUTER_BOUND ( 'NONE', #372, .T. ) ;
#403 = TOROIDAL_SURFACE ( 'NONE', #168, 1.800000000000000044, 0.3000000000000000999 ) ;
#404 = EDGE_CURVE ( 'NONE', #546, #41, #314, .T. ) ;
#405 = DIRECTION ( 'NONE',  ( -0.0000000000000000000, -0.0000000000000000000, 1.000000000000000000 ) ) ;
#406 = CARTESIAN_POINT ( 'NONE',  ( -0.4000000000000001332, -2.771281292110203687, -0.05999999999999999778 ) ) ;
#407 = CARTESIAN_POINT ( 'NONE',  ( 0.0000000000000000000, 0.0000000000000000000, -0.5999999999999999778 ) ) ;
#408 = CARTESIAN_POINT ( 'NONE',  ( 0.0000000000000000000, 0.0000000000000000000, -20.00000000000000000 ) ) ;
#409 = CARTESIAN_POINT ( 'NONE',  ( -0.4000000000000001332, -10.00000000000000000, -0.5999999999999999778 ) ) ;
#410 = DIRECTION ( 'NONE',  ( 0.0000000000000000000, 0.0000000000000000000, -1.000000000000000000 ) ) ;
#411 =( GEOMETRIC_REPRESENTATION_CONTEXT ( 3 ) GLOBAL_UNCERTAINTY_ASSIGNED_CONTEXT ( ( #474 ) ) GLOBAL_UNIT_ASSIGNED_CONTEXT ( ( #231, #396, #60 ) ) REPRESENTATION_CONTEXT ( 'NONE', 'WORKASPACE' ) );
#412 = CARTESIAN_POINT ( 'NONE',  ( -0.4000000000000001332, 0.0000000000000000000, 0.0000000000000000000 ) ) ;
#413 = CARTESIAN_POINT ( 'NONE',  ( 0.3999999999999999112, 2.771281292110203687, -0.05999999999999999778 ) ) ;
#414 = LINE ( 'NONE', #542, #446 ) ;
#415 = DIRECTION ( 'NONE',  ( -0.0000000000000000000, -0.0000000000000000000, 1.000000000000000000 ) ) ;
#416 = LINE ( 'NONE', #338, #42 ) ;
#417 =( NAMED_UNIT ( * ) PLANE_ANGLE_UNIT ( ) SI_UNIT ( $, .RADIAN. ) );
#418 = DIRECTION ( 'NONE',  ( -0.0000000000000000000, -0.0000000000000000000, 1.000000000000000000 ) ) ;
#419 = SURFACE_SIDE_STYLE ('',( #200 ) ) ;
#420 = ADVANCED_FACE ( 'NONE', ( #512 ), #536, .F. ) ;
#421 = ORIENTED_EDGE ( 'NONE', *, *, #26, .F. ) ;
#422 = CARTESIAN_POINT ( 'NONE',  ( 1.499999999999999778, 0.0000000000000000000, -1.484264068711942386 ) ) ;
#423 = AXIS2_PLACEMENT_3D ( 'NONE', #296, #79, #457 ) ;
#424 = CIRCLE ( 'NONE', #553, 2.799999999999999822 ) ;
#425 = DIRECTION ( 'NONE',  ( -1.000000000000000000, 1.224646799147353207E-16, 0.0000000000000000000 ) ) ;
#426 = CONICAL_SURFACE ( 'NONE', #65, 1.399999999999999911, 0.7853981633974516097 ) ;
#427 = SURFACE_SIDE_STYLE ('',( #525 ) ) ;
#428 = ORIENTED_EDGE ( 'NONE', *, *, #308, .T. ) ;
#429 = ADVANCED_FACE ( 'NONE', ( #198 ), #120, .T. ) ;
#430 = VECTOR ( 'NONE', #368, 1000.000000000000000 ) ;
#431 = EDGE_LOOP ( 'NONE', ( #38, #80, #307, #184 ) ) ;
#432 = ORIENTED_EDGE ( 'NONE', *, *, #181, .T. ) ;
#433 = VERTEX_POINT ( 'NONE', #458 ) ;
#434 = ADVANCED_FACE ( 'NONE', ( #331 ), #539, .T. ) ;
#435 = ORIENTED_EDGE ( 'NONE', *, *, #211, .T. ) ;
#436 = AXIS2_PLACEMENT_3D ( 'NONE', #508, #319, #284 ) ;
#437 = ORIENTED_EDGE ( 'NONE', *, *, #211, .F. ) ;
#438 = FILL_AREA_STYLE_COLOUR ( '', #390 ) ;
#439 = ORIENTED_EDGE ( 'NONE', *, *, #399, .T. ) ;
#440 = ORIENTED_EDGE ( 'NONE', *, *, #384, .T. ) ;
#441 = DIRECTION ( 'NONE',  ( 1.224646799147353207E-16, 1.000000000000000000, 0.0000000000000000000 ) ) ;
#442 =( NAMED_UNIT ( * ) SI_UNIT ( $, .STERADIAN. ) SOLID_ANGLE_UNIT ( ) );
#443 = FACE_OUTER_BOUND ( 'NONE', #340, .T. ) ;
#444 = ADVANCED_FACE ( 'NONE', ( #74 ), #99, .F. ) ;
#445 = DIRECTION ( 'NONE',  ( -0.0000000000000000000, -0.0000000000000000000, 1.000000000000000000 ) ) ;
#446 = VECTOR ( 'NONE', #292, 1000.000000000000000 ) ;
#447 = EDGE_CURVE ( 'NONE', #551, #58, #414, .T. ) ;
#448 = DIRECTION ( 'NONE',  ( 1.000000000000000000, 0.0000000000000000000, 0.0000000000000000000 ) ) ;
#449 = CIRCLE ( 'NONE', #138, 1.499999999999999778 ) ;
#450 = PRODUCT_DEFINITION_SHAPE ( 'NONE', 'NONE',  #82 ) ;
#451 = COLOUR_RGB ( '',0.7921568627450980005, 0.8196078431372548767, 0.9333333333333333481 ) ;
#452 = EDGE_CURVE ( 'NONE', #86, #41, #257, .T. ) ;
#453 = LINE ( 'NONE', #28, #380 ) ;
#454 = CARTESIAN_POINT ( 'NONE',  ( 0.0000000000000000000, 0.0000000000000000000, 0.0000000000000000000 ) ) ;
#455 = VECTOR ( 'NONE', #286, 1000.000000000000114 ) ;
#456 = PRESENTATION_LAYER_ASSIGNMENT (  '', '', ( #531 ) ) ;
#457 = DIRECTION ( 'NONE',  ( 0.0000000000000000000, 0.0000000000000000000, 1.000000000000000000 ) ) ;
#458 = CARTESIAN_POINT ( 'NONE',  ( 0.3999999999999999112, -2.224320120845924009, -0.5999999999999999778 ) ) ;
#459 = CARTESIAN_POINT ( 'NONE',  ( 1.587867965644034429, 0.0000000000000000000, -1.272132034355978991 ) ) ;
#460 = VECTOR ( 'NONE', #158, 1000.000000000000000 ) ;
#461 = CARTESIAN_POINT ( 'NONE',  ( 0.3999999999999999112, -10.00000000000000000, -0.5999999999999999778 ) ) ;
#462 = CARTESIAN_POINT ( 'NONE',  ( 0.3999999999999999112, 2.224320120845924009, -0.5999999999999999778 ) ) ;
#463 = CARTESIAN_POINT ( 'NONE',  ( 0.0000000000000000000, 0.0000000000000000000, -1.484264068711942386 ) ) ;
#464 = ORIENTED_EDGE ( 'NONE', *, *, #329, .F. ) ;
#465 = FACE_OUTER_BOUND ( 'NONE', #50, .T. ) ;
#466 = CARTESIAN_POINT ( 'NONE',  ( 0.0000000000000000000, 0.0000000000000000000, -0.05999999999999999778 ) ) ;
#467 = CARTESIAN_POINT ( 'NONE',  ( -2.799999999999999378, 3.429011037612588783E-16, -0.05999999999999999778 ) ) ;
#468 = ORIENTED_EDGE ( 'NONE', *, *, #452, .F. ) ;
#469 = DIRECTION ( 'NONE',  ( 1.000000000000000000, 0.0000000000000000000, 0.0000000000000000000 ) ) ;
#470 = CARTESIAN_POINT ( 'NONE',  ( 0.3999999999999999112, 2.224320120845924009, -0.5999999999999999778 ) ) ;
#471 = B_SPLINE_CURVE_WITH_KNOTS ( 'NONE', 3,
 ( #196, #24, #371, #150 ),
 .UNSPECIFIED., .F., .F.,
 ( 4, 4 ),
 ( 0.004785197048972541015, 0.005553810402110782342 ),
 .UNSPECIFIED. ) ;
#472 = ORIENTED_EDGE ( 'NONE', *, *, #517, .F. ) ;
#473 = PRESENTATION_STYLE_ASSIGNMENT (( #84 ) ) ;
#474 = UNCERTAINTY_MEASURE_WITH_UNIT (LENGTH_MEASURE( 1.000000000000000082E-05 ), #231, 'distance_accuracy_value', 'NONE');
#475 = CYLINDRICAL_SURFACE ( 'NONE', #495, 1.500000000000000000 ) ;
#476 = FACE_OUTER_BOUND ( 'NONE', #3, .T. ) ;
#477 = ORIENTED_EDGE ( 'NONE', *, *, #246, .T. ) ;
#478 = AXIS2_PLACEMENT_3D ( 'NONE', #408, #507, #369 ) ;
#479 = ORIENTED_EDGE ( 'NONE', *, *, #391, .T. ) ;
#480 = CIRCLE ( 'NONE', #235, 1.399999999999999911 ) ;
#481 = ORIENTED_EDGE ( 'NONE', *, *, #513, .T. ) ;
#482 = DIRECTION ( 'NONE',  ( -0.0000000000000000000, -0.0000000000000000000, 1.000000000000000000 ) ) ;
#483 = EDGE_LOOP ( 'NONE', ( #440, #135, #481 ) ) ;
#484 = ORIENTED_EDGE ( 'NONE', *, *, #53, .T. ) ;
#485 = B_SPLINE_CURVE_WITH_KNOTS ( 'NONE', 3,
 ( #70, #370, #239, #31 ),
 .UNSPECIFIED., .F., .F.,
 ( 4, 4 ),
 ( 0.004785197048972540147, 0.005553810402110784077 ),
 .UNSPECIFIED. ) ;
#486 = ORIENTED_EDGE ( 'NONE', *, *, #47, .T. ) ;
#487 = EDGE_LOOP ( 'NONE', ( #224, #309, #353, #76 ) ) ;
#488 =( NAMED_UNIT ( * ) PLANE_ANGLE_UNIT ( ) SI_UNIT ( $, .RADIAN. ) );
#489 = AXIS2_PLACEMENT_3D ( 'NONE', #463, #415, #326 ) ;
#490 = EDGE_CURVE ( 'NONE', #41, #270, #157, .T. ) ;
#491 = DIRECTION ( 'NONE',  ( 1.000000000000000000, 0.0000000000000000000, 0.0000000000000000000 ) ) ;
#492 = APPLICATION_PROTOCOL_DEFINITION ( 'draft international standard', 'automotive_design', 1998, #316 ) ;
#493 = DIRECTION ( 'NONE',  ( -0.0000000000000000000, -0.0000000000000000000, 1.000000000000000000 ) ) ;
#494 = EDGE_CURVE ( 'NONE', #273, #392, #293, .T. ) ;
#495 = AXIS2_PLACEMENT_3D ( 'NONE', #263, #20, #394 ) ;
#496 = CARTESIAN_POINT ( 'NONE',  ( 0.3999999999999999112, 2.771281292110203687, -0.05999999999999999778 ) ) ;
#497 = CARTESIAN_POINT ( 'NONE',  ( 0.0000000000000000000, 0.0000000000000000000, 0.0000000000000000000 ) ) ;
#498 = DIRECTION ( 'NONE',  ( -1.000000000000000000, 0.0000000000000000000, -0.0000000000000000000 ) ) ;
#499 = FACE_OUTER_BOUND ( 'NONE', #431, .T. ) ;
#500 = CIRCLE ( 'NONE', #282, 2.799999999999999822 ) ;
#501 = DIRECTION ( 'NONE',  ( 1.000000000000000000, 0.0000000000000000000, 0.0000000000000000000 ) ) ;
#502 = DIRECTION ( 'NONE',  ( 1.000000000000000000, 0.0000000000000000000, 0.0000000000000000000 ) ) ;
#503 = CARTESIAN_POINT ( 'NONE',  ( 2.799999999999999822, 0.0000000000000000000, 0.0000000000000000000 ) ) ;
#504 = ADVANCED_FACE ( 'NONE', ( #83 ), #475, .T. ) ;
#505 = CIRCLE ( 'NONE', #242, 2.260000000000006004 ) ;
#506 =( GEOMETRIC_REPRESENTATION_CONTEXT ( 3 ) GLOBAL_UNCERTAINTY_ASSIGNED_CONTEXT ( ( #126 ) ) GLOBAL_UNIT_ASSIGNED_CONTEXT ( ( #218, #303, #132 ) ) REPRESENTATION_CONTEXT ( 'NONE', 'WORKASPACE' ) );
#507 = DIRECTION ( 'NONE',  ( -0.0000000000000000000, -0.0000000000000000000, 1.000000000000000000 ) ) ;
#508 = CARTESIAN_POINT ( 'NONE',  ( 0.0000000000000000000, 0.0000000000000000000, 0.0000000000000000000 ) ) ;
#509 = DIRECTION ( 'NONE',  ( 0.0000000000000000000, 0.0000000000000000000, -1.000000000000000000 ) ) ;
#510 = ORIENTED_EDGE ( 'NONE', *, *, #53, .F. ) ;
#511 = CARTESIAN_POINT ( 'NONE',  ( 0.3999999999999999112, -2.771281292110203687, 0.0000000000000000000 ) ) ;
#512 = FACE_OUTER_BOUND ( 'NONE', #393, .T. ) ;
#513 = EDGE_CURVE ( 'NONE', #270, #54, #519, .T. ) ;
#514 = DIRECTION ( 'NONE',  ( 0.0000000000000000000, 0.0000000000000000000, -1.000000000000000000 ) ) ;
#515 = CARTESIAN_POINT ( 'NONE',  ( -0.4000000000000001332, -2.589186067802317748, -0.2402275316096646740 ) ) ;
#516 = VERTEX_POINT ( 'NONE', #17 ) ;
#517 = EDGE_CURVE ( 'NONE', #10, #58, #6, .T. ) ;
#518 = LINE ( 'NONE', #386, #545 ) ;
#519 = LINE ( 'NONE', #144, #177 ) ;
#520 = DIRECTION ( 'NONE',  ( -0.0000000000000000000, -0.0000000000000000000, 1.000000000000000000 ) ) ;
#521 = ORIENTED_EDGE ( 'NONE', *, *, #490, .T. ) ;
#522 = DIRECTION ( 'NONE',  ( -0.0000000000000000000, -0.0000000000000000000, 1.000000000000000000 ) ) ;
#523 = VECTOR ( 'NONE', #248, 1000.000000000000000 ) ;
#524 = EDGE_LOOP ( 'NONE', ( #59, #298, #521, #227 ) ) ;
#525 = SURFACE_STYLE_FILL_AREA ( #258 ) ;
#526 = VERTEX_POINT ( 'NONE', #362 ) ;
#527 = EDGE_LOOP ( 'NONE', ( #472, #304, #549, #385 ) ) ;
#528 = CIRCLE ( 'NONE', #159, 1.587867965644034429 ) ;
#529 = ORIENTED_EDGE ( 'NONE', *, *, #127, .T. ) ;
#530 = ORIENTED_EDGE ( 'NONE', *, *, #181, .F. ) ;
#531 = STYLED_ITEM ( 'NONE', ( #35 ), #98 ) ;
#532 = CIRCLE ( 'NONE', #489, 1.499999999999999778 ) ;
#533 =( NAMED_UNIT ( * ) PLANE_ANGLE_UNIT ( ) SI_UNIT ( $, .RADIAN. ) );
#534 = STYLED_ITEM ( 'NONE', ( #15 ), #504 ) ;
#535 = CARTESIAN_POINT ( 'NONE',  ( -0.4000000000000001332, 2.224320120845924009, -0.5999999999999999778 ) ) ;
#536 = PLANE ( 'NONE',  #318 ) ;
#537 = DIRECTION ( 'NONE',  ( -0.0000000000000000000, -0.0000000000000000000, 1.000000000000000000 ) ) ;
#538 = PRODUCT_RELATED_PRODUCT_CATEGORY ( 'part', '', ( #195 ) ) ;
#539 = CYLINDRICAL_SURFACE ( 'NONE', #436, 2.799999999999999822 ) ;
#540 = LINE ( 'NONE', #32, #45 ) ;
#541 = CARTESIAN_POINT ( 'NONE',  ( 0.3999999999999999112, -2.771281292110203687, -0.05999999999999999778 ) ) ;
#542 = CARTESIAN_POINT ( 'NONE',  ( -1.500000000000000000, 1.836970198721029934E-16, 0.0000000000000000000 ) ) ;
#543 = DIRECTION ( 'NONE',  ( 1.000000000000000000, 0.0000000000000000000, 0.0000000000000000000 ) ) ;
#544 = ADVANCED_FACE ( 'NONE', ( #443 ), #147, .T. ) ;
#545 = VECTOR ( 'NONE', #125, 1000.000000000000000 ) ;
#546 = VERTEX_POINT ( 'NONE', #356 ) ;
#547 = DIRECTION ( 'NONE',  ( -0.0000000000000000000, -0.0000000000000000000, 1.000000000000000000 ) ) ;
#548 = DIRECTION ( 'NONE',  ( -0.0000000000000000000, -0.0000000000000000000, 1.000000000000000000 ) ) ;
#549 = ORIENTED_EDGE ( 'NONE', *, *, #254, .T. ) ;
#550 = CARTESIAN_POINT ( 'NONE',  ( -1.587867965644034429, 1.944577421594586037E-16, -1.272132034355978991 ) ) ;
#551 = VERTEX_POINT ( 'NONE', #186 ) ;
#552 = DIRECTION ( 'NONE',  ( 1.000000000000000000, 0.0000000000000000000, 0.0000000000000000000 ) ) ;
#553 = AXIS2_PLACEMENT_3D ( 'NONE', #121, #520, #129 ) ;
#554 = AXIS2_PLACEMENT_3D ( 'NONE', #407, #410, #324 ) ;
#555 = DIRECTION ( 'NONE',  ( 1.000000000000000000, 0.0000000000000000000, 0.0000000000000000000 ) ) ;
ENDSEC;
END-ISO-10303-21;
