M48
;Layer_Color=9474304
;FILE_FORMAT=2:5
INCH,LZ
;TYPE=PLATED
T01F00S00C0.01181
T02F00S00C0.02756
T03F00S00C0.03346
T04F00S00C0.03500
T05F00S00C0.03543
T06F00S00C0.04134
T07F00S00C0.04331
T08F00S00C0.04882
T09F00S00C0.05000
T10F00S00C0.05118
T11F00S00C0.05906
T12F00S00C0.09100
;TYPE=NON_PLATED
T13F00S00C0.12598
%
T01
X0163386Y0078347
X0169984Y0096717
X0179528Y0097638
X0090551Y007874
X0082874Y0112598
X0070866Y0102362
X0064961Y0095276
X0043307Y0070866
X003937Y0066929
X0204724Y0122047
X0208661Y011811
X0200787Y0200787
X0192913
X0185039
Y0208661
Y0216535
X0192913
Y0208661
X0200787
X0220472Y0212598
Y0220472
Y0228346
X0212598
Y0220472
X0228346
Y0228346
X0236221
Y0220472
Y0212598
X0228346
Y0236221
X0236221
Y0244094
Y0251969
X0228346
Y0244094
X0220472
X0212598
Y0251969
X0220472
Y0236221
X0212598
X0204724
Y0244094
Y0251969
X019685
X0188976
Y0244094
X019685
Y0236221
X0188976
X0181102
X0173228
X0165354
Y0228346
Y0220472
X015748
Y0228346
X0149606
Y0220472
X0141732
Y0228346
Y0236221
Y0244094
Y0251969
X0149606
Y0244094
X015748
Y0251969
X0165354
Y0244094
X0173228
Y0251969
X0181102
Y0244094
X015748Y0236221
X0149606
Y0212598
X015748
X0165354
X0141732
T02
X0159983Y0197891
X0167857
X0209009
X0216883
T03
X012874Y0042126
X0129134Y0081102
X0115354
X0114961Y0042126
T04
X0174882Y001378
X0184882
X0194882
X0204882
X007063
X006063
X005063
X004063
X0372835Y014624
Y015624
Y016624
Y017624
T05
X0352362Y0011102
Y0021102
Y0031102
Y0041102
Y0051102
Y0061102
Y0071102
Y0081102
Y0091102
Y0101102
Y0111102
X0252362
Y0101102
Y0091102
Y0081102
Y0071102
Y0061102
Y0051102
Y0041102
Y0031102
Y0021102
Y0011102
Y0121102
Y0131102
Y0141102
Y0151102
Y0161102
Y0171102
Y0181102
Y0191102
X0352362
Y0181102
Y0171102
Y0161102
Y0151102
Y0141102
Y0131102
Y0121102
T06
X0092423Y0187992
X012195
T07
X0156772Y003622
X0166772
X0176772
X0186772
X0196772
X0206772
X0216772
X0226772
Y0086221
X0216772
X0206772
X0196772
X0186772
X0176772
X0166772
X0156772
X0088661Y0088189
X0078661
X0068661
X0058661
X0048661
X0038661
X0028661
X0018661
Y0038189
X0028661
X0038661
X0048661
X0058661
X0068661
X0078661
X0088661
T08
X0178583Y0225591
X0188583
X0198583
T09
X0163583Y0163228
X0173583
X0183583
X0193583
X0203583
X0213583
X0223583
X0233583
T10
X0094095Y0251181
X0113779
T11
X001752Y0127165
X0106496
T12
X0027756Y0187209
Y0205709
Y0224209
T13
X037789Y0015728
X0015748Y0015748
Y0259842
X016685Y0116929
X0230315
X037789Y0259822
M30
