G04*
G04 #@! TF.GenerationSoftware,Altium Limited,Altium Designer,25.4.2 (15)*
G04*
G04 Layer_Color=8388736*
%FSLAX44Y44*%
%MOMM*%
G71*
G04*
G04 #@! TF.SameCoordinates,2B46D1DC-655E-4794-AB20-7024E33391BE*
G04*
G04*
G04 #@! TF.FilePolarity,Negative*
G04*
G01*
G75*
%ADD16C,2.4500*%
%ADD17C,2.1090*%
%ADD18C,3.2000*%
%ADD19C,2.1500*%
%ADD20R,2.1500X2.1500*%
%ADD21C,3.6798*%
%ADD22R,3.6798X3.6798*%
%ADD23C,1.6000*%
%ADD24R,1.6000X1.6000*%
%ADD25C,1.3970*%
%ADD26C,1.8500*%
%ADD27R,1.8500X1.8500*%
%ADD28C,3.4000*%
%ADD29C,2.0600*%
%ADD30R,2.0600X2.0600*%
%ADD31C,1.4080*%
%ADD32R,1.4080X1.4080*%
%ADD33R,1.6080X1.6080*%
%ADD34C,1.6080*%
%ADD35R,1.4000X1.4000*%
%ADD36C,1.4000*%
D16*
X44500Y323000D02*
D03*
X270500D02*
D03*
D17*
X567900Y414600D02*
D03*
X593300D02*
D03*
X542500D02*
D03*
X517100D02*
D03*
X491700D02*
D03*
X466300D02*
D03*
X440900D02*
D03*
X415500D02*
D03*
D18*
X585000Y297000D02*
D03*
X423800D02*
D03*
D19*
X239000Y638000D02*
D03*
D20*
X289000D02*
D03*
D21*
X70500Y475510D02*
D03*
Y522500D02*
D03*
D22*
Y569490D02*
D03*
D23*
X309754Y477500D02*
D03*
D24*
X234754D02*
D03*
D25*
X947000Y447650D02*
D03*
Y422250D02*
D03*
Y396850D02*
D03*
Y371450D02*
D03*
X444200Y35000D02*
D03*
X469600D02*
D03*
X495000D02*
D03*
X520400D02*
D03*
X179400D02*
D03*
X154000D02*
D03*
X128600D02*
D03*
X103200D02*
D03*
D26*
X72800Y97000D02*
D03*
X98200D02*
D03*
X123600D02*
D03*
X174400D02*
D03*
X199800Y224000D02*
D03*
X174400D02*
D03*
X47400D02*
D03*
X72800D02*
D03*
X98200D02*
D03*
X123600D02*
D03*
X149000Y97000D02*
D03*
Y224000D02*
D03*
X225200Y97000D02*
D03*
X47400D02*
D03*
X199800D02*
D03*
X423600Y92000D02*
D03*
X449000D02*
D03*
X474400D02*
D03*
X525200D02*
D03*
X550600Y219000D02*
D03*
X525200D02*
D03*
X398200D02*
D03*
X423600D02*
D03*
X449000D02*
D03*
X474400D02*
D03*
X499800Y92000D02*
D03*
Y219000D02*
D03*
X576000Y92000D02*
D03*
X550600D02*
D03*
X398200D02*
D03*
D27*
X225200Y224000D02*
D03*
X576000Y219000D02*
D03*
D28*
X959840Y659948D02*
D03*
X40000Y40000D02*
D03*
X959840Y39948D02*
D03*
X40000Y660000D02*
D03*
D29*
X453600Y573000D02*
D03*
X479000D02*
D03*
D30*
X504400D02*
D03*
D31*
X550882Y502642D02*
D03*
X426356D02*
D03*
D32*
X530882D02*
D03*
X406356D02*
D03*
D33*
X641000Y485400D02*
D03*
D34*
X895000D02*
D03*
X641000Y460000D02*
D03*
X895000D02*
D03*
X641000Y434600D02*
D03*
X895000D02*
D03*
X641000Y409200D02*
D03*
X895000D02*
D03*
X641000Y383800D02*
D03*
X895000D02*
D03*
X641000Y358400D02*
D03*
X895000D02*
D03*
X641000Y333000D02*
D03*
X895000D02*
D03*
X641000Y307600D02*
D03*
X895000D02*
D03*
X641000Y282200D02*
D03*
X895000D02*
D03*
X641000Y256800D02*
D03*
X895000D02*
D03*
X641000Y231400D02*
D03*
X895000D02*
D03*
X641000Y206000D02*
D03*
X895000D02*
D03*
X641000Y180600D02*
D03*
X895000D02*
D03*
X641000Y155200D02*
D03*
X895000D02*
D03*
X641000Y129800D02*
D03*
X895000D02*
D03*
X641000Y104400D02*
D03*
X895000D02*
D03*
X641000Y79000D02*
D03*
X895000D02*
D03*
X641000Y53600D02*
D03*
X895000D02*
D03*
X641000Y28200D02*
D03*
X895000D02*
D03*
D35*
X292000Y107000D02*
D03*
X293000Y206000D02*
D03*
D36*
X327000Y107000D02*
D03*
X328000Y206000D02*
D03*
M02*
