G04*
G04 #@! TF.GenerationSoftware,Altium Limited,Altium Designer,25.4.2 (15)*
G04*
G04 Layer_Physical_Order=1*
G04 Layer_Color=255*
%FSLAX44Y44*%
%MOMM*%
G71*
G04*
G04 #@! TF.SameCoordinates,2B46D1DC-655E-4794-AB20-7024E33391BE*
G04*
G04*
G04 #@! TF.FilePolarity,Positive*
G04*
G01*
G75*
%ADD18C,3.2000*%
%ADD25C,1.3970*%
%ADD31C,1.4080*%
%ADD32R,1.4080X1.4080*%
%ADD35R,1.4000X1.4000*%
%ADD36C,1.4000*%
%ADD37C,1.5000*%
%ADD38C,0.3000*%
%ADD39C,1.0000*%
%ADD40C,0.5000*%
%ADD41C,0.8000*%
%ADD42C,2.2500*%
%ADD43C,1.9050*%
%ADD44C,1.9500*%
%ADD45R,1.9500X1.9500*%
%ADD46C,3.4798*%
%ADD47R,3.4798X3.4798*%
%ADD48C,1.6500*%
%ADD49R,1.6500X1.6500*%
%ADD50C,1.8600*%
%ADD51R,1.8600X1.8600*%
%ADD52C,1.2080*%
%ADD53R,1.2080X1.2080*%
%ADD54R,1.2000X1.2000*%
%ADD55C,1.2000*%
%ADD56C,0.6000*%
G36*
X990000Y40000D02*
X978840D01*
Y41819D01*
X978110Y45490D01*
X976678Y48948D01*
X974598Y52060D01*
X971952Y54706D01*
X968840Y56786D01*
X965382Y58218D01*
X961711Y58948D01*
X957969D01*
X954298Y58218D01*
X950840Y56786D01*
X947728Y54706D01*
X945082Y52060D01*
X943002Y48948D01*
X941570Y45490D01*
X940840Y41819D01*
Y40000D01*
X643066D01*
X642612Y40680D01*
X642601Y40784D01*
X643996Y44009D01*
X644875Y44244D01*
X647165Y45566D01*
X649034Y47435D01*
X650356Y49725D01*
X651040Y52278D01*
Y54922D01*
X650356Y57475D01*
X649034Y59765D01*
X647165Y61634D01*
X644875Y62956D01*
X642322Y63640D01*
X639678D01*
X637125Y62956D01*
X634835Y61634D01*
X632966Y59765D01*
X631644Y57475D01*
X630960Y54922D01*
Y53894D01*
X627960Y52651D01*
X608069Y72542D01*
Y117000D01*
X607794Y119088D01*
X606988Y121034D01*
X605706Y122706D01*
X554706Y173706D01*
X553035Y174988D01*
X551088Y175794D01*
X549000Y176069D01*
X414342D01*
X362069Y228342D01*
Y411658D01*
X432062Y481650D01*
X433344Y483321D01*
X434150Y485268D01*
X434425Y487356D01*
Y498538D01*
X434780Y499153D01*
X434964Y499838D01*
X464706Y529580D01*
X465988Y531251D01*
X466794Y533198D01*
X467069Y535286D01*
Y554546D01*
X467071Y554558D01*
Y565271D01*
X466796Y567360D01*
X465989Y569306D01*
X465511Y569929D01*
X465900Y571381D01*
Y574619D01*
X465062Y577748D01*
X463442Y580552D01*
X461152Y582842D01*
X458348Y584462D01*
X455219Y585300D01*
X451981D01*
X448852Y584462D01*
X446048Y582842D01*
X443758Y580552D01*
X442138Y577748D01*
X441300Y574619D01*
Y571381D01*
X442138Y568252D01*
X443758Y565448D01*
X446048Y563158D01*
X448852Y561538D01*
X450933Y560981D01*
Y554568D01*
X450931Y554556D01*
Y538628D01*
X423552Y511250D01*
X422867Y511066D01*
X420805Y509876D01*
X419122Y508193D01*
X417932Y506131D01*
X417316Y503832D01*
Y501452D01*
X417932Y499153D01*
X418287Y498538D01*
Y490698D01*
X348294Y420706D01*
X347012Y419035D01*
X346206Y417088D01*
X345931Y415000D01*
Y225000D01*
X346206Y222912D01*
X347012Y220965D01*
X348294Y219294D01*
X405294Y162294D01*
X406965Y161012D01*
X408912Y160206D01*
X411000Y159931D01*
X545658D01*
X591931Y113658D01*
Y69200D01*
X592206Y67112D01*
X593012Y65166D01*
X594294Y63494D01*
X615017Y42772D01*
X613869Y40000D01*
X529043D01*
X528469Y40994D01*
Y78034D01*
X529662Y79227D01*
X530944Y80898D01*
X531722Y82775D01*
X532108Y82998D01*
X534202Y85092D01*
X535683Y87658D01*
X536450Y90519D01*
Y93481D01*
X535683Y96342D01*
X534202Y98908D01*
X532108Y101002D01*
X529542Y102483D01*
X526681Y103250D01*
X523719D01*
X520858Y102483D01*
X518292Y101002D01*
X516198Y98908D01*
X514717Y96342D01*
X513950Y93481D01*
X511050D01*
X510283Y96342D01*
X508802Y98908D01*
X506708Y101002D01*
X504142Y102483D01*
X501281Y103250D01*
X498319D01*
X495458Y102483D01*
X492892Y101002D01*
X490798Y98908D01*
X489317Y96342D01*
X488550Y93481D01*
X485650D01*
X484883Y96342D01*
X483402Y98908D01*
X481308Y101002D01*
X478742Y102483D01*
X475881Y103250D01*
X472919D01*
X470058Y102483D01*
X467492Y101002D01*
X465398Y98908D01*
X463917Y96342D01*
X463150Y93481D01*
X460250D01*
X459483Y96342D01*
X458002Y98908D01*
X455908Y101002D01*
X453342Y102483D01*
X450481Y103250D01*
X447519D01*
X444658Y102483D01*
X442092Y101002D01*
X439998Y98908D01*
X438517Y96342D01*
X437750Y93481D01*
X434850D01*
X434083Y96342D01*
X432602Y98908D01*
X430508Y101002D01*
X427942Y102483D01*
X425081Y103250D01*
X422119D01*
X419258Y102483D01*
X416692Y101002D01*
X414598Y98908D01*
X413117Y96342D01*
X412350Y93481D01*
Y90519D01*
X413117Y87658D01*
X414598Y85092D01*
X416692Y82998D01*
X419258Y81517D01*
X422119Y80750D01*
X425081D01*
X427942Y81517D01*
X430508Y82998D01*
X432602Y85092D01*
X434083Y87658D01*
X434850Y90519D01*
X437750D01*
X438517Y87658D01*
X439998Y85092D01*
X442092Y82998D01*
X444658Y81517D01*
X447519Y80750D01*
X448839D01*
X461531Y68058D01*
Y40994D01*
X460957Y40000D01*
X452843D01*
X452190Y41131D01*
X450331Y42990D01*
X448054Y44304D01*
X445515Y44985D01*
X442885D01*
X440346Y44304D01*
X438069Y42990D01*
X436210Y41131D01*
X435557Y40000D01*
X299144D01*
X298413Y41109D01*
X297977Y43000D01*
X334489Y79511D01*
X334489Y79511D01*
X336172Y81705D01*
X337230Y84259D01*
X337591Y87000D01*
X337591Y87000D01*
Y102613D01*
X364387Y129409D01*
X535613D01*
X565122Y99900D01*
Y94871D01*
X564750Y93481D01*
Y90519D01*
X565517Y87658D01*
X566998Y85092D01*
X569092Y82998D01*
X571658Y81517D01*
X574519Y80750D01*
X577481D01*
X580342Y81517D01*
X582908Y82998D01*
X585002Y85092D01*
X586483Y87658D01*
X587250Y90519D01*
Y93481D01*
X586483Y96342D01*
X586304Y96654D01*
Y104287D01*
X586304Y104287D01*
X585943Y107028D01*
X584885Y109582D01*
X583202Y111776D01*
X583202Y111776D01*
X547489Y147489D01*
X545295Y149172D01*
X542741Y150230D01*
X540000Y150591D01*
X540000Y150591D01*
X360000D01*
X360000Y150591D01*
X357259Y150230D01*
X354705Y149172D01*
X352511Y147489D01*
X352511Y147489D01*
X341362Y136340D01*
X338591Y137488D01*
Y265500D01*
X338591Y265500D01*
X338230Y268241D01*
X337172Y270795D01*
X335489Y272989D01*
X284750Y323727D01*
Y324876D01*
X283779Y328500D01*
X281903Y331750D01*
X279250Y334403D01*
X276000Y336279D01*
X272376Y337250D01*
X269198D01*
X245709Y360739D01*
X243516Y362422D01*
X240961Y363480D01*
X238221Y363841D01*
X238220Y363841D01*
X51174D01*
X48591Y366424D01*
Y467259D01*
X51591Y467856D01*
X52423Y465847D01*
X54655Y462506D01*
X57496Y459665D01*
X60837Y457433D01*
X64550Y455895D01*
X68491Y455111D01*
X72509D01*
X76450Y455895D01*
X77768Y456441D01*
X81697Y452511D01*
X81697Y452511D01*
X83890Y450828D01*
X86445Y449770D01*
X89186Y449409D01*
X89186Y449409D01*
X292254D01*
X292254Y449409D01*
X294995Y449770D01*
X297549Y450828D01*
X299743Y452511D01*
X318739Y471507D01*
X320422Y473701D01*
X321480Y476255D01*
X321841Y478996D01*
X321480Y481737D01*
X320422Y484291D01*
X320345Y484392D01*
Y617246D01*
X320345Y617246D01*
X319984Y619987D01*
X318926Y622541D01*
X317243Y624735D01*
X317243Y624735D01*
X301750Y640227D01*
Y650750D01*
X276250D01*
Y625250D01*
X286773D01*
X299163Y612859D01*
Y481887D01*
X287867Y470591D01*
X93573D01*
X90860Y473303D01*
X90899Y473501D01*
Y477519D01*
X90115Y481460D01*
X88577Y485173D01*
X86345Y488514D01*
X83504Y491355D01*
X80162Y493587D01*
X76450Y495125D01*
X72509Y495909D01*
X68491D01*
X64550Y495125D01*
X60837Y493587D01*
X60747Y493527D01*
X58834Y495857D01*
X65644Y502667D01*
X68491Y502101D01*
X72509D01*
X76450Y502885D01*
X80162Y504423D01*
X83504Y506655D01*
X86345Y509496D01*
X88577Y512837D01*
X90115Y516550D01*
X90899Y520491D01*
Y524509D01*
X90115Y528450D01*
X88577Y532163D01*
X86345Y535504D01*
X83504Y538345D01*
X80162Y540577D01*
X76450Y542115D01*
X72509Y542899D01*
X68491D01*
X64550Y542115D01*
X60837Y540577D01*
X57496Y538345D01*
X54655Y535504D01*
X52423Y532163D01*
X50885Y528450D01*
X50101Y524509D01*
Y520491D01*
X50667Y517645D01*
X30511Y497489D01*
X28828Y495295D01*
X27770Y492741D01*
X27409Y490000D01*
X27409Y490000D01*
Y362037D01*
X27409Y362037D01*
X27770Y359296D01*
X28828Y356741D01*
X30511Y354548D01*
X39298Y345761D01*
X39298Y345761D01*
X41491Y344078D01*
X44046Y343020D01*
X46787Y342659D01*
X46787Y342659D01*
X233834D01*
X256572Y319921D01*
X257221Y317500D01*
X259097Y314250D01*
X261750Y311597D01*
X265000Y309721D01*
X268624Y308750D01*
X269773D01*
X317409Y261113D01*
Y111284D01*
X316770Y109741D01*
X316409Y107000D01*
X316409Y107000D01*
Y91387D01*
X285613Y60591D01*
X238374D01*
X235791Y63174D01*
Y93058D01*
X236450Y95519D01*
Y98481D01*
X235683Y101342D01*
X234202Y103908D01*
X232108Y106002D01*
X229542Y107483D01*
X226681Y108250D01*
X223719D01*
X220858Y107483D01*
X218292Y106002D01*
X216198Y103908D01*
X214717Y101342D01*
X213950Y98481D01*
Y95519D01*
X214609Y93058D01*
Y58787D01*
X214609Y58787D01*
X214970Y56046D01*
X216028Y53492D01*
X217711Y51298D01*
X226010Y43000D01*
X225574Y41109D01*
X224843Y40000D01*
X188043D01*
X187469Y40994D01*
Y89700D01*
X187194Y91788D01*
X186388Y93734D01*
X185487Y94909D01*
X185650Y95519D01*
Y98481D01*
X184883Y101342D01*
X183402Y103908D01*
X181308Y106002D01*
X178742Y107483D01*
X175881Y108250D01*
X172919D01*
X170058Y107483D01*
X167492Y106002D01*
X165398Y103908D01*
X163917Y101342D01*
X163150Y98481D01*
X160250D01*
X159483Y101342D01*
X158002Y103908D01*
X155908Y106002D01*
X153342Y107483D01*
X150481Y108250D01*
X147519D01*
X144658Y107483D01*
X142092Y106002D01*
X139998Y103908D01*
X138517Y101342D01*
X137750Y98481D01*
X134850D01*
X134083Y101342D01*
X132602Y103908D01*
X130508Y106002D01*
X127942Y107483D01*
X125081Y108250D01*
X122119D01*
X119258Y107483D01*
X116692Y106002D01*
X114598Y103908D01*
X113117Y101342D01*
X112350Y98481D01*
X109450D01*
X108683Y101342D01*
X107202Y103908D01*
X105108Y106002D01*
X102542Y107483D01*
X99681Y108250D01*
X96719D01*
X93858Y107483D01*
X91292Y106002D01*
X89198Y103908D01*
X87717Y101342D01*
X86950Y98481D01*
X84050D01*
X83283Y101342D01*
X81802Y103908D01*
X79708Y106002D01*
X77142Y107483D01*
X74281Y108250D01*
X71319D01*
X68458Y107483D01*
X65892Y106002D01*
X63798Y103908D01*
X62317Y101342D01*
X61550Y98481D01*
Y95519D01*
X62317Y92658D01*
X63798Y90092D01*
X65892Y87998D01*
X68458Y86517D01*
X71319Y85750D01*
X74281D01*
X77142Y86517D01*
X79708Y87998D01*
X81802Y90092D01*
X83283Y92658D01*
X84050Y95519D01*
X86950D01*
X87717Y92658D01*
X89198Y90092D01*
X91292Y87998D01*
X93858Y86517D01*
X96719Y85750D01*
X98039D01*
X120531Y63258D01*
Y40994D01*
X119957Y40000D01*
X111843D01*
X111190Y41131D01*
X109331Y42990D01*
X107054Y44304D01*
X104515Y44985D01*
X101885D01*
X99346Y44304D01*
X97069Y42990D01*
X95210Y41131D01*
X94557Y40000D01*
X59000D01*
Y41871D01*
X58270Y45542D01*
X56838Y49000D01*
X54758Y52112D01*
X52112Y54758D01*
X49000Y56838D01*
X45542Y58270D01*
X41871Y59000D01*
X38129D01*
X34458Y58270D01*
X31000Y56838D01*
X27888Y54758D01*
X25242Y52112D01*
X23162Y49000D01*
X21730Y45542D01*
X21000Y41871D01*
Y40000D01*
X10000D01*
Y660000D01*
X21000D01*
Y658129D01*
X21730Y654458D01*
X23162Y651000D01*
X25242Y647888D01*
X27888Y645242D01*
X31000Y643162D01*
X34458Y641730D01*
X38129Y641000D01*
X41871D01*
X45542Y641730D01*
X49000Y643162D01*
X52112Y645242D01*
X54758Y647888D01*
X56838Y651000D01*
X58270Y654458D01*
X59000Y658129D01*
Y660000D01*
X940840D01*
Y658077D01*
X941570Y654406D01*
X943002Y650948D01*
X945082Y647836D01*
X947728Y645190D01*
X950840Y643110D01*
X954298Y641678D01*
X957969Y640948D01*
X961711D01*
X965382Y641678D01*
X968840Y643110D01*
X971952Y645190D01*
X974598Y647836D01*
X976678Y650948D01*
X978110Y654406D01*
X978840Y658077D01*
Y660000D01*
X990000D01*
Y40000D01*
D02*
G37*
%LPC*%
G36*
X516700Y585300D02*
X492100D01*
Y560700D01*
X516700D01*
Y585300D01*
D02*
G37*
G36*
X552072Y511682D02*
X549692D01*
X547393Y511066D01*
X545331Y509876D01*
X543648Y508193D01*
X542458Y506131D01*
X541842Y503832D01*
Y501452D01*
X542458Y499153D01*
X543648Y497091D01*
X545331Y495408D01*
X547393Y494218D01*
X549692Y493602D01*
X552072D01*
X554371Y494218D01*
X556433Y495408D01*
X558116Y497091D01*
X559306Y499153D01*
X559922Y501452D01*
Y503832D01*
X559306Y506131D01*
X558116Y508193D01*
X556433Y509876D01*
X554371Y511066D01*
X552072Y511682D01*
D02*
G37*
G36*
X544149Y427125D02*
X540851D01*
X537665Y426271D01*
X534809Y424622D01*
X532477Y422290D01*
X531445Y420503D01*
X531378Y420476D01*
X528222D01*
X528155Y420503D01*
X527122Y422290D01*
X524790Y424622D01*
X521934Y426271D01*
X518749Y427125D01*
X515451D01*
X512266Y426271D01*
X509409Y424622D01*
X507077Y422290D01*
X506045Y420503D01*
X505978Y420476D01*
X502822D01*
X502755Y420503D01*
X501722Y422290D01*
X499390Y424622D01*
X496534Y426271D01*
X493349Y427125D01*
X490051D01*
X486866Y426271D01*
X484009Y424622D01*
X481678Y422290D01*
X480645Y420503D01*
X480578Y420476D01*
X477422D01*
X477355Y420503D01*
X476323Y422290D01*
X473991Y424622D01*
X471134Y426271D01*
X467949Y427125D01*
X464651D01*
X461465Y426271D01*
X458609Y424622D01*
X456278Y422290D01*
X455245Y420503D01*
X455178Y420476D01*
X452022D01*
X451955Y420503D01*
X450923Y422290D01*
X448591Y424622D01*
X445734Y426271D01*
X442549Y427125D01*
X439251D01*
X436065Y426271D01*
X433209Y424622D01*
X430877Y422290D01*
X429845Y420503D01*
X429778Y420476D01*
X426622D01*
X426555Y420503D01*
X425522Y422290D01*
X423190Y424622D01*
X420334Y426271D01*
X417149Y427125D01*
X413851D01*
X410666Y426271D01*
X407809Y424622D01*
X405477Y422290D01*
X403829Y419434D01*
X402975Y416249D01*
Y412951D01*
X403829Y409766D01*
X405477Y406909D01*
X407809Y404577D01*
X410666Y402929D01*
X413851Y402075D01*
X417149D01*
X420334Y402929D01*
X423190Y404577D01*
X425522Y406909D01*
X426555Y408697D01*
X426622Y408724D01*
X429778D01*
X429845Y408697D01*
X430877Y406909D01*
X433209Y404577D01*
X436065Y402929D01*
X439251Y402075D01*
X442549D01*
X445734Y402929D01*
X448591Y404577D01*
X450923Y406909D01*
X451955Y408697D01*
X452022Y408724D01*
X455178D01*
X455245Y408697D01*
X456278Y406909D01*
X458609Y404577D01*
X461465Y402929D01*
X464651Y402075D01*
X467949D01*
X471134Y402929D01*
X473991Y404577D01*
X476323Y406909D01*
X477355Y408697D01*
X477422Y408724D01*
X480578D01*
X480645Y408697D01*
X481678Y406909D01*
X484009Y404577D01*
X486866Y402929D01*
X490051Y402075D01*
X493349D01*
X496534Y402929D01*
X499390Y404577D01*
X501722Y406909D01*
X502755Y408697D01*
X502822Y408724D01*
X505978D01*
X506045Y408697D01*
X507077Y406909D01*
X509409Y404577D01*
X512266Y402929D01*
X515451Y402075D01*
X518749D01*
X521934Y402929D01*
X524790Y404577D01*
X527122Y406909D01*
X528155Y408697D01*
X528222Y408724D01*
X531378D01*
X531445Y408697D01*
X532477Y406909D01*
X534809Y404577D01*
X537665Y402929D01*
X540851Y402075D01*
X544149D01*
X547334Y402929D01*
X550191Y404577D01*
X552523Y406909D01*
X554171Y409766D01*
X555025Y412951D01*
Y416249D01*
X554171Y419434D01*
X552523Y422290D01*
X550191Y424622D01*
X547334Y426271D01*
X544149Y427125D01*
D02*
G37*
G36*
X888250Y526108D02*
X811000D01*
X808854Y525681D01*
X807035Y524465D01*
X773577Y491008D01*
X651040D01*
Y495440D01*
X630960D01*
Y483291D01*
X589335Y441665D01*
X588119Y439846D01*
X587692Y437700D01*
Y425825D01*
X585609Y424622D01*
X583278Y422290D01*
X581629Y419434D01*
X580775Y416249D01*
Y412951D01*
X581629Y409766D01*
X583278Y406909D01*
X585609Y404577D01*
X587692Y403375D01*
Y345623D01*
X538095Y296026D01*
X535552Y297725D01*
X536000Y298806D01*
Y301194D01*
X535087Y303399D01*
X533399Y305087D01*
X531194Y306000D01*
X528806D01*
X527935Y305639D01*
X525639Y307935D01*
X526000Y308806D01*
Y311194D01*
X525087Y313399D01*
X523399Y315086D01*
X521194Y316000D01*
X518806D01*
X516601Y315086D01*
X516103Y314588D01*
X496100D01*
X494344Y314239D01*
X492856Y313244D01*
X431272Y251661D01*
X430567D01*
X428362Y250747D01*
X426674Y249059D01*
X425761Y246854D01*
Y244467D01*
X426674Y242262D01*
X428362Y240574D01*
X430567Y239661D01*
X432954D01*
X435159Y240574D01*
X436847Y242262D01*
X437761Y244467D01*
Y245172D01*
X498000Y305412D01*
X502746D01*
X503923Y302412D01*
X455511Y254000D01*
X454807D01*
X452601Y253087D01*
X450913Y251399D01*
X450000Y249193D01*
Y246807D01*
X450913Y244601D01*
X452601Y242913D01*
X454807Y242000D01*
X457193D01*
X459399Y242913D01*
X461087Y244601D01*
X462000Y246807D01*
Y247511D01*
X509901Y295412D01*
X526103D01*
X526601Y294914D01*
X528806Y294000D01*
X531194D01*
X532275Y294448D01*
X533974Y291905D01*
X472635Y230566D01*
X472316Y230089D01*
X470058Y229483D01*
X467492Y228002D01*
X465398Y225908D01*
X464647Y224608D01*
X458753D01*
X458002Y225908D01*
X455908Y228002D01*
X453342Y229483D01*
X450481Y230250D01*
X447519D01*
X444658Y229483D01*
X442092Y228002D01*
X439998Y225908D01*
X438517Y223342D01*
X437750Y220481D01*
X434850D01*
X434083Y223342D01*
X432602Y225908D01*
X430508Y228002D01*
X427942Y229483D01*
X425081Y230250D01*
X422119D01*
X419258Y229483D01*
X416692Y228002D01*
X414598Y225908D01*
X413117Y223342D01*
X412350Y220481D01*
X409450D01*
X408683Y223342D01*
X407202Y225908D01*
X405108Y228002D01*
X402542Y229483D01*
X399681Y230250D01*
X396719D01*
X393858Y229483D01*
X391292Y228002D01*
X389198Y225908D01*
X387717Y223342D01*
X386950Y220481D01*
Y217519D01*
X387717Y214658D01*
X389198Y212092D01*
X391292Y209998D01*
X393858Y208517D01*
X396719Y207750D01*
X399681D01*
X402542Y208517D01*
X405108Y209998D01*
X407202Y212092D01*
X408683Y214658D01*
X409450Y217519D01*
X412350D01*
X413117Y214658D01*
X414598Y212092D01*
X416692Y209998D01*
X419258Y208517D01*
X422119Y207750D01*
X425081D01*
X427942Y208517D01*
X430508Y209998D01*
X432602Y212092D01*
X434083Y214658D01*
X434850Y217519D01*
X437750D01*
X438517Y214658D01*
X439998Y212092D01*
X442092Y209998D01*
X444658Y208517D01*
X447519Y207750D01*
X450481D01*
X453342Y208517D01*
X455908Y209998D01*
X458002Y212092D01*
X458753Y213392D01*
X464647D01*
X465398Y212092D01*
X467492Y209998D01*
X470058Y208517D01*
X472919Y207750D01*
X475881D01*
X478742Y208517D01*
X481308Y209998D01*
X483402Y212092D01*
X484883Y214658D01*
X485650Y217519D01*
X488550D01*
X489317Y214658D01*
X490798Y212092D01*
X492892Y209998D01*
X495458Y208517D01*
X498319Y207750D01*
X501281D01*
X503868Y208443D01*
X505952Y206360D01*
X504804Y203588D01*
X418897D01*
X418399Y204087D01*
X416194Y205000D01*
X413806D01*
X411601Y204087D01*
X409913Y202399D01*
X409000Y200194D01*
Y197806D01*
X409913Y195601D01*
X411601Y193913D01*
X413806Y193000D01*
X416194D01*
X418399Y193913D01*
X418897Y194412D01*
X509100D01*
X518756Y184756D01*
X520244Y183761D01*
X522000Y183412D01*
X628330D01*
X630960Y181922D01*
Y179278D01*
X631644Y176725D01*
X632966Y174435D01*
X634835Y172566D01*
X637125Y171244D01*
X639678Y170560D01*
X642322D01*
X644875Y171244D01*
X647165Y172566D01*
X649034Y174435D01*
X650356Y176725D01*
X651040Y179278D01*
Y181922D01*
X650909Y182412D01*
X653131Y185412D01*
X828200D01*
X829956Y185761D01*
X831444Y186756D01*
X891920Y247231D01*
X893678Y246760D01*
X896322D01*
X898875Y247444D01*
X901165Y248766D01*
X903034Y250635D01*
X904356Y252925D01*
X905040Y255478D01*
Y258122D01*
X904356Y260675D01*
X903034Y262965D01*
X901165Y264834D01*
X898875Y266156D01*
X896322Y266840D01*
X893678D01*
X891125Y266156D01*
X888835Y264834D01*
X886966Y262965D01*
X885644Y260675D01*
X884960Y258122D01*
Y255478D01*
X885431Y253720D01*
X826300Y194588D01*
X649820D01*
X648828Y195581D01*
X647417Y197604D01*
X648874Y199675D01*
X649034Y199835D01*
X650356Y202125D01*
X651040Y204678D01*
Y207322D01*
X650356Y209875D01*
X649469Y211412D01*
X650359Y213657D01*
X651030Y214412D01*
X829000D01*
X830756Y214761D01*
X832244Y215756D01*
X889989Y273500D01*
X891125Y272844D01*
X893678Y272160D01*
X896322D01*
X898875Y272844D01*
X901165Y274166D01*
X903034Y276035D01*
X904356Y278325D01*
X905040Y280878D01*
Y283522D01*
X904356Y286075D01*
X903034Y288365D01*
X901165Y290234D01*
X898875Y291556D01*
X896322Y292240D01*
X893678D01*
X891125Y291556D01*
X888835Y290234D01*
X886966Y288365D01*
X885644Y286075D01*
X884960Y283522D01*
Y281449D01*
X827100Y223588D01*
X651440D01*
X649815Y226588D01*
X650356Y227525D01*
X651040Y230078D01*
Y232722D01*
X650356Y235275D01*
X650277Y235412D01*
X652009Y238412D01*
X826000D01*
X827756Y238761D01*
X829244Y239756D01*
X888974Y299486D01*
X891125Y298244D01*
X893678Y297560D01*
X896322D01*
X898875Y298244D01*
X901165Y299566D01*
X903034Y301435D01*
X904356Y303725D01*
X905040Y306278D01*
Y308922D01*
X904356Y311475D01*
X903034Y313765D01*
X901165Y315634D01*
X898875Y316956D01*
X896322Y317640D01*
X893678D01*
X891125Y316956D01*
X888835Y315634D01*
X886966Y313765D01*
X885644Y311475D01*
X884960Y308922D01*
Y308449D01*
X824100Y247588D01*
X650229D01*
X648987Y250588D01*
X649034Y250635D01*
X650356Y252925D01*
X651040Y255478D01*
Y258122D01*
X650356Y260675D01*
X649034Y262965D01*
X647165Y264834D01*
X644875Y266156D01*
X642322Y266840D01*
X639678D01*
X637125Y266156D01*
X634835Y264834D01*
X632966Y262965D01*
X631644Y260675D01*
X630960Y258122D01*
Y255478D01*
X631644Y252925D01*
X632966Y250635D01*
X633294Y250308D01*
X633278Y249354D01*
X632570Y246789D01*
X631756Y246244D01*
X596100Y210588D01*
X587250D01*
Y223761D01*
X613244Y249756D01*
X614239Y251244D01*
X614588Y253000D01*
Y422099D01*
X627960Y435471D01*
X630960Y434229D01*
Y433278D01*
X631644Y430725D01*
X632966Y428435D01*
X634835Y426566D01*
X637125Y425244D01*
X639678Y424560D01*
X642322D01*
X644875Y425244D01*
X647165Y426566D01*
X649034Y428435D01*
X650356Y430725D01*
X651040Y433278D01*
Y435922D01*
X650356Y438475D01*
X650312Y438552D01*
X652044Y441552D01*
X878683D01*
X880439Y441901D01*
X881927Y442896D01*
X890206Y451175D01*
X891125Y450644D01*
X893678Y449960D01*
X896322D01*
X898875Y450644D01*
X901165Y451966D01*
X903034Y453835D01*
X904356Y456125D01*
X905040Y458678D01*
Y461322D01*
X904356Y463875D01*
X903034Y466165D01*
X901165Y468034D01*
X898875Y469356D01*
X896322Y470040D01*
X893678D01*
X891125Y469356D01*
X888835Y468034D01*
X886966Y466165D01*
X885644Y463875D01*
X884960Y461322D01*
Y458906D01*
X876783Y450728D01*
X650170D01*
X648927Y453728D01*
X649034Y453835D01*
X650356Y456125D01*
X651040Y458678D01*
Y461322D01*
X650356Y463875D01*
X649034Y466165D01*
X647165Y468034D01*
X644875Y469356D01*
X642322Y470040D01*
X639678D01*
X637125Y469356D01*
X635293Y471762D01*
X638890Y475360D01*
X651040D01*
Y479792D01*
X775900D01*
X778046Y480219D01*
X779865Y481435D01*
X813323Y514892D01*
X885927D01*
X916142Y484677D01*
Y447500D01*
X916569Y445354D01*
X917785Y443535D01*
X937171Y424148D01*
X937015Y423565D01*
Y420936D01*
X937695Y418396D01*
X939010Y416119D01*
X940869Y414260D01*
X943146Y412946D01*
X945686Y412265D01*
X948315D01*
X950854Y412946D01*
X953131Y414260D01*
X954990Y416119D01*
X956304Y418396D01*
X956985Y420936D01*
Y423565D01*
X956304Y426104D01*
X954990Y428381D01*
X953131Y430240D01*
X950854Y431554D01*
X948315Y432235D01*
X945686D01*
X945102Y432079D01*
X927358Y449823D01*
Y487000D01*
X926931Y489146D01*
X925715Y490965D01*
X892215Y524465D01*
X890396Y525681D01*
X888250Y526108D01*
D02*
G37*
G36*
X896322Y419240D02*
X893678D01*
X891125Y418556D01*
X888835Y417234D01*
X886966Y415365D01*
X885644Y413075D01*
X884960Y410522D01*
Y407878D01*
X885644Y405325D01*
X886966Y403035D01*
X888835Y401166D01*
X891125Y399844D01*
X893678Y399160D01*
X896322D01*
X898875Y399844D01*
X901165Y401166D01*
X903034Y403035D01*
X904356Y405325D01*
X905040Y407878D01*
Y410522D01*
X904356Y413075D01*
X903034Y415365D01*
X901165Y417234D01*
X898875Y418556D01*
X896322Y419240D01*
D02*
G37*
G36*
X642322D02*
X639678D01*
X637125Y418556D01*
X634835Y417234D01*
X632966Y415365D01*
X631644Y413075D01*
X630960Y410522D01*
Y407878D01*
X631644Y405325D01*
X632966Y403035D01*
X634835Y401166D01*
X637125Y399844D01*
X639678Y399160D01*
X642322D01*
X644875Y399844D01*
X647165Y401166D01*
X649034Y403035D01*
X650356Y405325D01*
X651040Y407878D01*
Y410522D01*
X650356Y413075D01*
X649034Y415365D01*
X647165Y417234D01*
X644875Y418556D01*
X642322Y419240D01*
D02*
G37*
G36*
X896322Y444640D02*
X893678D01*
X891125Y443956D01*
X888835Y442634D01*
X886966Y440765D01*
X885644Y438475D01*
X884960Y435922D01*
Y433278D01*
X885644Y430725D01*
X886966Y428435D01*
X888835Y426566D01*
X891125Y425244D01*
X893678Y424560D01*
X896322D01*
X898080Y425031D01*
X929506Y393606D01*
X930994Y392611D01*
X932750Y392262D01*
X938119D01*
X939010Y390719D01*
X940869Y388860D01*
X943146Y387546D01*
X945686Y386865D01*
X948315D01*
X950854Y387546D01*
X953131Y388860D01*
X954990Y390719D01*
X956304Y392996D01*
X956985Y395536D01*
Y398165D01*
X956304Y400704D01*
X954990Y402981D01*
X953131Y404840D01*
X950854Y406155D01*
X948315Y406835D01*
X945686D01*
X943146Y406155D01*
X940869Y404840D01*
X939010Y402981D01*
X938119Y401438D01*
X934650D01*
X904569Y431520D01*
X905040Y433278D01*
Y435922D01*
X904356Y438475D01*
X903034Y440765D01*
X901165Y442634D01*
X898875Y443956D01*
X896322Y444640D01*
D02*
G37*
G36*
Y393840D02*
X893678D01*
X891125Y393156D01*
X888835Y391834D01*
X886966Y389965D01*
X885644Y387675D01*
X884960Y385122D01*
Y382478D01*
X885644Y379925D01*
X886966Y377635D01*
X888835Y375766D01*
X891125Y374444D01*
X893678Y373760D01*
X896322D01*
X898875Y374444D01*
X901165Y375766D01*
X903034Y377635D01*
X904356Y379925D01*
X905040Y382478D01*
Y385122D01*
X904356Y387675D01*
X903034Y389965D01*
X901165Y391834D01*
X898875Y393156D01*
X896322Y393840D01*
D02*
G37*
G36*
X642322D02*
X639678D01*
X637125Y393156D01*
X634835Y391834D01*
X632966Y389965D01*
X631644Y387675D01*
X630960Y385122D01*
Y382478D01*
X631644Y379925D01*
X632966Y377635D01*
X634835Y375766D01*
X637125Y374444D01*
X639678Y373760D01*
X642322D01*
X644875Y374444D01*
X647165Y375766D01*
X649034Y377635D01*
X650356Y379925D01*
X651040Y382478D01*
Y385122D01*
X650356Y387675D01*
X649034Y389965D01*
X647165Y391834D01*
X644875Y393156D01*
X642322Y393840D01*
D02*
G37*
G36*
X948315Y381435D02*
X945686D01*
X943146Y380755D01*
X940869Y379440D01*
X939010Y377581D01*
X937695Y375304D01*
X937015Y372765D01*
Y370135D01*
X937476Y368415D01*
X932050Y362988D01*
X903944D01*
X903034Y364565D01*
X901165Y366434D01*
X898875Y367756D01*
X896322Y368440D01*
X893678D01*
X891125Y367756D01*
X888835Y366434D01*
X886966Y364565D01*
X885644Y362275D01*
X884960Y359722D01*
Y357078D01*
X885644Y354525D01*
X886966Y352235D01*
X888835Y350366D01*
X891125Y349044D01*
X893678Y348360D01*
X896322D01*
X898875Y349044D01*
X901165Y350366D01*
X903034Y352235D01*
X903944Y353812D01*
X933950D01*
X935706Y354161D01*
X937194Y355156D01*
X943965Y361926D01*
X945686Y361465D01*
X948315D01*
X950854Y362146D01*
X953131Y363460D01*
X954990Y365319D01*
X956304Y367596D01*
X956985Y370135D01*
Y372765D01*
X956304Y375304D01*
X954990Y377581D01*
X953131Y379440D01*
X950854Y380755D01*
X948315Y381435D01*
D02*
G37*
G36*
X642322Y368440D02*
X639678D01*
X637125Y367756D01*
X634835Y366434D01*
X632966Y364565D01*
X631644Y362275D01*
X630960Y359722D01*
Y357078D01*
X631644Y354525D01*
X632966Y352235D01*
X634835Y350366D01*
X637125Y349044D01*
X639678Y348360D01*
X642322D01*
X644875Y349044D01*
X647165Y350366D01*
X649034Y352235D01*
X650356Y354525D01*
X651040Y357078D01*
Y359722D01*
X650356Y362275D01*
X649034Y364565D01*
X647165Y366434D01*
X644875Y367756D01*
X642322Y368440D01*
D02*
G37*
G36*
Y343040D02*
X639678D01*
X637125Y342356D01*
X634835Y341034D01*
X632966Y339165D01*
X631644Y336875D01*
X630960Y334322D01*
Y331678D01*
X631644Y329125D01*
X632966Y326835D01*
X634835Y324966D01*
X637125Y323644D01*
X639678Y322960D01*
X642322D01*
X644875Y323644D01*
X647165Y324966D01*
X649034Y326835D01*
X650356Y329125D01*
X651040Y331678D01*
Y334322D01*
X650356Y336875D01*
X649034Y339165D01*
X647165Y341034D01*
X644875Y342356D01*
X642322Y343040D01*
D02*
G37*
G36*
X46376Y337250D02*
X42624D01*
X39000Y336279D01*
X35750Y334403D01*
X33097Y331750D01*
X31221Y328500D01*
X30250Y324876D01*
Y321124D01*
X31221Y317500D01*
X33097Y314250D01*
X35750Y311597D01*
X39000Y309721D01*
X42624Y308750D01*
X46376D01*
X50000Y309721D01*
X53250Y311597D01*
X55903Y314250D01*
X57779Y317500D01*
X58750Y321124D01*
Y324876D01*
X57779Y328500D01*
X55903Y331750D01*
X53250Y334403D01*
X50000Y336279D01*
X46376Y337250D01*
D02*
G37*
G36*
X642322Y317640D02*
X639678D01*
X637125Y316956D01*
X634835Y315634D01*
X632966Y313765D01*
X631644Y311475D01*
X630960Y308922D01*
Y306278D01*
X631644Y303725D01*
X632966Y301435D01*
X634835Y299566D01*
X637125Y298244D01*
X639678Y297560D01*
X642322D01*
X644875Y298244D01*
X647165Y299566D01*
X649034Y301435D01*
X650356Y303725D01*
X651040Y306278D01*
Y308922D01*
X650356Y311475D01*
X649034Y313765D01*
X647165Y315634D01*
X644875Y316956D01*
X642322Y317640D01*
D02*
G37*
G36*
X425671Y316000D02*
X421929D01*
X418258Y315270D01*
X414800Y313838D01*
X411688Y311758D01*
X409042Y309112D01*
X406962Y306000D01*
X405530Y302542D01*
X404800Y298871D01*
Y295129D01*
X405530Y291458D01*
X406962Y288000D01*
X409042Y284888D01*
X411688Y282242D01*
X414800Y280162D01*
X418258Y278730D01*
X421929Y278000D01*
X425671D01*
X429342Y278730D01*
X432800Y280162D01*
X435912Y282242D01*
X438558Y284888D01*
X440638Y288000D01*
X442070Y291458D01*
X442800Y295129D01*
Y298871D01*
X442070Y302542D01*
X440638Y306000D01*
X438558Y309112D01*
X435912Y311758D01*
X432800Y313838D01*
X429342Y315270D01*
X425671Y316000D01*
D02*
G37*
G36*
X642322Y292240D02*
X639678D01*
X637125Y291556D01*
X634835Y290234D01*
X632966Y288365D01*
X631644Y286075D01*
X630960Y283522D01*
Y280878D01*
X631644Y278325D01*
X632966Y276035D01*
X634835Y274166D01*
X637125Y272844D01*
X639678Y272160D01*
X642322D01*
X644875Y272844D01*
X647165Y274166D01*
X649034Y276035D01*
X650356Y278325D01*
X651040Y280878D01*
Y283522D01*
X650356Y286075D01*
X649034Y288365D01*
X647165Y290234D01*
X644875Y291556D01*
X642322Y292240D01*
D02*
G37*
G36*
X211693Y292000D02*
X209307D01*
X207101Y291087D01*
X205413Y289399D01*
X204500Y287194D01*
Y286739D01*
X196556Y278794D01*
X195561Y277306D01*
X195212Y275550D01*
Y234341D01*
X192892Y233002D01*
X190798Y230908D01*
X189317Y228342D01*
X188550Y225481D01*
X185650D01*
X184883Y228342D01*
X183838Y230152D01*
X184239Y230751D01*
X184588Y232507D01*
Y256103D01*
X185086Y256601D01*
X186000Y258806D01*
Y261194D01*
X185086Y263399D01*
X183399Y265086D01*
X181194Y266000D01*
X178806D01*
X176601Y265086D01*
X174913Y263399D01*
X174000Y261194D01*
Y258806D01*
X174913Y256601D01*
X175412Y256103D01*
Y235250D01*
X172919D01*
X170058Y234483D01*
X169896Y234534D01*
X168887Y237402D01*
X170087Y238601D01*
X171000Y240807D01*
Y243193D01*
X170087Y245399D01*
X168399Y247087D01*
X166194Y248000D01*
X163806D01*
X161601Y247087D01*
X159913Y245399D01*
X159000Y243193D01*
Y241489D01*
X152280Y234768D01*
X150481Y235250D01*
X147519D01*
X144658Y234483D01*
X142092Y233002D01*
X139998Y230908D01*
X138517Y228342D01*
X137750Y225481D01*
X134850D01*
X134083Y228342D01*
X132602Y230908D01*
X130508Y233002D01*
X127942Y234483D01*
X125081Y235250D01*
X122119D01*
X119258Y234483D01*
X116692Y233002D01*
X114598Y230908D01*
X113847Y229608D01*
X107953D01*
X107202Y230908D01*
X105108Y233002D01*
X102542Y234483D01*
X99681Y235250D01*
X96719D01*
X93858Y234483D01*
X91292Y233002D01*
X89198Y230908D01*
X87717Y228342D01*
X86950Y225481D01*
X84050D01*
X83283Y228342D01*
X81802Y230908D01*
X79708Y233002D01*
X77142Y234483D01*
X74281Y235250D01*
X71319D01*
X68458Y234483D01*
X65892Y233002D01*
X63798Y230908D01*
X62317Y228342D01*
X61550Y225481D01*
X58650D01*
X57883Y228342D01*
X56402Y230908D01*
X54308Y233002D01*
X51742Y234483D01*
X48881Y235250D01*
X45919D01*
X43058Y234483D01*
X40492Y233002D01*
X38398Y230908D01*
X36917Y228342D01*
X36150Y225481D01*
Y222519D01*
X36917Y219658D01*
X38398Y217092D01*
X40492Y214998D01*
X43058Y213517D01*
X45919Y212750D01*
X48881D01*
X50916Y213295D01*
X94000Y170211D01*
Y168806D01*
X94913Y166601D01*
X96601Y164913D01*
X98806Y164000D01*
X101194D01*
X103399Y164913D01*
X105087Y166601D01*
X106000Y168806D01*
Y171194D01*
X105639Y172065D01*
X107935Y174361D01*
X108806Y174000D01*
X111194D01*
X113399Y174913D01*
X115087Y176601D01*
X116000Y178806D01*
Y181194D01*
X115087Y183399D01*
X113399Y185086D01*
X111194Y186000D01*
X110489D01*
X80599Y215889D01*
X81802Y217092D01*
X83283Y219658D01*
X84050Y222519D01*
X86950D01*
X87717Y219658D01*
X89198Y217092D01*
X91292Y214998D01*
X93858Y213517D01*
X96719Y212750D01*
X99681D01*
X102542Y213517D01*
X105108Y214998D01*
X107202Y217092D01*
X107953Y218392D01*
X113847D01*
X114598Y217092D01*
X116692Y214998D01*
X119258Y213517D01*
X122119Y212750D01*
X125081D01*
X127942Y213517D01*
X130508Y214998D01*
X132602Y217092D01*
X134083Y219658D01*
X134850Y222519D01*
X137750D01*
X138517Y219658D01*
X139998Y217092D01*
X142092Y214998D01*
X144658Y213517D01*
X147519Y212750D01*
X150481D01*
X153342Y213517D01*
X155908Y214998D01*
X158002Y217092D01*
X159483Y219658D01*
X160250Y222519D01*
X163150D01*
X163917Y219658D01*
X165398Y217092D01*
X167492Y214998D01*
X170058Y213517D01*
X172919Y212750D01*
X175881D01*
X178742Y213517D01*
X181308Y214998D01*
X183402Y217092D01*
X184883Y219658D01*
X185650Y222519D01*
X188550D01*
X189317Y219658D01*
X190798Y217092D01*
X192892Y214998D01*
X195458Y213517D01*
X198319Y212750D01*
X201281D01*
X204142Y213517D01*
X206708Y214998D01*
X208802Y217092D01*
X210283Y219658D01*
X210344Y219884D01*
X211270Y222500D01*
X211339Y222495D01*
X213950Y221555D01*
Y212750D01*
X220612D01*
Y206694D01*
X220961Y204938D01*
X221956Y203450D01*
X224062Y201343D01*
X224000Y201194D01*
Y198806D01*
X224913Y196601D01*
X226601Y194914D01*
X228806Y194000D01*
X231194D01*
X233399Y194914D01*
X235087Y196601D01*
X236000Y198806D01*
Y201194D01*
X235087Y203399D01*
X233399Y205087D01*
X233224Y205159D01*
X229788Y208595D01*
Y212750D01*
X236450D01*
Y235250D01*
X213950D01*
Y226445D01*
X211339Y225505D01*
X211270Y225499D01*
X210344Y228116D01*
X210283Y228342D01*
X208802Y230908D01*
X206708Y233002D01*
X204388Y234341D01*
Y273650D01*
X210739Y280000D01*
X211693D01*
X213899Y280914D01*
X215587Y282601D01*
X216500Y284806D01*
Y287194D01*
X215587Y289399D01*
X213899Y291087D01*
X211693Y292000D01*
D02*
G37*
G36*
X896322Y241440D02*
X893678D01*
X891125Y240756D01*
X888835Y239434D01*
X886966Y237565D01*
X885644Y235275D01*
X884960Y232722D01*
Y230078D01*
X885644Y227525D01*
X886966Y225235D01*
X888835Y223366D01*
X891125Y222044D01*
X893678Y221360D01*
X896322D01*
X898875Y222044D01*
X901165Y223366D01*
X903034Y225235D01*
X904356Y227525D01*
X905040Y230078D01*
Y232722D01*
X904356Y235275D01*
X903034Y237565D01*
X901165Y239434D01*
X898875Y240756D01*
X896322Y241440D01*
D02*
G37*
G36*
Y216040D02*
X893678D01*
X891125Y215356D01*
X888835Y214034D01*
X886966Y212165D01*
X885644Y209875D01*
X884960Y207322D01*
Y204678D01*
X885644Y202125D01*
X886966Y199835D01*
X888835Y197966D01*
X891125Y196644D01*
X893678Y195960D01*
X896322D01*
X898875Y196644D01*
X901165Y197966D01*
X903034Y199835D01*
X904356Y202125D01*
X905040Y204678D01*
Y207322D01*
X904356Y209875D01*
X903034Y212165D01*
X901165Y214034D01*
X898875Y215356D01*
X896322Y216040D01*
D02*
G37*
G36*
Y190640D02*
X893678D01*
X891125Y189956D01*
X888835Y188634D01*
X886966Y186765D01*
X885644Y184475D01*
X884960Y181922D01*
Y179278D01*
X885644Y176725D01*
X886966Y174435D01*
X888835Y172566D01*
X891125Y171244D01*
X893678Y170560D01*
X896322D01*
X898875Y171244D01*
X901165Y172566D01*
X903034Y174435D01*
X904356Y176725D01*
X905040Y179278D01*
Y181922D01*
X904356Y184475D01*
X903034Y186765D01*
X901165Y188634D01*
X898875Y189956D01*
X896322Y190640D01*
D02*
G37*
G36*
Y165240D02*
X893678D01*
X891125Y164556D01*
X888835Y163234D01*
X886966Y161365D01*
X885644Y159075D01*
X884960Y156522D01*
Y153878D01*
X885644Y151325D01*
X886966Y149035D01*
X888835Y147166D01*
X891125Y145844D01*
X893678Y145160D01*
X896322D01*
X898875Y145844D01*
X901165Y147166D01*
X903034Y149035D01*
X904356Y151325D01*
X905040Y153878D01*
Y156522D01*
X904356Y159075D01*
X903034Y161365D01*
X901165Y163234D01*
X898875Y164556D01*
X896322Y165240D01*
D02*
G37*
G36*
X642322D02*
X639678D01*
X637125Y164556D01*
X634835Y163234D01*
X632966Y161365D01*
X631644Y159075D01*
X630960Y156522D01*
Y153878D01*
X631644Y151325D01*
X632966Y149035D01*
X634835Y147166D01*
X637125Y145844D01*
X639678Y145160D01*
X642322D01*
X644875Y145844D01*
X647165Y147166D01*
X649034Y149035D01*
X650356Y151325D01*
X651040Y153878D01*
Y156522D01*
X650356Y159075D01*
X649034Y161365D01*
X647165Y163234D01*
X644875Y164556D01*
X642322Y165240D01*
D02*
G37*
G36*
X896322Y139840D02*
X893678D01*
X891125Y139156D01*
X888835Y137834D01*
X886966Y135965D01*
X885644Y133675D01*
X884960Y131122D01*
Y128478D01*
X885644Y125925D01*
X886966Y123635D01*
X888835Y121766D01*
X891125Y120444D01*
X893678Y119760D01*
X896322D01*
X898875Y120444D01*
X901165Y121766D01*
X903034Y123635D01*
X904356Y125925D01*
X905040Y128478D01*
Y131122D01*
X904356Y133675D01*
X903034Y135965D01*
X901165Y137834D01*
X898875Y139156D01*
X896322Y139840D01*
D02*
G37*
G36*
X642322D02*
X639678D01*
X637125Y139156D01*
X634835Y137834D01*
X632966Y135965D01*
X631644Y133675D01*
X630960Y131122D01*
Y128478D01*
X631644Y125925D01*
X632966Y123635D01*
X634835Y121766D01*
X637125Y120444D01*
X639678Y119760D01*
X642322D01*
X644875Y120444D01*
X647165Y121766D01*
X649034Y123635D01*
X650356Y125925D01*
X651040Y128478D01*
Y131122D01*
X650356Y133675D01*
X649034Y135965D01*
X647165Y137834D01*
X644875Y139156D01*
X642322Y139840D01*
D02*
G37*
G36*
X896322Y114440D02*
X893678D01*
X891125Y113756D01*
X888835Y112434D01*
X886966Y110565D01*
X885644Y108275D01*
X884960Y105722D01*
Y103078D01*
X885644Y100525D01*
X886966Y98235D01*
X888835Y96366D01*
X891125Y95044D01*
X893678Y94360D01*
X896322D01*
X898875Y95044D01*
X901165Y96366D01*
X903034Y98235D01*
X904356Y100525D01*
X905040Y103078D01*
Y105722D01*
X904356Y108275D01*
X903034Y110565D01*
X901165Y112434D01*
X898875Y113756D01*
X896322Y114440D01*
D02*
G37*
G36*
X642322D02*
X639678D01*
X637125Y113756D01*
X634835Y112434D01*
X632966Y110565D01*
X631644Y108275D01*
X630960Y105722D01*
Y103078D01*
X631644Y100525D01*
X632966Y98235D01*
X634835Y96366D01*
X637125Y95044D01*
X639678Y94360D01*
X642322D01*
X644875Y95044D01*
X647165Y96366D01*
X649034Y98235D01*
X650356Y100525D01*
X651040Y103078D01*
Y105722D01*
X650356Y108275D01*
X649034Y110565D01*
X647165Y112434D01*
X644875Y113756D01*
X642322Y114440D01*
D02*
G37*
G36*
X896322Y89040D02*
X893678D01*
X891125Y88356D01*
X888835Y87034D01*
X886966Y85165D01*
X885644Y82875D01*
X884960Y80322D01*
Y77678D01*
X885644Y75125D01*
X886966Y72835D01*
X888835Y70966D01*
X891125Y69644D01*
X893678Y68960D01*
X896322D01*
X898875Y69644D01*
X901165Y70966D01*
X903034Y72835D01*
X904356Y75125D01*
X905040Y77678D01*
Y80322D01*
X904356Y82875D01*
X903034Y85165D01*
X901165Y87034D01*
X898875Y88356D01*
X896322Y89040D01*
D02*
G37*
G36*
X642322D02*
X639678D01*
X637125Y88356D01*
X634835Y87034D01*
X632966Y85165D01*
X631644Y82875D01*
X630960Y80322D01*
Y77678D01*
X631644Y75125D01*
X632966Y72835D01*
X634835Y70966D01*
X637125Y69644D01*
X639678Y68960D01*
X642322D01*
X644875Y69644D01*
X647165Y70966D01*
X649034Y72835D01*
X650356Y75125D01*
X651040Y77678D01*
Y80322D01*
X650356Y82875D01*
X649034Y85165D01*
X647165Y87034D01*
X644875Y88356D01*
X642322Y89040D01*
D02*
G37*
G36*
X896322Y63640D02*
X893678D01*
X891125Y62956D01*
X888835Y61634D01*
X886966Y59765D01*
X885644Y57475D01*
X884960Y54922D01*
Y52278D01*
X885644Y49725D01*
X886966Y47435D01*
X888835Y45566D01*
X891125Y44244D01*
X893678Y43560D01*
X896322D01*
X898875Y44244D01*
X901165Y45566D01*
X903034Y47435D01*
X904356Y49725D01*
X905040Y52278D01*
Y54922D01*
X904356Y57475D01*
X903034Y59765D01*
X901165Y61634D01*
X898875Y62956D01*
X896322Y63640D01*
D02*
G37*
%LPD*%
D18*
X585000Y297000D02*
D03*
X423800D02*
D03*
X959840Y659948D02*
D03*
X40000Y40000D02*
D03*
X959840Y39948D02*
D03*
X40000Y660000D02*
D03*
D25*
X947000Y447650D02*
D03*
Y422250D02*
D03*
Y396850D02*
D03*
Y371450D02*
D03*
X444200Y35000D02*
D03*
X469600D02*
D03*
X495000D02*
D03*
X520400D02*
D03*
X179400D02*
D03*
X154000D02*
D03*
X128600D02*
D03*
X103200D02*
D03*
D31*
X895000Y485400D02*
D03*
X641000Y460000D02*
D03*
X895000D02*
D03*
X641000Y434600D02*
D03*
X895000D02*
D03*
X641000Y409200D02*
D03*
X895000D02*
D03*
X641000Y383800D02*
D03*
X895000D02*
D03*
X641000Y358400D02*
D03*
X895000D02*
D03*
X641000Y333000D02*
D03*
X895000D02*
D03*
X641000Y307600D02*
D03*
X895000D02*
D03*
X641000Y282200D02*
D03*
X895000D02*
D03*
X641000Y256800D02*
D03*
X895000D02*
D03*
X641000Y231400D02*
D03*
X895000D02*
D03*
X641000Y206000D02*
D03*
X895000D02*
D03*
X641000Y180600D02*
D03*
X895000D02*
D03*
X641000Y155200D02*
D03*
X895000D02*
D03*
X641000Y129800D02*
D03*
X895000D02*
D03*
X641000Y104400D02*
D03*
X895000D02*
D03*
X641000Y79000D02*
D03*
X895000D02*
D03*
X641000Y53600D02*
D03*
X895000D02*
D03*
X641000Y28200D02*
D03*
X895000D02*
D03*
D32*
X641000Y485400D02*
D03*
D35*
X234754Y477500D02*
D03*
D36*
X309754D02*
D03*
D37*
X38000Y362037D02*
Y490000D01*
Y362037D02*
X46787Y353250D01*
X238221D02*
X268470Y323000D01*
X38000Y490000D02*
X70500Y522500D01*
X46787Y353250D02*
X238221D01*
X291250Y635750D02*
X309754Y617246D01*
Y477500D02*
Y617246D01*
X291250Y635750D02*
Y635750D01*
X289000Y638000D02*
X291250Y635750D01*
X89186Y460000D02*
X292254D01*
X70500Y475510D02*
X73676D01*
X89186Y460000D01*
X292254D02*
X311250Y478996D01*
X328000Y108000D02*
Y265500D01*
X270500Y323000D02*
X328000Y265500D01*
X268470Y323000D02*
X270500D01*
X233987Y50000D02*
X290000D01*
X327000Y87000D01*
Y107000D01*
X225200Y58787D02*
Y97000D01*
Y58787D02*
X233987Y50000D01*
X360000Y140000D02*
X540000D01*
X575713Y92287D02*
Y104287D01*
X540000Y140000D02*
X575713Y104287D01*
X327000Y107000D02*
X360000Y140000D01*
X575713Y92287D02*
X576000Y92000D01*
D38*
X72800Y224000D02*
X75383Y221417D01*
Y214617D02*
Y221417D01*
Y214617D02*
X110000Y180000D01*
X199800Y275550D02*
X210250Y286000D01*
X210500D01*
X199800Y224000D02*
Y275550D01*
X932750Y396850D02*
X947000D01*
X895000Y434600D02*
X932750Y396850D01*
X933950Y358400D02*
X947000Y371450D01*
X895000Y358400D02*
X933950D01*
X225200Y206694D02*
Y224000D01*
X230000Y200000D02*
Y201894D01*
X225200Y206694D02*
X230000Y201894D01*
X47400Y223300D02*
X100000Y170700D01*
Y170000D02*
Y170700D01*
X47400Y223300D02*
Y224000D01*
X431761Y245661D02*
X496100Y310000D01*
X520000D01*
X174400Y224000D02*
Y226907D01*
X180000Y232507D01*
Y260000D01*
X563600Y206000D02*
X598000D01*
X550600Y219000D02*
X563600Y206000D01*
X598000D02*
X635000Y243000D01*
X525200Y219000D02*
X544200Y200000D01*
X611000D02*
X630000Y219000D01*
X544200Y200000D02*
X611000D01*
X643920Y194000D02*
X647920Y190000D01*
X499800Y219000D02*
X524800Y194000D01*
X643920D01*
X647920Y190000D02*
X828200D01*
X895000Y256800D01*
X522000Y188000D02*
X632080D01*
X415000Y199000D02*
X511000D01*
X522000Y188000D01*
X508000Y300000D02*
X530000D01*
X456000Y248000D02*
X508000Y300000D01*
X639480Y180600D02*
X641000D01*
X632080Y188000D02*
X639480Y180600D01*
X165000Y241000D02*
Y242000D01*
X149000Y224000D02*
Y225000D01*
X165000Y241000D01*
X892200Y282200D02*
X895000D01*
X630000Y219000D02*
X829000D01*
X892200Y282200D01*
X892880Y305480D02*
X895000Y307600D01*
X826000Y243000D02*
X888480Y305480D01*
X635000Y243000D02*
X826000D01*
X888480Y305480D02*
X892880D01*
X632140Y446140D02*
X878683D01*
X610000Y424000D02*
X632140Y446140D01*
X610000Y253000D02*
Y424000D01*
X878683Y446140D02*
X892543Y460000D01*
X895000D01*
X576000Y219000D02*
X610000Y253000D01*
D39*
X354000Y415000D02*
X426356Y487356D01*
Y502642D01*
X459000Y535286D02*
Y554556D01*
X426754Y503040D02*
X459000Y535286D01*
X292000Y107000D02*
X292500Y107500D01*
Y205500D01*
X293000Y206000D01*
X453600Y570673D02*
Y573000D01*
Y570673D02*
X459002Y565271D01*
Y554558D02*
Y565271D01*
X459000Y554556D02*
X459002Y554558D01*
X490000Y41074D02*
Y79900D01*
X495000Y84900D01*
X490000Y41074D02*
X495000Y36074D01*
Y35000D02*
Y36074D01*
X523956Y84933D02*
Y90756D01*
X520400Y35000D02*
Y81376D01*
X523956Y90756D02*
X525200Y92000D01*
X520400Y81376D02*
X523956Y84933D01*
X354000Y225000D02*
X411000Y168000D01*
X549000D02*
X600000Y117000D01*
X411000Y168000D02*
X549000D01*
X600000Y69200D02*
Y117000D01*
Y69200D02*
X641000Y28200D01*
X354000Y225000D02*
Y415000D01*
X98200Y97000D02*
X128600Y66600D01*
Y35000D02*
Y66600D01*
X154000Y35000D02*
Y89700D01*
X174400Y94700D02*
Y97000D01*
Y94700D02*
X179400Y89700D01*
Y35000D02*
Y89700D01*
X449000Y92000D02*
X469600Y71400D01*
Y35000D02*
Y71400D01*
D40*
X888250Y520500D02*
X921750Y487000D01*
Y447500D02*
X947000Y422250D01*
X921750Y447500D02*
Y487000D01*
X811000Y520500D02*
X888250D01*
X641000Y485400D02*
X775900D01*
X811000Y520500D01*
X593300Y343300D02*
Y414600D01*
X476600Y221201D02*
Y226600D01*
X593300Y343300D01*
X449000Y219000D02*
X474400D01*
X476600Y221201D01*
X98200Y224000D02*
X123600D01*
X593300Y437700D02*
X641000Y485400D01*
X593300Y414600D02*
Y437700D01*
D41*
X149000Y94700D02*
Y97000D01*
Y94700D02*
X154000Y89700D01*
X495000Y84900D02*
X499800Y89700D01*
Y92000D01*
D42*
X44500Y323000D02*
D03*
X270500D02*
D03*
D43*
X567900Y414600D02*
D03*
X593300D02*
D03*
X542500D02*
D03*
X517100D02*
D03*
X491700D02*
D03*
X466300D02*
D03*
X440900D02*
D03*
X415500D02*
D03*
D44*
X239000Y638000D02*
D03*
D45*
X289000D02*
D03*
D46*
X70500Y475510D02*
D03*
Y522500D02*
D03*
D47*
Y569490D02*
D03*
D48*
X72800Y97000D02*
D03*
X98200D02*
D03*
X123600D02*
D03*
X174400D02*
D03*
X199800Y224000D02*
D03*
X174400D02*
D03*
X47400D02*
D03*
X72800D02*
D03*
X98200D02*
D03*
X123600D02*
D03*
X149000Y97000D02*
D03*
Y224000D02*
D03*
X225200Y97000D02*
D03*
X47400D02*
D03*
X199800D02*
D03*
X423600Y92000D02*
D03*
X449000D02*
D03*
X474400D02*
D03*
X525200D02*
D03*
X550600Y219000D02*
D03*
X525200D02*
D03*
X398200D02*
D03*
X423600D02*
D03*
X449000D02*
D03*
X474400D02*
D03*
X499800Y92000D02*
D03*
Y219000D02*
D03*
X576000Y92000D02*
D03*
X550600D02*
D03*
X398200D02*
D03*
D49*
X225200Y224000D02*
D03*
X576000Y219000D02*
D03*
D50*
X453600Y573000D02*
D03*
X479000D02*
D03*
D51*
X504400D02*
D03*
D52*
X550882Y502642D02*
D03*
X426356D02*
D03*
D53*
X530882D02*
D03*
X406356D02*
D03*
D54*
X292000Y107000D02*
D03*
X293000Y206000D02*
D03*
D55*
X327000Y107000D02*
D03*
X328000Y206000D02*
D03*
D56*
X210500Y286000D02*
D03*
X230000Y200000D02*
D03*
X100000Y170000D02*
D03*
X110000Y180000D02*
D03*
X431761Y245661D02*
D03*
X530000Y300000D02*
D03*
X520000Y310000D02*
D03*
X420000Y580000D02*
D03*
X400000D02*
D03*
Y560000D02*
D03*
X420000D02*
D03*
X400000Y540000D02*
D03*
X420000D02*
D03*
X380000Y580000D02*
D03*
X360000D02*
D03*
Y560000D02*
D03*
X380000D02*
D03*
X360000Y540000D02*
D03*
X380000D02*
D03*
Y640000D02*
D03*
X360000D02*
D03*
Y620000D02*
D03*
X380000D02*
D03*
X360000Y600000D02*
D03*
X380000D02*
D03*
X560000Y580000D02*
D03*
X540000D02*
D03*
Y560000D02*
D03*
X560000D02*
D03*
Y540000D02*
D03*
X600000Y580000D02*
D03*
X580000D02*
D03*
Y560000D02*
D03*
X600000D02*
D03*
Y540000D02*
D03*
X580000D02*
D03*
X600000Y640000D02*
D03*
X580000D02*
D03*
Y620000D02*
D03*
X600000D02*
D03*
Y600000D02*
D03*
X580000D02*
D03*
X540000D02*
D03*
X520000D02*
D03*
X560000D02*
D03*
Y620000D02*
D03*
X540000D02*
D03*
X520000D02*
D03*
Y640000D02*
D03*
X540000D02*
D03*
X560000D02*
D03*
X420000Y600000D02*
D03*
X400000D02*
D03*
X440000D02*
D03*
Y620000D02*
D03*
X420000D02*
D03*
X400000D02*
D03*
Y640000D02*
D03*
X420000D02*
D03*
X440000D02*
D03*
X510000Y510000D02*
D03*
X490000D02*
D03*
X470000D02*
D03*
Y530000D02*
D03*
X490000D02*
D03*
X510000D02*
D03*
X490000Y550000D02*
D03*
X470000D02*
D03*
X500000Y640000D02*
D03*
X480000D02*
D03*
X460000D02*
D03*
Y620000D02*
D03*
X480000D02*
D03*
X500000D02*
D03*
Y600000D02*
D03*
X460000D02*
D03*
X480000D02*
D03*
X415000Y199000D02*
D03*
X180000Y260000D02*
D03*
X165000Y242000D02*
D03*
X456000Y248000D02*
D03*
M02*
