G04*
G04 #@! TF.GenerationSoftware,Altium Limited,Altium Designer,25.4.2 (15)*
G04*
G04 Layer_Physical_Order=2*
G04 Layer_Color=16711680*
%FSLAX44Y44*%
%MOMM*%
G71*
G04*
G04 #@! TF.SameCoordinates,2B46D1DC-655E-4794-AB20-7024E33391BE*
G04*
G04*
G04 #@! TF.FilePolarity,Positive*
G04*
G01*
G75*
%ADD18C,3.2000*%
%ADD25C,1.3970*%
%ADD31C,1.4080*%
%ADD32R,1.4080X1.4080*%
%ADD35R,1.4000X1.4000*%
%ADD36C,1.4000*%
%ADD37C,1.5000*%
%ADD38C,0.3000*%
%ADD39C,1.0000*%
%ADD40C,0.5000*%
%ADD42C,2.2500*%
%ADD43C,1.9050*%
%ADD44C,1.9500*%
%ADD45R,1.9500X1.9500*%
%ADD46C,3.4798*%
%ADD47R,3.4798X3.4798*%
%ADD48C,1.6500*%
%ADD49R,1.6500X1.6500*%
%ADD50C,1.8600*%
%ADD51R,1.8600X1.8600*%
%ADD52C,1.2080*%
%ADD53R,1.2080X1.2080*%
%ADD54R,1.2000X1.2000*%
%ADD55C,1.2000*%
%ADD56C,0.6000*%
G36*
X990000Y40000D02*
X978840D01*
Y41819D01*
X978110Y45490D01*
X976678Y48948D01*
X974598Y52060D01*
X971952Y54706D01*
X968840Y56786D01*
X965382Y58218D01*
X961711Y58948D01*
X957969D01*
X954298Y58218D01*
X950840Y56786D01*
X947728Y54706D01*
X945082Y52060D01*
X943002Y48948D01*
X941570Y45490D01*
X940840Y41819D01*
Y40000D01*
X529043D01*
X528390Y41131D01*
X526531Y42990D01*
X524254Y44304D01*
X521715Y44985D01*
X519085D01*
X516546Y44304D01*
X514269Y42990D01*
X512410Y41131D01*
X511757Y40000D01*
X503643D01*
X502990Y41131D01*
X501131Y42990D01*
X498854Y44304D01*
X496315Y44985D01*
X493685D01*
X491146Y44304D01*
X488869Y42990D01*
X487010Y41131D01*
X486357Y40000D01*
X478243D01*
X477590Y41131D01*
X475731Y42990D01*
X473454Y44304D01*
X470915Y44985D01*
X468285D01*
X465746Y44304D01*
X463469Y42990D01*
X461610Y41131D01*
X460957Y40000D01*
X452843D01*
X452190Y41131D01*
X450434Y42887D01*
Y58617D01*
X472641Y80824D01*
X472919Y80750D01*
X475881D01*
X478742Y81517D01*
X481308Y82998D01*
X483402Y85092D01*
X484883Y87658D01*
X485650Y90519D01*
X488550D01*
X489317Y87658D01*
X490798Y85092D01*
X492892Y82998D01*
X495458Y81517D01*
X498319Y80750D01*
X501281D01*
X504142Y81517D01*
X506708Y82998D01*
X508802Y85092D01*
X510283Y87658D01*
X511050Y90519D01*
X513950D01*
X514717Y87658D01*
X516198Y85092D01*
X518292Y82998D01*
X520858Y81517D01*
X523719Y80750D01*
X526681D01*
X529542Y81517D01*
X532108Y82998D01*
X534202Y85092D01*
X535683Y87658D01*
X536450Y90519D01*
Y93481D01*
X535683Y96342D01*
X534202Y98908D01*
X532108Y101002D01*
X529542Y102483D01*
X526681Y103250D01*
X523719D01*
X520858Y102483D01*
X518292Y101002D01*
X516198Y98908D01*
X514717Y96342D01*
X513950Y93481D01*
X511050D01*
X510283Y96342D01*
X508802Y98908D01*
X506708Y101002D01*
X504142Y102483D01*
X501281Y103250D01*
X498319D01*
X495458Y102483D01*
X492892Y101002D01*
X490798Y98908D01*
X489317Y96342D01*
X488550Y93481D01*
X485650D01*
X484883Y96342D01*
X483402Y98908D01*
X481308Y101002D01*
X478742Y102483D01*
X475881Y103250D01*
X472919D01*
X470058Y102483D01*
X467492Y101002D01*
X465398Y98908D01*
X463917Y96342D01*
X462718Y95820D01*
X459483Y96342D01*
X458002Y98908D01*
X455908Y101002D01*
X453342Y102483D01*
X450481Y103250D01*
X447519D01*
X444658Y102483D01*
X442092Y101002D01*
X439998Y98908D01*
X438517Y96342D01*
X437750Y93481D01*
X434850D01*
X434083Y96342D01*
X432602Y98908D01*
X430508Y101002D01*
X427942Y102483D01*
X425081Y103250D01*
X422119D01*
X419258Y102483D01*
X416692Y101002D01*
X414598Y98908D01*
X413117Y96342D01*
X412350Y93481D01*
Y90519D01*
X413117Y87658D01*
X414598Y85092D01*
X416692Y82998D01*
X419258Y81517D01*
X422119Y80750D01*
X425081D01*
X427942Y81517D01*
X430508Y82998D01*
X432602Y85092D01*
X434083Y87658D01*
X434850Y90519D01*
X437750D01*
X438517Y87658D01*
X439998Y85092D01*
X442092Y82998D01*
X444658Y81517D01*
X445928Y81176D01*
X446862Y77868D01*
X436659Y67665D01*
X435377Y65994D01*
X434571Y64048D01*
X434296Y61959D01*
Y40000D01*
X188043D01*
X187390Y41131D01*
X185531Y42990D01*
X183254Y44304D01*
X180714Y44985D01*
X178085D01*
X175546Y44304D01*
X173269Y42990D01*
X171410Y41131D01*
X170757Y40000D01*
X162643D01*
X161990Y41131D01*
X160131Y42990D01*
X157854Y44304D01*
X155315Y44985D01*
X152685D01*
X150146Y44304D01*
X147869Y42990D01*
X146010Y41131D01*
X145357Y40000D01*
X137243D01*
X136590Y41131D01*
X134731Y42990D01*
X132454Y44304D01*
X129915Y44985D01*
X127285D01*
X124746Y44304D01*
X122469Y42990D01*
X120610Y41131D01*
X119957Y40000D01*
X111843D01*
X111269Y40994D01*
Y73258D01*
X123761Y85750D01*
X125081D01*
X127942Y86517D01*
X130508Y87998D01*
X132602Y90092D01*
X134083Y92658D01*
X134850Y95519D01*
X137750D01*
X138517Y92658D01*
X139998Y90092D01*
X142092Y87998D01*
X144658Y86517D01*
X147519Y85750D01*
X150481D01*
X153342Y86517D01*
X155908Y87998D01*
X158002Y90092D01*
X159483Y92658D01*
X160250Y95519D01*
X163150D01*
X163917Y92658D01*
X165398Y90092D01*
X167492Y87998D01*
X170058Y86517D01*
X172919Y85750D01*
X175881D01*
X178742Y86517D01*
X181308Y87998D01*
X183402Y90092D01*
X184883Y92658D01*
X185650Y95519D01*
Y98481D01*
X184883Y101342D01*
X183402Y103908D01*
X181308Y106002D01*
X178742Y107483D01*
X175881Y108250D01*
X172919D01*
X170058Y107483D01*
X167492Y106002D01*
X165398Y103908D01*
X163917Y101342D01*
X163150Y98481D01*
X160250D01*
X159483Y101342D01*
X158002Y103908D01*
X155908Y106002D01*
X153342Y107483D01*
X150481Y108250D01*
X147519D01*
X144658Y107483D01*
X142092Y106002D01*
X139998Y103908D01*
X138517Y101342D01*
X137750Y98481D01*
X134850D01*
X134083Y101342D01*
X132602Y103908D01*
X130508Y106002D01*
X127942Y107483D01*
X125081Y108250D01*
X122119D01*
X119258Y107483D01*
X116692Y106002D01*
X114598Y103908D01*
X113117Y101342D01*
X112350Y98481D01*
X109450D01*
X108683Y101342D01*
X107202Y103908D01*
X105108Y106002D01*
X102542Y107483D01*
X99681Y108250D01*
X96719D01*
X93858Y107483D01*
X91292Y106002D01*
X89198Y103908D01*
X87717Y101342D01*
X86950Y98481D01*
X84050D01*
X83283Y101342D01*
X81802Y103908D01*
X79708Y106002D01*
X77142Y107483D01*
X74281Y108250D01*
X71319D01*
X68458Y107483D01*
X65892Y106002D01*
X63798Y103908D01*
X62317Y101342D01*
X61550Y98481D01*
Y95519D01*
X62317Y92658D01*
X63798Y90092D01*
X65892Y87998D01*
X68458Y86517D01*
X71319Y85750D01*
X74281D01*
X77142Y86517D01*
X79708Y87998D01*
X81802Y90092D01*
X83283Y92658D01*
X84050Y95519D01*
X86950D01*
X87717Y92658D01*
X89198Y90092D01*
X91292Y87998D01*
X93858Y86517D01*
X96719Y85750D01*
X97939Y82750D01*
X97494Y82306D01*
X96212Y80634D01*
X95406Y78688D01*
X95131Y76600D01*
Y40994D01*
X94557Y40000D01*
X59000D01*
Y41871D01*
X58270Y45542D01*
X56838Y49000D01*
X54758Y52112D01*
X52112Y54758D01*
X49000Y56838D01*
X45542Y58270D01*
X41871Y59000D01*
X38129D01*
X34458Y58270D01*
X31000Y56838D01*
X27888Y54758D01*
X25242Y52112D01*
X23162Y49000D01*
X21730Y45542D01*
X21000Y41871D01*
Y40000D01*
X10000D01*
X10000Y659948D01*
X21000D01*
Y658129D01*
X21730Y654458D01*
X23162Y651000D01*
X25242Y647888D01*
X27888Y645242D01*
X31000Y643162D01*
X34458Y641730D01*
X38129Y641000D01*
X41871D01*
X45542Y641730D01*
X49000Y643162D01*
X52112Y645242D01*
X54758Y647888D01*
X56838Y651000D01*
X58270Y654458D01*
X59000Y658129D01*
Y659948D01*
X940840D01*
Y658077D01*
X941570Y654406D01*
X943002Y650948D01*
X945082Y647836D01*
X947728Y645190D01*
X950840Y643110D01*
X954298Y641678D01*
X957969Y640948D01*
X961711D01*
X965382Y641678D01*
X968840Y643110D01*
X971952Y645190D01*
X974598Y647836D01*
X976678Y650948D01*
X978110Y654406D01*
X978840Y658077D01*
Y659948D01*
X990000D01*
Y40000D01*
D02*
G37*
%LPC*%
G36*
X301750Y650750D02*
X276250D01*
Y625250D01*
X301750D01*
Y650750D01*
D02*
G37*
G36*
X455219Y585300D02*
X451981D01*
X448852Y584462D01*
X446048Y582842D01*
X443758Y580552D01*
X442138Y577748D01*
X441300Y574619D01*
Y571381D01*
X442138Y568252D01*
X443758Y565448D01*
X446048Y563158D01*
X448852Y561538D01*
X451981Y560700D01*
X455219D01*
X458348Y561538D01*
X461152Y563158D01*
X463442Y565448D01*
X465062Y568252D01*
X465900Y571381D01*
Y574619D01*
X465062Y577748D01*
X463442Y580552D01*
X461152Y582842D01*
X458348Y584462D01*
X455219Y585300D01*
D02*
G37*
G36*
X72509Y542899D02*
X68491D01*
X64550Y542115D01*
X60837Y540577D01*
X57496Y538345D01*
X54655Y535504D01*
X52423Y532163D01*
X50885Y528450D01*
X50101Y524509D01*
Y520491D01*
X50885Y516550D01*
X52423Y512837D01*
X54655Y509496D01*
X57496Y506655D01*
X60837Y504423D01*
X64550Y502885D01*
X68491Y502101D01*
X72509D01*
X76450Y502885D01*
X80162Y504423D01*
X83504Y506655D01*
X86345Y509496D01*
X88577Y512837D01*
X90115Y516550D01*
X90899Y520491D01*
Y524509D01*
X90115Y528450D01*
X88577Y532163D01*
X86345Y535504D01*
X83504Y538345D01*
X80162Y540577D01*
X76450Y542115D01*
X72509Y542899D01*
D02*
G37*
G36*
X427546Y511682D02*
X425166D01*
X422867Y511066D01*
X420805Y509876D01*
X419122Y508193D01*
X417932Y506131D01*
X417316Y503832D01*
Y501452D01*
X417932Y499153D01*
X419122Y497091D01*
X420805Y495408D01*
X422867Y494218D01*
X425166Y493602D01*
X427546D01*
X429845Y494218D01*
X431907Y495408D01*
X433590Y497091D01*
X434780Y499153D01*
X435396Y501452D01*
Y503832D01*
X434780Y506131D01*
X433590Y508193D01*
X431907Y509876D01*
X429845Y511066D01*
X427546Y511682D01*
D02*
G37*
G36*
X651040Y495440D02*
X630960D01*
Y475360D01*
X651040D01*
Y495440D01*
D02*
G37*
G36*
X311070Y487500D02*
X308438D01*
X305894Y486819D01*
X303614Y485502D01*
X301752Y483640D01*
X300436Y481360D01*
X299754Y478816D01*
Y476184D01*
X300436Y473640D01*
X301752Y471360D01*
X303614Y469498D01*
X305894Y468181D01*
X308438Y467500D01*
X311070D01*
X313614Y468181D01*
X315894Y469498D01*
X317756Y471360D01*
X319072Y473640D01*
X319754Y476184D01*
Y478816D01*
X319072Y481360D01*
X317756Y483640D01*
X315894Y485502D01*
X313614Y486819D01*
X311070Y487500D01*
D02*
G37*
G36*
X72509Y495909D02*
X68491D01*
X64550Y495125D01*
X60837Y493587D01*
X57496Y491355D01*
X54655Y488514D01*
X52423Y485173D01*
X50885Y481460D01*
X50101Y477519D01*
Y473501D01*
X50885Y469560D01*
X52423Y465847D01*
X54655Y462506D01*
X57496Y459665D01*
X60837Y457433D01*
X64550Y455895D01*
X68491Y455111D01*
X72509D01*
X76450Y455895D01*
X80162Y457433D01*
X83504Y459665D01*
X86345Y462506D01*
X88577Y465847D01*
X90115Y469560D01*
X90899Y473501D01*
Y477519D01*
X90115Y481460D01*
X88577Y485173D01*
X86345Y488514D01*
X83504Y491355D01*
X80162Y493587D01*
X76450Y495125D01*
X72509Y495909D01*
D02*
G37*
G36*
X896322Y470040D02*
X893678D01*
X891125Y469356D01*
X888835Y468034D01*
X886966Y466165D01*
X885644Y463875D01*
X884960Y461322D01*
Y458678D01*
X885644Y456125D01*
X886966Y453835D01*
X888835Y451966D01*
X891125Y450644D01*
X893678Y449960D01*
X896322D01*
X898875Y450644D01*
X901165Y451966D01*
X903034Y453835D01*
X904356Y456125D01*
X905040Y458678D01*
Y461322D01*
X904356Y463875D01*
X903034Y466165D01*
X901165Y468034D01*
X898875Y469356D01*
X896322Y470040D01*
D02*
G37*
G36*
X642322D02*
X639678D01*
X637125Y469356D01*
X634835Y468034D01*
X632966Y466165D01*
X631644Y463875D01*
X630960Y461322D01*
Y458678D01*
X631644Y456125D01*
X632966Y453835D01*
X634835Y451966D01*
X637125Y450644D01*
X639678Y449960D01*
X642322D01*
X644875Y450644D01*
X647165Y451966D01*
X649034Y453835D01*
X650356Y456125D01*
X651040Y458678D01*
Y461322D01*
X650356Y463875D01*
X649034Y466165D01*
X647165Y468034D01*
X644875Y469356D01*
X642322Y470040D01*
D02*
G37*
G36*
X516700Y585300D02*
X492100D01*
Y560700D01*
X501723D01*
X540291Y522131D01*
Y502642D01*
Y484269D01*
X520613Y464591D01*
X393000D01*
X390259Y464230D01*
X387705Y463172D01*
X385511Y461489D01*
X385511Y461489D01*
X339613Y415591D01*
X103000D01*
X103000Y415591D01*
X100259Y415230D01*
X97705Y414172D01*
X95511Y412489D01*
X33511Y350489D01*
X31828Y348295D01*
X30770Y345741D01*
X30409Y343000D01*
X30409Y343000D01*
Y330000D01*
X30770Y327259D01*
X30842Y327086D01*
X30250Y324876D01*
Y321124D01*
X31221Y317500D01*
X33097Y314250D01*
X35750Y311597D01*
X39000Y309721D01*
X42624Y308750D01*
X46376D01*
X50000Y309721D01*
X53250Y311597D01*
X55903Y314250D01*
X57779Y317500D01*
X58750Y321124D01*
Y324876D01*
X57779Y328500D01*
X55903Y331750D01*
X53250Y334403D01*
X51591Y335361D01*
Y338613D01*
X107387Y394409D01*
X344000D01*
X344000Y394409D01*
X346741Y394770D01*
X349295Y395828D01*
X351489Y397511D01*
X397387Y443409D01*
X525000D01*
X525000Y443409D01*
X527741Y443770D01*
X530295Y444828D01*
X532489Y446511D01*
X558371Y472393D01*
X558371Y472393D01*
X560054Y474587D01*
X561112Y477141D01*
X561473Y479882D01*
Y502642D01*
Y526518D01*
X561473Y526518D01*
X561112Y529259D01*
X560054Y531813D01*
X558371Y534007D01*
X558371Y534007D01*
X516700Y575677D01*
Y585300D01*
D02*
G37*
G36*
X642322Y444640D02*
X639678D01*
X637125Y443956D01*
X634835Y442634D01*
X632966Y440765D01*
X631644Y438475D01*
X630960Y435922D01*
Y433278D01*
X631644Y430725D01*
X632966Y428435D01*
X634835Y426566D01*
X637125Y425244D01*
X639678Y424560D01*
X642322D01*
X644875Y425244D01*
X647165Y426566D01*
X649034Y428435D01*
X650356Y430725D01*
X651040Y433278D01*
Y435922D01*
X650356Y438475D01*
X649034Y440765D01*
X647165Y442634D01*
X644875Y443956D01*
X642322Y444640D01*
D02*
G37*
G36*
X948315Y432235D02*
X945686D01*
X943146Y431554D01*
X940869Y430240D01*
X939010Y428381D01*
X937695Y426104D01*
X937015Y423565D01*
Y420936D01*
X937695Y418396D01*
X939010Y416119D01*
X940869Y414260D01*
X943146Y412946D01*
X945686Y412265D01*
X948315D01*
X950854Y412946D01*
X953131Y414260D01*
X954990Y416119D01*
X956304Y418396D01*
X956985Y420936D01*
Y423565D01*
X956304Y426104D01*
X954990Y428381D01*
X953131Y430240D01*
X950854Y431554D01*
X948315Y432235D01*
D02*
G37*
G36*
X594949Y427125D02*
X591651D01*
X588465Y426271D01*
X585609Y424622D01*
X583278Y422290D01*
X581629Y419434D01*
X580775Y416249D01*
Y412951D01*
X581629Y409766D01*
X583278Y406909D01*
X585609Y404577D01*
X588465Y402929D01*
X591651Y402075D01*
X594949D01*
X598134Y402929D01*
X600990Y404577D01*
X603322Y406909D01*
X604971Y409766D01*
X605825Y412951D01*
Y416249D01*
X604971Y419434D01*
X603322Y422290D01*
X600990Y424622D01*
X598134Y426271D01*
X594949Y427125D01*
D02*
G37*
G36*
X896322Y419240D02*
X893678D01*
X891125Y418556D01*
X888835Y417234D01*
X886966Y415365D01*
X885644Y413075D01*
X884960Y410522D01*
Y407878D01*
X885644Y405325D01*
X886966Y403035D01*
X888835Y401166D01*
X891125Y399844D01*
X893678Y399160D01*
X896322D01*
X898875Y399844D01*
X901165Y401166D01*
X903034Y403035D01*
X904356Y405325D01*
X905040Y407878D01*
Y410522D01*
X904356Y413075D01*
X903034Y415365D01*
X901165Y417234D01*
X898875Y418556D01*
X896322Y419240D01*
D02*
G37*
G36*
X642322D02*
X639678D01*
X637125Y418556D01*
X634835Y417234D01*
X632966Y415365D01*
X631644Y413075D01*
X630960Y410522D01*
Y407878D01*
X631644Y405325D01*
X632966Y403035D01*
X634835Y401166D01*
X637125Y399844D01*
X639678Y399160D01*
X642322D01*
X644875Y399844D01*
X647165Y401166D01*
X649034Y403035D01*
X650356Y405325D01*
X651040Y407878D01*
Y410522D01*
X650356Y413075D01*
X649034Y415365D01*
X647165Y417234D01*
X644875Y418556D01*
X642322Y419240D01*
D02*
G37*
G36*
X948315Y406835D02*
X945686D01*
X943146Y406155D01*
X940869Y404840D01*
X939010Y402981D01*
X937695Y400704D01*
X937015Y398165D01*
Y395536D01*
X937695Y392996D01*
X939010Y390719D01*
X940869Y388860D01*
X943146Y387546D01*
X945686Y386865D01*
X948315D01*
X950854Y387546D01*
X953131Y388860D01*
X954990Y390719D01*
X956304Y392996D01*
X956985Y395536D01*
Y398165D01*
X956304Y400704D01*
X954990Y402981D01*
X953131Y404840D01*
X950854Y406155D01*
X948315Y406835D01*
D02*
G37*
G36*
X896322Y444640D02*
X893678D01*
X891125Y443956D01*
X888835Y442634D01*
X886966Y440765D01*
X885644Y438475D01*
X884960Y435922D01*
Y433278D01*
X885431Y431520D01*
X829500Y375588D01*
X651186D01*
X650723Y376029D01*
X649584Y378588D01*
X650356Y379925D01*
X651040Y382478D01*
Y385122D01*
X650356Y387675D01*
X649034Y389965D01*
X647165Y391834D01*
X644875Y393156D01*
X642322Y393840D01*
X639678D01*
X637125Y393156D01*
X634835Y391834D01*
X632966Y389965D01*
X631644Y387675D01*
X630960Y385122D01*
Y382478D01*
X631644Y379925D01*
X632416Y378588D01*
X631277Y376029D01*
X630814Y375588D01*
X588000D01*
X554044Y409545D01*
X554171Y409766D01*
X555025Y412951D01*
Y416249D01*
X554171Y419434D01*
X552523Y422290D01*
X550191Y424622D01*
X547334Y426271D01*
X544149Y427125D01*
X540851D01*
X537665Y426271D01*
X534809Y424622D01*
X532477Y422290D01*
X531445Y420503D01*
X531378Y420476D01*
X528222D01*
X528155Y420503D01*
X527122Y422290D01*
X524790Y424622D01*
X521934Y426271D01*
X518749Y427125D01*
X515451D01*
X512266Y426271D01*
X509409Y424622D01*
X507077Y422290D01*
X506045Y420503D01*
X505978Y420476D01*
X502822D01*
X502755Y420503D01*
X501722Y422290D01*
X499390Y424622D01*
X496534Y426271D01*
X493349Y427125D01*
X490051D01*
X486866Y426271D01*
X484009Y424622D01*
X481678Y422290D01*
X480645Y420503D01*
X480578Y420476D01*
X477422D01*
X477355Y420503D01*
X476323Y422290D01*
X473991Y424622D01*
X471134Y426271D01*
X467949Y427125D01*
X464651D01*
X461465Y426271D01*
X458609Y424622D01*
X456278Y422290D01*
X455245Y420503D01*
X455178Y420476D01*
X452022D01*
X451955Y420503D01*
X450923Y422290D01*
X448591Y424622D01*
X445734Y426271D01*
X442549Y427125D01*
X439251D01*
X436065Y426271D01*
X433209Y424622D01*
X430877Y422290D01*
X429845Y420503D01*
X429778Y420476D01*
X426622D01*
X426555Y420503D01*
X425522Y422290D01*
X423190Y424622D01*
X420334Y426271D01*
X417149Y427125D01*
X413851D01*
X410666Y426271D01*
X407809Y424622D01*
X405477Y422290D01*
X403829Y419434D01*
X402975Y416249D01*
Y412951D01*
X403829Y409766D01*
X405477Y406909D01*
X407809Y404577D01*
X410666Y402929D01*
X413851Y402075D01*
X417149D01*
X420334Y402929D01*
X423190Y404577D01*
X425522Y406909D01*
X426555Y408697D01*
X426622Y408724D01*
X429778D01*
X429845Y408697D01*
X430877Y406909D01*
X433209Y404577D01*
X436065Y402929D01*
X439251Y402075D01*
X442549D01*
X445734Y402929D01*
X448591Y404577D01*
X450923Y406909D01*
X451955Y408697D01*
X452022Y408724D01*
X455178D01*
X455245Y408697D01*
X456278Y406909D01*
X458609Y404577D01*
X461465Y402929D01*
X464651Y402075D01*
X467949D01*
X471134Y402929D01*
X473991Y404577D01*
X476323Y406909D01*
X477355Y408697D01*
X477422Y408724D01*
X480578D01*
X480645Y408697D01*
X481678Y406909D01*
X484009Y404577D01*
X486866Y402929D01*
X490051Y402075D01*
X493349D01*
X496534Y402929D01*
X499390Y404577D01*
X501722Y406909D01*
X502755Y408697D01*
X502822Y408724D01*
X505978D01*
X506045Y408697D01*
X507077Y406909D01*
X509409Y404577D01*
X512266Y402929D01*
X515451Y402075D01*
X518749D01*
X521934Y402929D01*
X522155Y403056D01*
X581596Y343616D01*
X583084Y342621D01*
X584840Y342272D01*
X631830D01*
X633073Y339272D01*
X632966Y339165D01*
X631644Y336875D01*
X630960Y334322D01*
Y331678D01*
X631644Y329125D01*
X632966Y326835D01*
X634835Y324966D01*
X637125Y323644D01*
X639678Y322960D01*
X642322D01*
X644875Y323644D01*
X647165Y324966D01*
X649034Y326835D01*
X650356Y329125D01*
X651040Y331678D01*
Y334322D01*
X650356Y336875D01*
X649034Y339165D01*
X648927Y339272D01*
X650170Y342272D01*
X883460D01*
X885216Y342621D01*
X886704Y343616D01*
X891920Y348831D01*
X893678Y348360D01*
X896322D01*
X898875Y349044D01*
X901165Y350366D01*
X903034Y352235D01*
X904356Y354525D01*
X905040Y357078D01*
Y359722D01*
X904356Y362275D01*
X903034Y364565D01*
X901165Y366434D01*
X898875Y367756D01*
X896322Y368440D01*
X893678D01*
X891125Y367756D01*
X888835Y366434D01*
X886966Y364565D01*
X885644Y362275D01*
X884960Y359722D01*
Y357078D01*
X885431Y355320D01*
X881560Y351448D01*
X652044D01*
X650312Y354448D01*
X650356Y354525D01*
X651040Y357078D01*
Y359722D01*
X650356Y362275D01*
X649700Y363412D01*
X651180Y366412D01*
X831400D01*
X833156Y366761D01*
X834644Y367756D01*
X891920Y425031D01*
X893678Y424560D01*
X896322D01*
X898875Y425244D01*
X901165Y426566D01*
X903034Y428435D01*
X904356Y430725D01*
X905040Y433278D01*
Y435922D01*
X904356Y438475D01*
X903034Y440765D01*
X901165Y442634D01*
X898875Y443956D01*
X896322Y444640D01*
D02*
G37*
G36*
Y393840D02*
X893678D01*
X891125Y393156D01*
X888835Y391834D01*
X886966Y389965D01*
X885644Y387675D01*
X884960Y385122D01*
Y382478D01*
X885644Y379925D01*
X886966Y377635D01*
X888835Y375766D01*
X891125Y374444D01*
X893678Y373760D01*
X896322D01*
X898875Y374444D01*
X901165Y375766D01*
X903034Y377635D01*
X904356Y379925D01*
X905040Y382478D01*
Y385122D01*
X904356Y387675D01*
X903034Y389965D01*
X901165Y391834D01*
X898875Y393156D01*
X896322Y393840D01*
D02*
G37*
G36*
X948315Y381435D02*
X945686D01*
X943146Y380755D01*
X940869Y379440D01*
X939010Y377581D01*
X937695Y375304D01*
X937015Y372765D01*
Y370135D01*
X937695Y367596D01*
X939010Y365319D01*
X940869Y363460D01*
X943146Y362146D01*
X945686Y361465D01*
X948315D01*
X950854Y362146D01*
X953131Y363460D01*
X954990Y365319D01*
X956304Y367596D01*
X956985Y370135D01*
Y372765D01*
X956304Y375304D01*
X954990Y377581D01*
X953131Y379440D01*
X950854Y380755D01*
X948315Y381435D01*
D02*
G37*
G36*
X603200Y324588D02*
X568947D01*
X567191Y324239D01*
X565703Y323244D01*
X557047Y314588D01*
X523897D01*
X523399Y315086D01*
X521194Y316000D01*
X518806D01*
X516601Y315086D01*
X514913Y313399D01*
X514000Y311194D01*
Y308806D01*
X514913Y306601D01*
X516601Y304913D01*
X518806Y304000D01*
X521194D01*
X522065Y304361D01*
X524361Y302065D01*
X524000Y301194D01*
Y298806D01*
X524913Y296601D01*
X526601Y294914D01*
X528806Y294000D01*
X531194D01*
X533399Y294914D01*
X533897Y295412D01*
X542547D01*
X584403Y253556D01*
X585891Y252561D01*
X587647Y252212D01*
X632056D01*
X632966Y250635D01*
X634835Y248766D01*
X637125Y247444D01*
X639678Y246760D01*
X642322D01*
X644875Y247444D01*
X647165Y248766D01*
X649034Y250635D01*
X650356Y252925D01*
X651040Y255478D01*
Y258122D01*
X650356Y260675D01*
X649034Y262965D01*
X647165Y264834D01*
X644875Y266156D01*
X642322Y266840D01*
X639678D01*
X637125Y266156D01*
X634835Y264834D01*
X632966Y262965D01*
X632056Y261388D01*
X589548D01*
X570850Y280086D01*
X572888Y282242D01*
X576000Y280162D01*
X579458Y278730D01*
X583129Y278000D01*
X586871D01*
X590542Y278730D01*
X594000Y280162D01*
X597112Y282242D01*
X599758Y284888D01*
X601838Y288000D01*
X603270Y291458D01*
X604000Y295129D01*
Y298871D01*
X603270Y302542D01*
X601838Y306000D01*
X599758Y309112D01*
X597112Y311758D01*
X596133Y312412D01*
X597044Y315412D01*
X601300D01*
X631431Y285280D01*
X630960Y283522D01*
Y280878D01*
X631644Y278325D01*
X632966Y276035D01*
X634835Y274166D01*
X637125Y272844D01*
X639678Y272160D01*
X642322D01*
X644875Y272844D01*
X647165Y274166D01*
X649034Y276035D01*
X650356Y278325D01*
X651040Y280878D01*
Y283522D01*
X650356Y286075D01*
X649034Y288365D01*
X647165Y290234D01*
X644875Y291556D01*
X642322Y292240D01*
X639678D01*
X637920Y291769D01*
X606444Y323244D01*
X604956Y324239D01*
X603200Y324588D01*
D02*
G37*
G36*
X272376Y337250D02*
X268624D01*
X265000Y336279D01*
X261750Y334403D01*
X259097Y331750D01*
X257221Y328500D01*
X256250Y324876D01*
Y321124D01*
X257221Y317500D01*
X259097Y314250D01*
X261750Y311597D01*
X265000Y309721D01*
X268624Y308750D01*
X272376D01*
X276000Y309721D01*
X279250Y311597D01*
X281903Y314250D01*
X283779Y317500D01*
X284750Y321124D01*
Y324876D01*
X283779Y328500D01*
X281903Y331750D01*
X279250Y334403D01*
X276000Y336279D01*
X272376Y337250D01*
D02*
G37*
G36*
X896322Y317640D02*
X893678D01*
X891125Y316956D01*
X888835Y315634D01*
X886966Y313765D01*
X885644Y311475D01*
X884960Y308922D01*
Y306278D01*
X885644Y303725D01*
X886966Y301435D01*
X888835Y299566D01*
X891125Y298244D01*
X893678Y297560D01*
X896322D01*
X898875Y298244D01*
X901165Y299566D01*
X903034Y301435D01*
X904356Y303725D01*
X905040Y306278D01*
Y308922D01*
X904356Y311475D01*
X903034Y313765D01*
X901165Y315634D01*
X898875Y316956D01*
X896322Y317640D01*
D02*
G37*
G36*
X642322D02*
X639678D01*
X637125Y316956D01*
X634835Y315634D01*
X632966Y313765D01*
X631644Y311475D01*
X630960Y308922D01*
Y306278D01*
X631644Y303725D01*
X632966Y301435D01*
X634835Y299566D01*
X637125Y298244D01*
X639678Y297560D01*
X642322D01*
X644875Y298244D01*
X647165Y299566D01*
X649034Y301435D01*
X650356Y303725D01*
X651040Y306278D01*
Y308922D01*
X650356Y311475D01*
X649034Y313765D01*
X647165Y315634D01*
X644875Y316956D01*
X642322Y317640D01*
D02*
G37*
G36*
X425671Y316000D02*
X421929D01*
X418258Y315270D01*
X414800Y313838D01*
X411688Y311758D01*
X409042Y309112D01*
X406962Y306000D01*
X405530Y302542D01*
X404800Y298871D01*
Y295129D01*
X405530Y291458D01*
X406962Y288000D01*
X409042Y284888D01*
X411688Y282242D01*
X414800Y280162D01*
X418258Y278730D01*
X421929Y278000D01*
X425671D01*
X429342Y278730D01*
X432800Y280162D01*
X435912Y282242D01*
X438558Y284888D01*
X440638Y288000D01*
X442070Y291458D01*
X442800Y295129D01*
Y298871D01*
X442070Y302542D01*
X440638Y306000D01*
X438558Y309112D01*
X435912Y311758D01*
X432800Y313838D01*
X429342Y315270D01*
X425671Y316000D01*
D02*
G37*
G36*
X896322Y292240D02*
X893678D01*
X891125Y291556D01*
X888835Y290234D01*
X886966Y288365D01*
X885644Y286075D01*
X884960Y283522D01*
Y280878D01*
X885644Y278325D01*
X886966Y276035D01*
X888835Y274166D01*
X891125Y272844D01*
X893678Y272160D01*
X896322D01*
X898875Y272844D01*
X901165Y274166D01*
X903034Y276035D01*
X904356Y278325D01*
X905040Y280878D01*
Y283522D01*
X904356Y286075D01*
X903034Y288365D01*
X901165Y290234D01*
X898875Y291556D01*
X896322Y292240D01*
D02*
G37*
G36*
Y266840D02*
X893678D01*
X891125Y266156D01*
X888835Y264834D01*
X886966Y262965D01*
X885644Y260675D01*
X884960Y258122D01*
Y255478D01*
X885644Y252925D01*
X886966Y250635D01*
X888835Y248766D01*
X891125Y247444D01*
X893678Y246760D01*
X896322D01*
X898875Y247444D01*
X901165Y248766D01*
X903034Y250635D01*
X904356Y252925D01*
X905040Y255478D01*
Y258122D01*
X904356Y260675D01*
X903034Y262965D01*
X901165Y264834D01*
X898875Y266156D01*
X896322Y266840D01*
D02*
G37*
G36*
Y241440D02*
X893678D01*
X891125Y240756D01*
X888835Y239434D01*
X886966Y237565D01*
X885644Y235275D01*
X884960Y232722D01*
Y230078D01*
X885644Y227525D01*
X886966Y225235D01*
X888835Y223366D01*
X891125Y222044D01*
X893678Y221360D01*
X896322D01*
X898875Y222044D01*
X901165Y223366D01*
X903034Y225235D01*
X904356Y227525D01*
X905040Y230078D01*
Y232722D01*
X904356Y235275D01*
X903034Y237565D01*
X901165Y239434D01*
X898875Y240756D01*
X896322Y241440D01*
D02*
G37*
G36*
X642322D02*
X639678D01*
X637125Y240756D01*
X634835Y239434D01*
X632966Y237565D01*
X631644Y235275D01*
X630960Y232722D01*
Y230078D01*
X631431Y228320D01*
X567700Y164588D01*
X131901D01*
X116000Y180489D01*
Y181194D01*
X115087Y183399D01*
X113399Y185086D01*
X111194Y186000D01*
X108806D01*
X106601Y185086D01*
X104914Y183399D01*
X104000Y181194D01*
Y178806D01*
X104361Y177935D01*
X102065Y175639D01*
X101194Y176000D01*
X98806D01*
X96601Y175086D01*
X94913Y173399D01*
X94000Y171194D01*
Y168806D01*
X94913Y166601D01*
X96601Y164913D01*
X98806Y164000D01*
X99511D01*
X116756Y146756D01*
X118244Y145761D01*
X120000Y145412D01*
X585000D01*
X586756Y145761D01*
X588244Y146756D01*
X637920Y196431D01*
X639678Y195960D01*
X642322D01*
X644875Y196644D01*
X647165Y197966D01*
X649034Y199835D01*
X650356Y202125D01*
X651040Y204678D01*
Y207322D01*
X650356Y209875D01*
X649034Y212165D01*
X647165Y214034D01*
X644875Y215356D01*
X642322Y216040D01*
X639678D01*
X637125Y215356D01*
X634835Y214034D01*
X632966Y212165D01*
X631644Y209875D01*
X630960Y207322D01*
Y204678D01*
X631431Y202920D01*
X583100Y154588D01*
X574854D01*
X573677Y157588D01*
X637920Y221831D01*
X639678Y221360D01*
X642322D01*
X644875Y222044D01*
X647165Y223366D01*
X649034Y225235D01*
X650356Y227525D01*
X651040Y230078D01*
Y232722D01*
X650356Y235275D01*
X649034Y237565D01*
X647165Y239434D01*
X644875Y240756D01*
X642322Y241440D01*
D02*
G37*
G36*
X472000Y337588D02*
X322000D01*
X320244Y337239D01*
X318756Y336244D01*
X273100Y290588D01*
X214397D01*
X213899Y291087D01*
X211693Y292000D01*
X209307D01*
X207101Y291087D01*
X205413Y289399D01*
X204500Y287194D01*
Y284806D01*
X205413Y282601D01*
X207101Y280914D01*
X209307Y280000D01*
X211693D01*
X213899Y280914D01*
X214397Y281412D01*
X275000D01*
X276756Y281761D01*
X278244Y282756D01*
X323900Y328412D01*
X470099D01*
X546012Y252500D01*
Y229341D01*
X543692Y228002D01*
X541598Y225908D01*
X540117Y223342D01*
X539350Y220481D01*
X536450D01*
X535683Y223342D01*
X534202Y225908D01*
X532108Y228002D01*
X529788Y229341D01*
Y254800D01*
X529439Y256556D01*
X528444Y258044D01*
X518244Y268244D01*
X516756Y269239D01*
X515000Y269588D01*
X186894D01*
X185138Y269239D01*
X183650Y268244D01*
X181343Y265938D01*
X181194Y266000D01*
X178806D01*
X176601Y265086D01*
X174913Y263399D01*
X174000Y261194D01*
Y258806D01*
X174913Y256601D01*
X176601Y254913D01*
X178806Y254000D01*
X181194D01*
X181322Y254053D01*
X183021Y251510D01*
X178099Y246588D01*
X168897D01*
X168399Y247087D01*
X166194Y248000D01*
X163806D01*
X161601Y247087D01*
X159913Y245399D01*
X159000Y243193D01*
Y240807D01*
X159913Y238601D01*
X161601Y236913D01*
X163806Y236000D01*
X166194D01*
X167932Y236720D01*
X169261Y234024D01*
X167492Y233002D01*
X165398Y230908D01*
X163917Y228342D01*
X163150Y225481D01*
X160250D01*
X159483Y228342D01*
X158002Y230908D01*
X155908Y233002D01*
X153342Y234483D01*
X150481Y235250D01*
X147519D01*
X144658Y234483D01*
X142092Y233002D01*
X139998Y230908D01*
X138517Y228342D01*
X137750Y225481D01*
X134850D01*
X134083Y228342D01*
X132602Y230908D01*
X130508Y233002D01*
X127942Y234483D01*
X125081Y235250D01*
X122119D01*
X119258Y234483D01*
X116692Y233002D01*
X114598Y230908D01*
X113117Y228342D01*
X112350Y225481D01*
X109450D01*
X108683Y228342D01*
X107202Y230908D01*
X105108Y233002D01*
X102542Y234483D01*
X99681Y235250D01*
X96719D01*
X93858Y234483D01*
X91292Y233002D01*
X89198Y230908D01*
X87717Y228342D01*
X86950Y225481D01*
X84050D01*
X83283Y228342D01*
X81802Y230908D01*
X79708Y233002D01*
X77142Y234483D01*
X74281Y235250D01*
X71319D01*
X68458Y234483D01*
X65892Y233002D01*
X63798Y230908D01*
X62317Y228342D01*
X61550Y225481D01*
X58650D01*
X57883Y228342D01*
X56402Y230908D01*
X54308Y233002D01*
X51742Y234483D01*
X48881Y235250D01*
X45919D01*
X43058Y234483D01*
X40492Y233002D01*
X38398Y230908D01*
X36917Y228342D01*
X36150Y225481D01*
Y222519D01*
X36917Y219658D01*
X38398Y217092D01*
X40492Y214998D01*
X43058Y213517D01*
X45919Y212750D01*
X48881D01*
X51742Y213517D01*
X54308Y214998D01*
X56402Y217092D01*
X57883Y219658D01*
X58650Y222519D01*
X61550D01*
X62317Y219658D01*
X63798Y217092D01*
X65892Y214998D01*
X68458Y213517D01*
X71319Y212750D01*
X74281D01*
X77142Y213517D01*
X79708Y214998D01*
X81802Y217092D01*
X83283Y219658D01*
X84050Y222519D01*
X86950D01*
X87717Y219658D01*
X89198Y217092D01*
X91292Y214998D01*
X93858Y213517D01*
X96719Y212750D01*
X99681D01*
X102542Y213517D01*
X105108Y214998D01*
X107202Y217092D01*
X108683Y219658D01*
X109450Y222519D01*
X112350D01*
X113117Y219658D01*
X114598Y217092D01*
X116692Y214998D01*
X119258Y213517D01*
X122119Y212750D01*
X125081D01*
X126531Y213139D01*
X163635Y176035D01*
X165454Y174819D01*
X167600Y174392D01*
X410849D01*
X412995Y174819D01*
X414814Y176035D01*
X423314Y184535D01*
X423315Y184535D01*
X446739Y207959D01*
X447519Y207750D01*
X450481D01*
X453342Y208517D01*
X455908Y209998D01*
X458002Y212092D01*
X459483Y214658D01*
X460250Y217519D01*
X463150D01*
X463917Y214658D01*
X465398Y212092D01*
X467492Y209998D01*
X470058Y208517D01*
X472919Y207750D01*
X475881D01*
X478742Y208517D01*
X481308Y209998D01*
X483402Y212092D01*
X484883Y214658D01*
X485650Y217519D01*
X488550D01*
X489317Y214658D01*
X490798Y212092D01*
X492892Y209998D01*
X495458Y208517D01*
X498319Y207750D01*
X501281D01*
X504142Y208517D01*
X506708Y209998D01*
X508802Y212092D01*
X510283Y214658D01*
X511050Y217519D01*
X513950D01*
X514717Y214658D01*
X516198Y212092D01*
X518292Y209998D01*
X520858Y208517D01*
X523719Y207750D01*
X526681D01*
X529542Y208517D01*
X532108Y209998D01*
X534202Y212092D01*
X535683Y214658D01*
X536450Y217519D01*
X539350D01*
X540117Y214658D01*
X541598Y212092D01*
X543692Y209998D01*
X546258Y208517D01*
X549119Y207750D01*
X552081D01*
X554942Y208517D01*
X557508Y209998D01*
X559602Y212092D01*
X561083Y214658D01*
X561144Y214884D01*
X562071Y217500D01*
X562139Y217495D01*
X564750Y216555D01*
Y207750D01*
X587250D01*
Y230250D01*
X564750D01*
Y221445D01*
X562139Y220505D01*
X562071Y220500D01*
X561144Y223116D01*
X561083Y223342D01*
X559602Y225908D01*
X557508Y228002D01*
X555188Y229341D01*
Y254400D01*
X554839Y256156D01*
X553844Y257644D01*
X475244Y336244D01*
X473756Y337239D01*
X472000Y337588D01*
D02*
G37*
G36*
X896322Y216040D02*
X893678D01*
X891125Y215356D01*
X888835Y214034D01*
X886966Y212165D01*
X885644Y209875D01*
X884960Y207322D01*
Y204678D01*
X885644Y202125D01*
X886966Y199835D01*
X888835Y197966D01*
X891125Y196644D01*
X893678Y195960D01*
X896322D01*
X898875Y196644D01*
X901165Y197966D01*
X903034Y199835D01*
X904356Y202125D01*
X905040Y204678D01*
Y207322D01*
X904356Y209875D01*
X903034Y212165D01*
X901165Y214034D01*
X898875Y215356D01*
X896322Y216040D01*
D02*
G37*
G36*
Y190640D02*
X893678D01*
X891125Y189956D01*
X888835Y188634D01*
X886966Y186765D01*
X885644Y184475D01*
X884960Y181922D01*
Y179278D01*
X885644Y176725D01*
X886966Y174435D01*
X888835Y172566D01*
X891125Y171244D01*
X893678Y170560D01*
X896322D01*
X898875Y171244D01*
X901165Y172566D01*
X903034Y174435D01*
X904356Y176725D01*
X905040Y179278D01*
Y181922D01*
X904356Y184475D01*
X903034Y186765D01*
X901165Y188634D01*
X898875Y189956D01*
X896322Y190640D01*
D02*
G37*
G36*
X642322D02*
X639678D01*
X637125Y189956D01*
X634835Y188634D01*
X632966Y186765D01*
X631644Y184475D01*
X630960Y181922D01*
Y179278D01*
X631644Y176725D01*
X632966Y174435D01*
X634835Y172566D01*
X637125Y171244D01*
X639678Y170560D01*
X642322D01*
X644875Y171244D01*
X647165Y172566D01*
X649034Y174435D01*
X650356Y176725D01*
X651040Y179278D01*
Y181922D01*
X650356Y184475D01*
X649034Y186765D01*
X647165Y188634D01*
X644875Y189956D01*
X642322Y190640D01*
D02*
G37*
G36*
X896322Y165240D02*
X893678D01*
X891125Y164556D01*
X888835Y163234D01*
X886966Y161365D01*
X885644Y159075D01*
X884960Y156522D01*
Y153878D01*
X885644Y151325D01*
X886966Y149035D01*
X888835Y147166D01*
X891125Y145844D01*
X893678Y145160D01*
X896322D01*
X898875Y145844D01*
X901165Y147166D01*
X903034Y149035D01*
X904356Y151325D01*
X905040Y153878D01*
Y156522D01*
X904356Y159075D01*
X903034Y161365D01*
X901165Y163234D01*
X898875Y164556D01*
X896322Y165240D01*
D02*
G37*
G36*
X642322D02*
X639678D01*
X637125Y164556D01*
X634835Y163234D01*
X632966Y161365D01*
X631644Y159075D01*
X630960Y156522D01*
Y153878D01*
X631644Y151325D01*
X632966Y149035D01*
X634835Y147166D01*
X637125Y145844D01*
X639678Y145160D01*
X642322D01*
X644875Y145844D01*
X647165Y147166D01*
X649034Y149035D01*
X650356Y151325D01*
X651040Y153878D01*
Y156522D01*
X650356Y159075D01*
X649034Y161365D01*
X647165Y163234D01*
X644875Y164556D01*
X642322Y165240D01*
D02*
G37*
G36*
X896322Y139840D02*
X893678D01*
X891125Y139156D01*
X888835Y137834D01*
X886966Y135965D01*
X885644Y133675D01*
X884960Y131122D01*
Y128478D01*
X885644Y125925D01*
X886966Y123635D01*
X888835Y121766D01*
X891125Y120444D01*
X893678Y119760D01*
X896322D01*
X898875Y120444D01*
X901165Y121766D01*
X903034Y123635D01*
X904356Y125925D01*
X905040Y128478D01*
Y131122D01*
X904356Y133675D01*
X903034Y135965D01*
X901165Y137834D01*
X898875Y139156D01*
X896322Y139840D01*
D02*
G37*
G36*
X642322D02*
X639678D01*
X637125Y139156D01*
X634835Y137834D01*
X632966Y135965D01*
X631644Y133675D01*
X630960Y131122D01*
Y128478D01*
X631644Y125925D01*
X632966Y123635D01*
X634835Y121766D01*
X637125Y120444D01*
X639678Y119760D01*
X642322D01*
X644875Y120444D01*
X647165Y121766D01*
X649034Y123635D01*
X650356Y125925D01*
X651040Y128478D01*
Y131122D01*
X650356Y133675D01*
X649034Y135965D01*
X647165Y137834D01*
X644875Y139156D01*
X642322Y139840D01*
D02*
G37*
G36*
X328185Y116000D02*
X325815D01*
X323526Y115387D01*
X321474Y114202D01*
X319798Y112526D01*
X318613Y110474D01*
X318000Y108185D01*
Y105815D01*
X318613Y103526D01*
X319798Y101474D01*
X321474Y99798D01*
X323526Y98613D01*
X325815Y98000D01*
X328185D01*
X330474Y98613D01*
X332526Y99798D01*
X334202Y101474D01*
X335387Y103526D01*
X336000Y105815D01*
Y108185D01*
X335387Y110474D01*
X334202Y112526D01*
X332526Y114202D01*
X330474Y115387D01*
X328185Y116000D01*
D02*
G37*
G36*
X896322Y114440D02*
X893678D01*
X891125Y113756D01*
X888835Y112434D01*
X886966Y110565D01*
X885644Y108275D01*
X884960Y105722D01*
Y103078D01*
X885644Y100525D01*
X886966Y98235D01*
X888835Y96366D01*
X891125Y95044D01*
X893678Y94360D01*
X896322D01*
X898875Y95044D01*
X901165Y96366D01*
X903034Y98235D01*
X904356Y100525D01*
X905040Y103078D01*
Y105722D01*
X904356Y108275D01*
X903034Y110565D01*
X901165Y112434D01*
X898875Y113756D01*
X896322Y114440D01*
D02*
G37*
G36*
X642322D02*
X639678D01*
X637125Y113756D01*
X634835Y112434D01*
X632966Y110565D01*
X631644Y108275D01*
X630960Y105722D01*
Y103078D01*
X631644Y100525D01*
X632966Y98235D01*
X634835Y96366D01*
X637125Y95044D01*
X639678Y94360D01*
X642322D01*
X644875Y95044D01*
X647165Y96366D01*
X649034Y98235D01*
X650356Y100525D01*
X651040Y103078D01*
Y105722D01*
X650356Y108275D01*
X649034Y110565D01*
X647165Y112434D01*
X644875Y113756D01*
X642322Y114440D01*
D02*
G37*
G36*
X226681Y108250D02*
X223719D01*
X220858Y107483D01*
X218292Y106002D01*
X216198Y103908D01*
X214717Y101342D01*
X213950Y98481D01*
Y95519D01*
X214717Y92658D01*
X216198Y90092D01*
X218292Y87998D01*
X220858Y86517D01*
X223719Y85750D01*
X226681D01*
X229542Y86517D01*
X232108Y87998D01*
X234202Y90092D01*
X235683Y92658D01*
X236450Y95519D01*
Y98481D01*
X235683Y101342D01*
X234202Y103908D01*
X232108Y106002D01*
X229542Y107483D01*
X226681Y108250D01*
D02*
G37*
G36*
X577481Y103250D02*
X574519D01*
X571658Y102483D01*
X569092Y101002D01*
X566998Y98908D01*
X565517Y96342D01*
X564750Y93481D01*
Y90519D01*
X565517Y87658D01*
X566998Y85092D01*
X569092Y82998D01*
X571658Y81517D01*
X574519Y80750D01*
X577481D01*
X580342Y81517D01*
X582908Y82998D01*
X585002Y85092D01*
X586483Y87658D01*
X587250Y90519D01*
Y93481D01*
X586483Y96342D01*
X585002Y98908D01*
X582908Y101002D01*
X580342Y102483D01*
X577481Y103250D01*
D02*
G37*
G36*
X896322Y89040D02*
X893678D01*
X891125Y88356D01*
X888835Y87034D01*
X886966Y85165D01*
X885644Y82875D01*
X884960Y80322D01*
Y77678D01*
X885644Y75125D01*
X886966Y72835D01*
X888835Y70966D01*
X891125Y69644D01*
X893678Y68960D01*
X896322D01*
X898875Y69644D01*
X901165Y70966D01*
X903034Y72835D01*
X904356Y75125D01*
X905040Y77678D01*
Y80322D01*
X904356Y82875D01*
X903034Y85165D01*
X901165Y87034D01*
X898875Y88356D01*
X896322Y89040D01*
D02*
G37*
G36*
X642322D02*
X639678D01*
X637125Y88356D01*
X634835Y87034D01*
X632966Y85165D01*
X631644Y82875D01*
X630960Y80322D01*
Y77678D01*
X631644Y75125D01*
X632966Y72835D01*
X634835Y70966D01*
X637125Y69644D01*
X639678Y68960D01*
X642322D01*
X644875Y69644D01*
X647165Y70966D01*
X649034Y72835D01*
X650356Y75125D01*
X651040Y77678D01*
Y80322D01*
X650356Y82875D01*
X649034Y85165D01*
X647165Y87034D01*
X644875Y88356D01*
X642322Y89040D01*
D02*
G37*
G36*
X896322Y63640D02*
X893678D01*
X891125Y62956D01*
X888835Y61634D01*
X886966Y59765D01*
X885644Y57475D01*
X884960Y54922D01*
Y52278D01*
X885644Y49725D01*
X886966Y47435D01*
X888835Y45566D01*
X891125Y44244D01*
X893678Y43560D01*
X896322D01*
X898875Y44244D01*
X901165Y45566D01*
X903034Y47435D01*
X904356Y49725D01*
X905040Y52278D01*
Y54922D01*
X904356Y57475D01*
X903034Y59765D01*
X901165Y61634D01*
X898875Y62956D01*
X896322Y63640D01*
D02*
G37*
G36*
X642322D02*
X639678D01*
X637125Y62956D01*
X634835Y61634D01*
X632966Y59765D01*
X631644Y57475D01*
X630960Y54922D01*
Y52278D01*
X631644Y49725D01*
X632966Y47435D01*
X634835Y45566D01*
X637125Y44244D01*
X639678Y43560D01*
X642322D01*
X644875Y44244D01*
X647165Y45566D01*
X649034Y47435D01*
X650356Y49725D01*
X651040Y52278D01*
Y54922D01*
X650356Y57475D01*
X649034Y59765D01*
X647165Y61634D01*
X644875Y62956D01*
X642322Y63640D01*
D02*
G37*
%LPD*%
G36*
X425057Y251833D02*
X425274Y250412D01*
X425015Y250249D01*
X424861D01*
X423105Y249900D01*
X421616Y248905D01*
X402268Y229557D01*
X399681Y230250D01*
X396719D01*
X393858Y229483D01*
X391292Y228002D01*
X389198Y225908D01*
X387717Y223342D01*
X386950Y220481D01*
Y217519D01*
X387717Y214658D01*
X389198Y212092D01*
X391292Y209998D01*
X393858Y208517D01*
X396719Y207750D01*
X399681D01*
X402542Y208517D01*
X405108Y209998D01*
X407202Y212092D01*
X408683Y214658D01*
X409450Y217519D01*
X412350D01*
X413117Y214658D01*
X414598Y212092D01*
X416692Y209998D01*
X419258Y208517D01*
X422119Y207750D01*
X425081D01*
X426918Y208242D01*
X428471Y205553D01*
X423772Y200853D01*
X420376Y201700D01*
X420087Y202399D01*
X418399Y204087D01*
X416194Y205000D01*
X413806D01*
X411601Y204087D01*
X409913Y202399D01*
X409000Y200194D01*
Y199489D01*
X401100Y191588D01*
X235847D01*
X235035Y192400D01*
Y196550D01*
X235087Y196601D01*
X236000Y198806D01*
Y201194D01*
X235087Y203399D01*
X233399Y205087D01*
X231194Y206000D01*
X228806D01*
X226601Y205087D01*
X224913Y203399D01*
X224000Y201194D01*
Y198806D01*
X224913Y196601D01*
X225859Y195656D01*
Y190500D01*
X226208Y188744D01*
X226299Y188608D01*
X224695Y185608D01*
X169923D01*
X145289Y210242D01*
X146842Y212931D01*
X147519Y212750D01*
X150481D01*
X153342Y213517D01*
X155908Y214998D01*
X158002Y217092D01*
X159483Y219658D01*
X160250Y222519D01*
X163150D01*
X163917Y219658D01*
X165398Y217092D01*
X167492Y214998D01*
X170058Y213517D01*
X172919Y212750D01*
X175881D01*
X178742Y213517D01*
X181308Y214998D01*
X183402Y217092D01*
X184883Y219658D01*
X185650Y222519D01*
X188550D01*
X189317Y219658D01*
X190798Y217092D01*
X192892Y214998D01*
X195458Y213517D01*
X198319Y212750D01*
X201281D01*
X204142Y213517D01*
X206708Y214998D01*
X208802Y217092D01*
X210283Y219658D01*
X210344Y219884D01*
X211270Y222500D01*
X211339Y222495D01*
X213950Y221555D01*
Y212750D01*
X236450D01*
Y235250D01*
X213950D01*
Y226445D01*
X211339Y225505D01*
X211270Y225499D01*
X210344Y228116D01*
X210283Y228342D01*
X208802Y230908D01*
X206708Y233002D01*
X204142Y234483D01*
X201281Y235250D01*
X198319D01*
X195458Y234483D01*
X192892Y233002D01*
X190798Y230908D01*
X189317Y228342D01*
X188550Y225481D01*
X185650D01*
X184883Y228342D01*
X183402Y230908D01*
X181308Y233002D01*
X178742Y234483D01*
X179404Y237412D01*
X180000D01*
X181756Y237761D01*
X183244Y238756D01*
X197901Y253412D01*
X423865D01*
X425057Y251833D01*
D02*
G37*
%LPC*%
G36*
X329185Y215000D02*
X326815D01*
X324526Y214387D01*
X322474Y213202D01*
X320798Y211526D01*
X319613Y209474D01*
X319000Y207185D01*
Y204815D01*
X319613Y202526D01*
X320798Y200474D01*
X322474Y198798D01*
X324526Y197613D01*
X326815Y197000D01*
X329185D01*
X331474Y197613D01*
X333526Y198798D01*
X335202Y200474D01*
X336387Y202526D01*
X337000Y204815D01*
Y207185D01*
X336387Y209474D01*
X335202Y211526D01*
X333526Y213202D01*
X331474Y214387D01*
X329185Y215000D01*
D02*
G37*
%LPD*%
D18*
X585000Y297000D02*
D03*
X423800D02*
D03*
X959840Y659948D02*
D03*
X40000Y40000D02*
D03*
X959840Y39948D02*
D03*
X40000Y660000D02*
D03*
D25*
X947000Y447650D02*
D03*
Y422250D02*
D03*
Y396850D02*
D03*
Y371450D02*
D03*
X444200Y35000D02*
D03*
X469600D02*
D03*
X495000D02*
D03*
X520400D02*
D03*
X179400D02*
D03*
X154000D02*
D03*
X128600D02*
D03*
X103200D02*
D03*
D31*
X895000Y485400D02*
D03*
X641000Y460000D02*
D03*
X895000D02*
D03*
X641000Y434600D02*
D03*
X895000D02*
D03*
X641000Y409200D02*
D03*
X895000D02*
D03*
X641000Y383800D02*
D03*
X895000D02*
D03*
X641000Y358400D02*
D03*
X895000D02*
D03*
X641000Y333000D02*
D03*
X895000D02*
D03*
X641000Y307600D02*
D03*
X895000D02*
D03*
X641000Y282200D02*
D03*
X895000D02*
D03*
X641000Y256800D02*
D03*
X895000D02*
D03*
X641000Y231400D02*
D03*
X895000D02*
D03*
X641000Y206000D02*
D03*
X895000D02*
D03*
X641000Y180600D02*
D03*
X895000D02*
D03*
X641000Y155200D02*
D03*
X895000D02*
D03*
X641000Y129800D02*
D03*
X895000D02*
D03*
X641000Y104400D02*
D03*
X895000D02*
D03*
X641000Y79000D02*
D03*
X895000D02*
D03*
X641000Y53600D02*
D03*
X895000D02*
D03*
X641000Y28200D02*
D03*
X895000D02*
D03*
D32*
X641000Y485400D02*
D03*
D35*
X234754Y477500D02*
D03*
D36*
X309754D02*
D03*
D37*
X550882Y502642D02*
Y526518D01*
Y479882D02*
Y502642D01*
X41000Y343000D02*
X103000Y405000D01*
X41000Y330000D02*
Y343000D01*
X393000Y454000D02*
X525000D01*
X550882Y479882D01*
X103000Y405000D02*
X344000D01*
X393000Y454000D01*
X504400Y573000D02*
X550882Y526518D01*
D38*
X558947Y310000D02*
X568947Y320000D01*
X520000Y310000D02*
X558947D01*
X210500Y286000D02*
X275000D01*
X322000Y333000D01*
X472000D01*
X230000Y200000D02*
X230447Y199553D01*
Y190500D02*
Y199553D01*
Y190500D02*
X233947Y187000D01*
X403000D01*
X415000Y199000D01*
X100000Y170000D02*
X120000Y150000D01*
X585000D01*
X110000Y180000D02*
X130000Y160000D01*
X569600D01*
X585000Y150000D02*
X641000Y206000D01*
X569600Y160000D02*
X641000Y231400D01*
X424861Y245661D02*
X431761D01*
X398200Y219000D02*
X424861Y245661D01*
X530000Y300000D02*
X544447D01*
X587647Y256800D01*
X180000Y260000D02*
X181894D01*
X186894Y265000D01*
X515000D01*
X196000Y258000D02*
X486000D01*
X180000Y242000D02*
X196000Y258000D01*
X165000Y242000D02*
X180000D01*
X515000Y265000D02*
X525200Y254800D01*
X486000Y258000D02*
X499800Y244200D01*
Y219000D02*
Y244200D01*
X587647Y256800D02*
X641000D01*
X603200Y320000D02*
X641000Y282200D01*
X568947Y320000D02*
X603200D01*
X426183Y221583D02*
X427883D01*
X454300Y248000D02*
X456000D01*
X427883Y221583D02*
X454300Y248000D01*
X423600Y219000D02*
X426183Y221583D01*
X525200Y219000D02*
Y254800D01*
X472000Y333000D02*
X550600Y254400D01*
Y219000D02*
Y254400D01*
X199800Y224000D02*
Y225631D01*
X883460Y346860D02*
X895000Y358400D01*
X584840Y346860D02*
X883460D01*
X517100Y414600D02*
X584840Y346860D01*
X831400Y371000D02*
X895000Y434600D01*
X586100Y371000D02*
X831400D01*
X542500Y414600D02*
X586100Y371000D01*
D39*
X443440Y35760D02*
X444200Y35000D01*
X442365Y39643D02*
Y61959D01*
X471162Y90756D01*
X473156D01*
X443440Y35760D02*
Y38567D01*
X442365Y39643D02*
X443440Y38567D01*
X473156Y90756D02*
X474400Y92000D01*
X103200Y76600D02*
X123600Y97000D01*
X103200Y35000D02*
Y76600D01*
D40*
X449000Y218151D02*
Y219000D01*
X419349Y188500D02*
X449000Y218151D01*
X410849Y180000D02*
X419349Y188500D01*
X167600Y180000D02*
X410849D01*
X419349Y188500D02*
X419349D01*
X123600Y224000D02*
X167600Y180000D01*
D42*
X44500Y323000D02*
D03*
X270500D02*
D03*
D43*
X567900Y414600D02*
D03*
X593300D02*
D03*
X542500D02*
D03*
X517100D02*
D03*
X491700D02*
D03*
X466300D02*
D03*
X440900D02*
D03*
X415500D02*
D03*
D44*
X239000Y638000D02*
D03*
D45*
X289000D02*
D03*
D46*
X70500Y475510D02*
D03*
Y522500D02*
D03*
D47*
Y569490D02*
D03*
D48*
X72800Y97000D02*
D03*
X98200D02*
D03*
X123600D02*
D03*
X174400D02*
D03*
X199800Y224000D02*
D03*
X174400D02*
D03*
X47400D02*
D03*
X72800D02*
D03*
X98200D02*
D03*
X123600D02*
D03*
X149000Y97000D02*
D03*
Y224000D02*
D03*
X225200Y97000D02*
D03*
X47400D02*
D03*
X199800D02*
D03*
X423600Y92000D02*
D03*
X449000D02*
D03*
X474400D02*
D03*
X525200D02*
D03*
X550600Y219000D02*
D03*
X525200D02*
D03*
X398200D02*
D03*
X423600D02*
D03*
X449000D02*
D03*
X474400D02*
D03*
X499800Y92000D02*
D03*
Y219000D02*
D03*
X576000Y92000D02*
D03*
X550600D02*
D03*
X398200D02*
D03*
D49*
X225200Y224000D02*
D03*
X576000Y219000D02*
D03*
D50*
X453600Y573000D02*
D03*
X479000D02*
D03*
D51*
X504400D02*
D03*
D52*
X550882Y502642D02*
D03*
X426356D02*
D03*
D53*
X530882D02*
D03*
X406356D02*
D03*
D54*
X292000Y107000D02*
D03*
X293000Y206000D02*
D03*
D55*
X327000Y107000D02*
D03*
X328000Y206000D02*
D03*
D56*
X210500Y286000D02*
D03*
X230000Y200000D02*
D03*
X100000Y170000D02*
D03*
X110000Y180000D02*
D03*
X431761Y245661D02*
D03*
X530000Y300000D02*
D03*
X520000Y310000D02*
D03*
X420000Y580000D02*
D03*
X400000D02*
D03*
Y560000D02*
D03*
X420000D02*
D03*
X400000Y540000D02*
D03*
X420000D02*
D03*
X380000Y580000D02*
D03*
X360000D02*
D03*
Y560000D02*
D03*
X380000D02*
D03*
X360000Y540000D02*
D03*
X380000D02*
D03*
Y640000D02*
D03*
X360000D02*
D03*
Y620000D02*
D03*
X380000D02*
D03*
X360000Y600000D02*
D03*
X380000D02*
D03*
X560000Y580000D02*
D03*
X540000D02*
D03*
Y560000D02*
D03*
X560000D02*
D03*
Y540000D02*
D03*
X600000Y580000D02*
D03*
X580000D02*
D03*
Y560000D02*
D03*
X600000D02*
D03*
Y540000D02*
D03*
X580000D02*
D03*
X600000Y640000D02*
D03*
X580000D02*
D03*
Y620000D02*
D03*
X600000D02*
D03*
Y600000D02*
D03*
X580000D02*
D03*
X540000D02*
D03*
X520000D02*
D03*
X560000D02*
D03*
Y620000D02*
D03*
X540000D02*
D03*
X520000D02*
D03*
Y640000D02*
D03*
X540000D02*
D03*
X560000D02*
D03*
X420000Y600000D02*
D03*
X400000D02*
D03*
X440000D02*
D03*
Y620000D02*
D03*
X420000D02*
D03*
X400000D02*
D03*
Y640000D02*
D03*
X420000D02*
D03*
X440000D02*
D03*
X510000Y510000D02*
D03*
X490000D02*
D03*
X470000D02*
D03*
Y530000D02*
D03*
X490000D02*
D03*
X510000D02*
D03*
X490000Y550000D02*
D03*
X470000D02*
D03*
X500000Y640000D02*
D03*
X480000D02*
D03*
X460000D02*
D03*
Y620000D02*
D03*
X480000D02*
D03*
X500000D02*
D03*
Y600000D02*
D03*
X460000D02*
D03*
X480000D02*
D03*
X415000Y199000D02*
D03*
X180000Y260000D02*
D03*
X165000Y242000D02*
D03*
X456000Y248000D02*
D03*
M02*
